<?xml version="1.0" standalone="no"?>
<!DOCTYPE svg PUBLIC "-//W3C//DTD SVG 1.1//EN" "http://www.w3.org/Graphics/SVG/1.1/DTD/svg11.dtd" >
<svg xmlns="http://www.w3.org/2000/svg" xmlns:xlink="http://www.w3.org/1999/xlink" version="1.1">
<metadata>
Created by FontForge 20201107 at Fri Mar 29 13:05:55 2024
 By 
Copyright (c) 2017 by Timo Gaessner. All rights reserved. |DCNT
</metadata>
<defs>
<font id="MaisonNeue-ExtendedExtraBold" horiz-adv-x="1474" >
  <font-face 
    font-family="Maison Neue Extended ExtraBold"
    font-weight="800"
    font-stretch="expanded"
    units-per-em="2048"
    panose-1="2 11 9 5 4 0 0 0 0 0"
    ascent="1495"
    descent="-553"
    x-height="1085"
    cap-height="1434"
    bbox="-1608 -668 5134 2222"
    underline-thickness="204"
    underline-position="-245"
    unicode-range="U+000D-FEFF"
  />
<missing-glyph horiz-adv-x="1445" 
d="M96 -10v866q0 171 80.5 309t217 213.5t300.5 75.5q122 1 233.5 -44t193.5 -123.5t129.5 -191t45.5 -239.5v-866h-57l-133 133l-139 -133l-129 133l-146 -133l-141 133l-129 -133l-137 133l-135 -133h-54zM301 614l129 129l131 -129l29 29l-131 129l131 131l-29 29
l-131 -131l-129 131l-29 -29l129 -131l-129 -129zM834 614l129 129l131 -129l28 29l-131 129l131 131l-28 29l-131 -131l-129 131l-29 -29l129 -131l-129 -129z" />
    <glyph glyph-name="fi" unicode="fi" horiz-adv-x="1470" 
d="M1360 1571v-303h-324v303h324zM1384 1085v-1085h-344v801h-450v-801h-354v801h-232v284h232v105q0 154 98 241t276 87h277v-283h-213q-84 0 -84 -80v-70h794z" />
    <glyph glyph-name="fl" unicode="fl" horiz-adv-x="1482" 
d="M1040 1495h355v-1495h-355v801h-450v-801h-354v801h-232v284h232v105q0 154 98 241t276 87h277v-283h-213q-84 0 -84 -80v-70h450v410z" />
    <glyph glyph-name="W_W_W" unicode="WWW" horiz-adv-x="5148" 
d="M377 0l-363 1434h377l225 -932h5l342 932h286l344 -932h4l345 932h286l344 -932h4l344 932h287l344 -932h4l344 932h285l344 -932h4l228 932h374l-362 -1434h-381l-348 915h-4l-349 -915h-278l-346 915h-4l-350 -915h-279l-346 915h-4l-348 -915h-281l-346 915h-4
l-348 -915h-379z" />
    <glyph glyph-name="w_w_w" unicode="www" horiz-adv-x="4556" 
d="M330 0l-305 1085h358l174 -657h4l273 657h309l274 -657h4l273 657h309l274 -657h4l273 657h309l275 -657h4l272 657h309l275 -657h4l172 657h360l-307 -1085h-358l-297 717h-4l-299 -717h-260l-297 717h-5l-299 -717h-260l-297 717h-4l-299 -717h-260l-297 717h-4
l-299 -717h-358z" />
    <glyph glyph-name=".notdef" horiz-adv-x="1445" 
d="M96 -10v866q0 171 80.5 309t217 213.5t300.5 75.5q122 1 233.5 -44t193.5 -123.5t129.5 -191t45.5 -239.5v-866h-57l-133 133l-139 -133l-129 133l-146 -133l-141 133l-129 -133l-137 133l-135 -133h-54zM301 614l129 129l131 -129l29 29l-131 129l131 131l-29 29
l-131 -131l-129 131l-29 -29l129 -131l-129 -129zM834 614l129 129l131 -129l28 29l-131 129l131 131l-28 29l-131 -131l-129 131l-29 -29l129 -131l-129 -129z" />
    <glyph glyph-name=".null" horiz-adv-x="0" 
 />
    <glyph glyph-name="nonmarkingreturn" horiz-adv-x="682" 
 />
    <glyph glyph-name="CR" unicode="&#xd;" horiz-adv-x="509" 
 />
    <glyph glyph-name="space" unicode=" " horiz-adv-x="522" 
 />
    <glyph glyph-name="exclam" unicode="!" horiz-adv-x="849" 
d="M244 541v893h364v-893h-364zM231 0v377h387v-377h-387z" />
    <glyph glyph-name="quotedbl" unicode="&#x22;" horiz-adv-x="983" 
d="M150 901v533h280v-533h-280zM555 901v533h281v-533h-281z" />
    <glyph glyph-name="numbersign" unicode="#" horiz-adv-x="1828" 
d="M1688 854h-279l-47 -262h285l-50 -287h-286l-54 -305h-327l53 305h-293l-53 -305h-328l53 305h-274l51 287h275l47 262h-283l53 289h281l51 291h328l-51 -291h293l51 291h327l-51 -291h281zM1034 592l47 262h-293l-47 -262h293z" />
    <glyph glyph-name="dollar" unicode="$" horiz-adv-x="1445" 
d="M793 -37v-199h-158v207q-247 27 -399.5 157t-188.5 353l338 60q26 -117 87.5 -183t162.5 -90v338q-172 41 -285 86q-125 51 -197.5 136.5t-72.5 209.5q0 187 152 305t403 127v179h158v-185q217 -26 363 -139.5t187 -290.5l-335 -73q-57 163 -215 204v-286
q187 -42 303 -88q138 -54 220.5 -150.5t82.5 -237.5q0 -195 -163.5 -316t-442.5 -124zM635 913v265q-97 -5 -151 -40.5t-54 -95.5q0 -42 49.5 -71.5t155.5 -57.5zM1049 397q0 59 -61 97.5t-195 72.5v-313q122 1 189 40t67 103z" />
    <glyph glyph-name="percent" unicode="%" horiz-adv-x="2349" 
d="M795 -197l-252 144l1024 1673l258 -141zM88 1004q0 195 122.5 321.5t311.5 126.5t311.5 -126.5t122.5 -321.5t-122.5 -322t-311.5 -127t-311.5 127t-122.5 322zM684 1004q0 97 -42 150.5t-120 53.5q-77 0 -119.5 -54.5t-42.5 -149.5t42.5 -150t119.5 -55q78 0 120 54
t42 151zM1393 430q0 195 122.5 322t311.5 127q190 0 312 -127t122 -322t-122 -321.5t-312 -126.5q-189 0 -311.5 126.5t-122.5 321.5zM1989 430q0 97 -42 151t-120 54q-77 0 -118.5 -53.5t-41.5 -151.5t41.5 -151.5t118.5 -53.5q78 0 120 54t42 151z" />
    <glyph glyph-name="ampersand" unicode="&#x26;" horiz-adv-x="1617" 
d="M1602 293l-195 -268l-152 108q-182 -170 -530 -170q-301 0 -469 113t-168 317q0 122 70.5 227.5t193.5 172.5q-73 67 -105 135t-32 153q0 174 140.5 283t365.5 109q221 0 366 -109q149 -109 173 -291l-353 -33q-13 66 -62 102t-124 36q-67 0 -108.5 -30t-41.5 -75
q0 -35 22 -63t85 -72l391 -272v219h320v-443zM971 338l-379 272q-150 -74 -150 -178q0 -73 77.5 -114.5t209.5 -41.5q165 0 242 62z" />
    <glyph glyph-name="quotesingle" unicode="'" horiz-adv-x="579" 
d="M150 901v533h280v-533h-280z" />
    <glyph glyph-name="parenleft" unicode="(" horiz-adv-x="776" 
d="M150 604q0 262 106.5 519t310.5 489l203 -150q-166 -212 -242 -420q-73 -198 -73 -438t73 -438q76 -208 242 -420l-203 -149q-204 232 -310.5 488.5t-106.5 518.5z" />
    <glyph glyph-name="parenright" unicode=")" horiz-adv-x="776" 
d="M209 -403l-203 149q166 212 242 420q74 201 74 438t-74 438q-76 208 -242 420l203 150q204 -232 311 -489t107 -519t-106.5 -518.5t-311.5 -488.5z" />
    <glyph glyph-name="asterisk" unicode="*" horiz-adv-x="1015" 
d="M305 629l-166 141l180 211l-231 131l109 191l202 -119v250h217v-250l203 119l109 -191l-228 -131l177 -211l-162 -141l-205 241z" />
    <glyph glyph-name="plus" unicode="+" horiz-adv-x="1255" 
d="M1167 872v-270h-393v-426h-291v426h-395v270h395v426h291v-426h393z" />
    <glyph glyph-name="comma" unicode="," horiz-adv-x="677" 
d="M162 -330v174q72 17 98.5 50.5t26.5 105.5h-137v348h378v-297q0 -171 -93.5 -269.5t-272.5 -111.5z" />
    <glyph glyph-name="hyphen" unicode="-" horiz-adv-x="712" 
d="M68 449v296h577v-296h-577z" />
    <glyph glyph-name="period" unicode="." horiz-adv-x="686" 
d="M150 0v377h387v-377h-387z" />
    <glyph glyph-name="slash" unicode="/" horiz-adv-x="1136" 
d="M190 -150l-194 111l954 1626l191 -114z" />
    <glyph glyph-name="zero" unicode="0" horiz-adv-x="1492" 
d="M47 688q0 208 88 373t248 258.5t365 93.5q203 0 362.5 -93t247.5 -258.5t88 -373.5q2 -154 -49.5 -289.5t-143.5 -232.5t-223.5 -152t-281.5 -53q-202 -3 -364 92t-250.5 262t-86.5 373zM1092 688q0 190 -92 300t-252 110q-161 0 -254 -109.5t-93 -300.5t93 -301.5
t254 -110.5q160 0 252 110.5t92 301.5z" />
    <glyph glyph-name="one" unicode="1" horiz-adv-x="999" 
d="M485 0v1012l-448 -230v353l475 241h328v-1376h-355z" />
    <glyph glyph-name="two" unicode="2" horiz-adv-x="1415" 
d="M475 307h848v-307h-1231v219q0 95 26.5 165.5t82.5 133.5q66 73 161.5 123.5t249.5 93.5q155 44 232 76.5t108 67t31 86.5q0 67 -61.5 106t-169.5 39q-139 0 -227 -69.5t-105 -194.5l-348 35q22 239 210 385.5t470 146.5q255 0 420 -125t165 -315q0 -179 -116 -288
t-381 -185q-159 -46 -226.5 -70.5t-95.5 -48.5q-24 -19 -33 -34.5t-10 -39.5z" />
    <glyph glyph-name="three" unicode="3" horiz-adv-x="1433" 
d="M57 424l340 92q56 -250 338 -250q266 0 266 160q0 145 -223 145h-198v258h180q205 0 205 134q0 69 -63 108t-173 39q-125 0 -202.5 -53t-102.5 -156l-344 64q41 208 215 327q177 121 436 121q255 0 422.5 -117t167.5 -295q0 -166 -180 -268v-4q102 -51 158.5 -137
t56.5 -191q0 -198 -168 -318t-449 -120q-270 0 -456 125.5t-226 335.5z" />
    <glyph glyph-name="four" unicode="4" horiz-adv-x="1447" 
d="M864 0v213h-860v313l637 850h578v-854h202v-309h-202v-213h-355zM377 522h487v631h-4z" />
    <glyph glyph-name="five" unicode="5" horiz-adv-x="1411" 
d="M49 336l326 131q83 -195 346 -195q136 0 217.5 55t81.5 146t-80.5 145t-216.5 54q-178 0 -322 -111l-331 88l129 727h1024v-305h-756l-37 -211l4 -2q143 82 350 82q258 0 424 -137.5t166 -351.5q0 -220 -178 -354t-475 -134q-254 0 -434 103q-177 106 -238 270z" />
    <glyph glyph-name="six" unicode="6" horiz-adv-x="1441" 
d="M1415 440q0 -140 -84 -249.5t-230.5 -168.5t-328.5 -59q-337 0 -531 191.5t-194 527.5q0 213 91.5 380t255.5 259t374 92q227 0 387 -100q164 -99 219 -262l-332 -101q-31 75 -101.5 116.5t-168.5 41.5q-146 0 -232.5 -76.5t-103.5 -218.5h4q139 102 381 102
q258 0 426 -135t168 -340zM1063 465q0 91 -80 145t-215 54q-133 0 -216 -55.5t-83 -143.5t83 -142.5t216 -54.5q136 0 215.5 52.5t79.5 144.5z" />
    <glyph glyph-name="seven" unicode="7" horiz-adv-x="1261" 
d="M188 0l627 1065v2h-809v309h1229v-280l-625 -1096h-422z" />
    <glyph glyph-name="eight" unicode="8" horiz-adv-x="1409" 
d="M16 397q0 121 77 219t206 142v4q-190 102 -190 264q0 175 165.5 281t430.5 106q174 0 309 -47t210.5 -135.5t75.5 -204.5q0 -163 -192 -264v-4q131 -44 208 -141t77 -220q0 -126 -90 -226t-247 -155t-351 -55t-351 55t-247.5 155t-90.5 226zM940 1006q0 66 -62 102.5
t-173 36.5t-173.5 -36.5t-62.5 -102.5q0 -63 63.5 -99.5t172.5 -36.5q110 0 172.5 36.5t62.5 99.5zM1010 446q0 72 -82 115t-223 43t-223.5 -43t-82.5 -115q0 -75 81.5 -116t224.5 -41t224 41t81 116z" />
    <glyph glyph-name="nine" unicode="9" horiz-adv-x="1366" 
d="M1319 725q0 -376 -162.5 -570t-476.5 -194q-215 0 -370.5 95t-209.5 261l322 109q35 -91 97 -132.5t161 -41.5q117 0 187 72t83 208q-133 -81 -336 -81q-256 0 -421.5 131.5t-165.5 335.5q0 213 176.5 354t449.5 141q318 0 492 -180.5t174 -507.5zM662 723
q129 0 202.5 51.5t73.5 143.5q0 88 -76 142t-203 54q-128 0 -202 -52t-74 -142q0 -92 74 -144.5t205 -52.5z" />
    <glyph glyph-name="colon" unicode=":" horiz-adv-x="686" 
d="M150 643v377h387v-377h-387zM150 0v377h387v-377h-387z" />
    <glyph glyph-name="semicolon" unicode=";" horiz-adv-x="686" 
d="M166 -330v174q72 17 98.5 50.5t26.5 105.5h-137v348h378v-297q0 -171 -93.5 -269.5t-272.5 -111.5zM150 643v377h387v-377h-387z" />
    <glyph glyph-name="less" unicode="&#x3c;" horiz-adv-x="1128" 
d="M885 139l-797 477v203l797 475l155 -252l-569 -325l569 -326z" />
    <glyph glyph-name="equal" unicode="=" horiz-adv-x="1150" 
d="M88 782v273h975v-273h-975zM88 354v273h975v-273h-975z" />
    <glyph glyph-name="greater" unicode="&#x3e;" horiz-adv-x="1128" 
d="M244 139l-156 252l569 326l-569 325l156 252l796 -475v-203z" />
    <glyph glyph-name="question" unicode="?" horiz-adv-x="1456" 
d="M512 471v113q0 88 52 150t173 116q134 60 180 96.5t46 83.5q0 61 -59 98t-156 37q-123 0 -200.5 -70.5t-84.5 -191.5l-354 29q12 245 185.5 393t453.5 148q249 0 414 -126t165 -315q0 -127 -81.5 -218.5t-241.5 -154.5q-99 -41 -132.5 -71t-33.5 -78v-39h-326zM485 0v362
h387v-362h-387z" />
    <glyph glyph-name="at" unicode="@" horiz-adv-x="1753" 
d="M88 592q-3 155 58 296.5t166.5 244.5t254.5 162.5t314 56.5q164 2 310.5 -54t251.5 -153.5t165 -233.5t57 -286q0 -213 -85 -327t-241 -114q-159 0 -221 105h-4q-41 -54 -117.5 -83.5t-173.5 -29.5q-149 0 -236 65t-87 175q0 93 61 151t189 84q171 41 213.5 58t42.5 49
q0 30 -28.5 46.5t-78.5 16.5q-138 0 -168 -116l-223 55q26 115 130.5 184.5t252.5 69.5q168 0 267 -86t99 -232v-217q0 -51 18.5 -73.5t59.5 -22.5q111 0 111 240q0 232 -158 383t-405 151q-164 0 -296.5 -75t-206 -204t-73.5 -286q0 -268 150.5 -411.5t421.5 -143.5
q188 0 393 84l76 -189q-232 -90 -457 -90q-371 0 -587 197.5t-216 552.5zM1006 465v100h-2q-11 -14 -40 -25.5t-118 -33.5q-50 -14 -72 -31t-22 -43q0 -32 24 -46.5t78 -14.5q66 0 109 26.5t43 67.5z" />
    <glyph glyph-name="A" unicode="A" horiz-adv-x="1583" 
d="M1225 0l-88 213h-688l-89 -213h-378l641 1434h338l641 -1434h-377zM575 522h435l-215 522h-4z" />
    <glyph glyph-name="B" unicode="B" horiz-adv-x="1490" 
d="M129 0v1434h813q194 0 318 -108.5t124 -278.5q0 -85 -38.5 -155.5t-106.5 -113.5v-4q92 -44 144.5 -132t52.5 -198q0 -444 -564 -444h-743zM487 879h390q145 0 145 125q0 122 -145 122h-390v-247zM487 307h422q85 0 125.5 37t40.5 113q0 69 -42.5 106t-123.5 37h-422
v-293z" />
    <glyph glyph-name="C" unicode="C" horiz-adv-x="1538" 
d="M47 717q-2 161 56 302.5t159.5 241.5t245 157t305.5 55q260 0 448.5 -136.5t237.5 -361.5l-338 -92q-35 130 -125 200t-223 70q-180 0 -290.5 -120.5t-110.5 -315.5t110.5 -315.5t290.5 -120.5q138 0 231 77t125 222l342 -84q-30 -164 -127.5 -286t-244.5 -185.5
t-326 -63.5q-162 -2 -305.5 55t-245 157t-159.5 241.5t-56 302.5z" />
    <glyph glyph-name="D" unicode="D" horiz-adv-x="1527" 
d="M129 0v1434h627q219 0 381.5 -82t253 -244.5t90.5 -390.5q0 -353 -197 -535t-532 -182h-623zM494 317h233q197 0 293 96.5t96 303.5q0 399 -389 399h-233v-799z" />
    <glyph glyph-name="E" unicode="E" horiz-adv-x="1312" 
d="M129 0v1434h1106v-318h-741v-244h671v-292h-671v-263h743v-317h-1108z" />
    <glyph glyph-name="F" unicode="F" horiz-adv-x="1312" 
d="M129 0v1434h1118v-318h-753v-321h725v-303h-725v-492h-365z" />
    <glyph glyph-name="G" unicode="G" horiz-adv-x="1554" 
d="M47 717q-3 161 55 302.5t159.5 241.5t245 157t306.5 55q256 0 443 -133t237 -345l-340 -94q-37 120 -124.5 186t-215.5 66q-183 0 -293 -119q-108 -120 -108 -317q0 -195 110.5 -315.5t290.5 -120.5q154 0 241.5 60t98.5 171h-326v260h680v-190q0 -287 -186.5 -454
t-507.5 -167q-162 -2 -305.5 55t-245 157t-159.5 241.5t-56 302.5z" />
    <glyph glyph-name="H" unicode="H" horiz-adv-x="1593" 
d="M129 0v1434h365v-537h606v537h364v-1434h-364v563h-606v-563h-365z" />
    <glyph glyph-name="I" unicode="I" horiz-adv-x="622" 
d="M129 0v1434h365v-1434h-365z" />
    <glyph glyph-name="J" unicode="J" horiz-adv-x="1345" 
d="M35 489l352 50q19 -140 75.5 -199t174.5 -59q106 0 165.5 74.5t59.5 209.5v869h365v-910q0 -171 -76 -299.5t-209 -196t-305 -67.5q-269 0 -429 139t-173 389z" />
    <glyph glyph-name="K" unicode="K" horiz-adv-x="1521" 
d="M129 0v1434h365v-600h4l551 600h483l-584 -621l592 -813h-455l-378 569h-5l-208 -225v-344h-365z" />
    <glyph glyph-name="L" unicode="L" horiz-adv-x="1261" 
d="M129 0v1434h365v-1115h731v-319h-1096z" />
    <glyph glyph-name="M" unicode="M" horiz-adv-x="2045" 
d="M129 0v1434h399l494 -942h4l492 942h399v-1434h-361v860h-4l-460 -860h-136l-460 860h-4v-860h-363z" />
    <glyph glyph-name="N" unicode="N" horiz-adv-x="1638" 
d="M129 0v1434h381l631 -912h4v912h364v-1434h-381l-630 913h-4v-913h-365z" />
    <glyph glyph-name="O" unicode="O" horiz-adv-x="1626" 
d="M47 717q-2 161 56 302.5t159.5 241.5t245 157t305.5 55q162 2 305.5 -55t245 -157t159.5 -241.5t56 -302.5q2 -161 -56 -302.5t-159.5 -241.5t-245 -157t-305.5 -55q-162 -2 -305.5 55t-245 157t-159.5 241.5t-56 302.5zM1214 717q0 198 -110 317q-107 119 -291 119
q-183 0 -293 -119q-108 -120 -108 -317q0 -195 110.5 -315.5t290.5 -120.5q185 0 291 118q110 119 110 318z" />
    <glyph glyph-name="P" unicode="P" horiz-adv-x="1464" 
d="M129 0v1434h770q242 0 391.5 -133t149.5 -361q0 -229 -148.5 -360t-392.5 -131h-405v-449h-365zM494 760h374q91 0 149 48t58 136q0 178 -203 178h-378v-362z" />
    <glyph glyph-name="Q" unicode="Q" horiz-adv-x="1658" 
d="M1612 147l-164 -186l-168 141q-196 -141 -467 -141q-162 -2 -305.5 55t-245 157t-159.5 241.5t-56 302.5q-2 161 56 302.5t159.5 241.5t245 157t305.5 55q162 2 305.5 -55t245 -157t159.5 -241.5t56 -302.5q0 -250 -125 -436zM1014 330l-279 235l170 180l273 -229
q36 82 36 201q0 198 -110 317q-107 119 -291 119q-183 0 -293 -119q-108 -120 -108 -317q0 -195 110.5 -315.5t290.5 -120.5q116 0 201 49z" />
    <glyph glyph-name="R" unicode="R" horiz-adv-x="1484" 
d="M1102 504l336 -504h-406l-301 475h-237v-475h-365v1434h770q242 0 388.5 -128.5t146.5 -349.5q0 -169 -87.5 -285.5t-244.5 -164.5v-2zM494 786h374q94 0 147.5 44.5t53.5 125.5q0 166 -201 166h-374v-336z" />
    <glyph glyph-name="S" unicode="S" horiz-adv-x="1419" 
d="M27 481l346 62q32 -149 124.5 -217t260.5 -68q128 0 199 36.5t71 102.5q0 45 -34 75.5t-123.5 61.5t-264.5 70q-277 62 -403.5 164.5t-126.5 267.5q0 191 166.5 312.5t433.5 121.5q256 0 438 -119t232 -317l-345 -76q-74 218 -325 218q-106 0 -171 -37t-65 -97
q4 -38 35 -61t108.5 -47t256.5 -66q286 -67 419.5 -176t133.5 -286q0 -202 -174 -323.5t-463 -121.5q-309 0 -500 136t-229 384z" />
    <glyph glyph-name="T" unicode="T" horiz-adv-x="1441" 
d="M537 0v1116h-500v318h1368v-318h-504v-1116h-364z" />
    <glyph glyph-name="U" unicode="U" horiz-adv-x="1574" 
d="M119 553v881h364v-854q0 -153 75 -226t230 -73q153 0 228.5 73t75.5 226v854h364v-881q0 -284 -174.5 -438t-493.5 -154t-494 154t-175 438z" />
    <glyph glyph-name="V" unicode="V" horiz-adv-x="1630" 
d="M633 0l-651 1434h399l432 -1000h4l432 1000h400l-652 -1434h-364z" />
    <glyph glyph-name="W" unicode="W" horiz-adv-x="2213" 
d="M377 0l-363 1434h377l225 -932h5l342 932h286l344 -932h4l226 932h377l-363 -1434h-383l-346 915h-4l-348 -915h-379z" />
    <glyph glyph-name="X" unicode="X" horiz-adv-x="1605" 
d="M-8 0l583 727l-567 707h449l344 -465h4l344 465h446l-565 -707l582 -727h-447l-360 485h-4l-361 -485h-448z" />
    <glyph glyph-name="Y" unicode="Y" horiz-adv-x="1519" 
d="M578 0v559l-607 875h422l365 -564h4l362 564h422l-604 -875v-559h-364z" />
    <glyph glyph-name="Z" unicode="Z" horiz-adv-x="1452" 
d="M66 0v281l813 831v4h-789v318h1296v-281l-815 -831v-5h805v-317h-1310z" />
    <glyph glyph-name="bracketleft" unicode="[" horiz-adv-x="731" 
d="M129 -373v1868h576v-270h-297v-1325h297v-273h-576z" />
    <glyph glyph-name="backslash" unicode="\" horiz-adv-x="1136" 
d="M946 -150l-950 1623l190 114l955 -1626z" />
    <glyph glyph-name="bracketright" unicode="]" horiz-adv-x="731" 
d="M602 -373h-575v273h297v1325h-297v270h575v-1868z" />
    <glyph glyph-name="asciicircum" unicode="^" horiz-adv-x="1357" 
d="M1249 666h-340l-229 528l-231 -528h-340l360 768h420z" />
    <glyph glyph-name="underscore" unicode="_" horiz-adv-x="1230" 
d="M68 -383v254h1095v-254h-1095z" />
    <glyph glyph-name="grave" unicode="`" horiz-adv-x="747" 
d="M383 1208l-295 297h350l221 -297h-276z" />
    <glyph glyph-name="a" unicode="a" horiz-adv-x="1241" 
d="M51 305q0 149 116 232t374 118q148 20 205 44.5t57 66.5q0 44 -48 71t-126 27q-100 0 -168.5 -49t-87.5 -135l-324 57q28 169 189 278t380 109q254 0 398 -120q147 -120 147 -328v-676h-321v109h-4q-128 -140 -371 -140q-190 0 -303 91t-113 245zM821 412v108h-4
q-17 -25 -62 -42.5t-143 -37.5q-124 -25 -171.5 -50t-47.5 -66q0 -82 152 -82q110 0 193 51t83 119z" />
    <glyph glyph-name="b" unicode="b" horiz-adv-x="1415" 
d="M426 104h-4v-104h-326v1495h355v-491h4q124 112 329 112q160 3 296 -74.5t213.5 -211t74.5 -289.5q2 -119 -42.5 -225t-122 -181.5t-187.5 -118.5t-234 -41q-109 0 -201.5 33.5t-154.5 95.5zM1014 545q0 117 -81.5 190.5t-211.5 73.5q-110 0 -190 -60t-80 -143v-119
q0 -84 77 -143q80 -59 193 -59q135 0 214 70.5t79 189.5z" />
    <glyph glyph-name="c" unicode="c" horiz-adv-x="1284" 
d="M47 543q0 163 81.5 296.5t223 209t314.5 75.5q212 0 373.5 -108.5t207.5 -280.5l-329 -100q-25 85 -90.5 132.5t-161.5 47.5q-118 0 -191.5 -75t-73.5 -197q0 -121 74 -197t191 -76q96 0 161 47t91 134l329 -101q-46 -172 -207.5 -280.5t-373.5 -108.5
q-173 0 -314.5 75.5t-223 209.5t-81.5 297z" />
    <glyph glyph-name="d" unicode="d" horiz-adv-x="1415" 
d="M47 541q-3 156 74 289.5t213 211t297 74.5q206 0 330 -112h4v491h354v-1495h-326v104h-4q-62 -62 -154.5 -95.5t-201.5 -33.5q-124 -2 -234 41t-187.5 118.5t-122 181.5t-42.5 225zM965 487v119q0 83 -80.5 143t-190.5 60q-130 0 -211.5 -73.5t-81.5 -190.5
q0 -119 79 -189.5t214 -70.5q114 0 191 59q80 59 80 143z" />
    <glyph glyph-name="e" unicode="e" horiz-adv-x="1318" 
d="M47 541q-2 120 45.5 229t129.5 187.5t197.5 123.5t242.5 43q174 0 314 -76.5t218 -210t78 -296.5v-105h-875q8 -93 83 -144.5t204 -51.5q168 0 328 151l196 -225q-114 -105 -243 -155t-293 -50q-284 0 -454.5 158.5t-170.5 421.5zM399 670h529q-10 88 -79.5 137
t-182.5 49q-109 0 -183 -51t-84 -135z" />
    <glyph glyph-name="f" unicode="f" horiz-adv-x="1032" 
d="M276 0v801h-272v284h272v105q0 154 98.5 241t276.5 87h297v-283h-233q-84 0 -84 -80v-70h397v-284h-397v-801h-355z" />
    <glyph glyph-name="g" unicode="g" horiz-adv-x="1386" 
d="M96 -242l240 211q85 -94 164.5 -133t191.5 -39q123 0 202 68t79 174v78h-4q-50 -60 -138.5 -93.5t-203.5 -33.5q-254 0 -417 155.5t-163 399.5q0 119 44 223t120.5 178.5t184 117t229.5 42.5q104 0 195.5 -32t148.5 -89h4v100h336v-1046q0 -154 -79 -277.5t-220 -192.5
t-318 -69q-186 0 -339.5 66.5t-256.5 191.5zM954 492v106q0 80 -79 140.5t-187 60.5q-131 0 -209 -69.5t-78 -184.5q0 -117 77 -185.5t208 -68.5q116 0 191 57q77 59 77 144z" />
    <glyph glyph-name="h" unicode="h" horiz-adv-x="1413" 
d="M96 0v1495h355v-510h4q140 131 352 131q235 0 381.5 -135t146.5 -352v-629h-354v561q0 119 -67 182.5t-191 63.5q-123 0 -197.5 -68t-74.5 -178v-561h-355z" />
    <glyph glyph-name="i" unicode="i" horiz-adv-x="530" 
d="M88 0v1085h354v-1085h-354zM88 1253v332h354v-332h-354z" />
    <glyph glyph-name="j" unicode="j" horiz-adv-x="552" 
d="M-178 -457v328h180q57 0 83 24t26 78v1112h354v-1116q0 -227 -101.5 -326.5t-330.5 -99.5h-211zM113 1253v332h354v-332h-354z" />
    <glyph glyph-name="k" unicode="k" horiz-adv-x="1409" 
d="M96 0v1495h355v-805h4l448 395h486l-517 -440l523 -645h-418l-338 436h-4l-184 -151v-285h-355z" />
    <glyph glyph-name="l" unicode="l" horiz-adv-x="530" 
d="M88 0v1495h354v-1495h-354z" />
    <glyph glyph-name="m" unicode="m" horiz-adv-x="2056" 
d="M96 0v1085h326v-100h4q55 63 141 97t189 34t195 -39t149 -108h4q68 71 163.5 109t202.5 38q144 0 260 -59.5t182 -165.5t66 -238v-653h-344v600q0 98 -58.5 156.5t-156.5 58.5q-99 0 -159 -58.5t-60 -156.5v-600h-326v600q0 98 -58.5 156.5t-156.5 58.5q-99 0 -159 -58.5
t-60 -156.5v-600h-344z" />
    <glyph glyph-name="n" unicode="n" horiz-adv-x="1413" 
d="M96 0v1085h342v-100h4q69 63 164 97t201 34q237 0 382.5 -142.5t145.5 -373.5v-600h-354v561q0 119 -67 182.5t-191 63.5q-123 0 -197.5 -68t-74.5 -178v-561h-355z" />
    <glyph glyph-name="o" unicode="o" horiz-adv-x="1355" 
d="M47 543q-2 122 46 230.5t132.5 186t202.5 122t250 42.5q132 2 250 -42.5t202.5 -122t132.5 -186t46 -230.5q3 -162 -79.5 -297t-229 -211.5t-322.5 -73.5q-176 -3 -322.5 73.5t-229 211.5t-79.5 297zM954 543q0 119 -76 195.5t-200 76.5t-200.5 -75t-76.5 -197
q0 -119 76.5 -196t200.5 -77q123 0 199.5 76.5t76.5 196.5z" />
    <glyph glyph-name="p" unicode="p" horiz-adv-x="1384" 
d="M96 -461v1546h336v-98h4q129 123 334 123q116 2 222.5 -43t182 -122t119.5 -183t43 -221q0 -161 -72.5 -292t-201 -205.5t-287.5 -74.5q-91 0 -175.5 28.5t-145.5 78.5h-4v-537h-355zM983 545q0 113 -75.5 184.5t-196.5 71.5q-107 0 -185 -60q-75 -57 -75 -143v-117
q0 -88 72.5 -146.5t189.5 -58.5q119 0 194.5 75.5t75.5 193.5z" />
    <glyph glyph-name="q" unicode="q" horiz-adv-x="1384" 
d="M1288 -461h-354v537h-4q-61 -50 -146 -78.5t-176 -28.5q-159 0 -287.5 74.5t-201 205.5t-72.5 292q-1 115 43 221t119.5 183t182 122t222.5 43q205 0 334 -123h4v98h336v-1546zM934 481v117q0 85 -76 143q-78 60 -184 60q-121 0 -197 -71.5t-76 -184.5q0 -118 76 -193.5
t195 -75.5q117 0 189.5 58.5t72.5 146.5z" />
    <glyph glyph-name="r" unicode="r" horiz-adv-x="956" 
d="M96 0v1085h334v-104h4q115 127 318 127q100 0 194 -27l-61 -315q-84 20 -164 20q-131 0 -200.5 -79.5t-69.5 -233.5v-473h-355z" />
    <glyph glyph-name="s" unicode="s" horiz-adv-x="1271" 
d="M27 328l331 94q26 -92 109 -140.5t211 -48.5q106 0 164.5 19.5t58.5 54.5q0 41 -58.5 64.5t-219.5 48.5q-288 43 -412.5 125t-124.5 229q0 157 146.5 253.5t385.5 96.5q214 0 382 -92.5t214 -234.5l-319 -95q-29 70 -108 112t-183 42q-86 0 -133 -20t-47 -56
q0 -37 55 -56.5t234 -47.5q286 -48 409 -130.5t123 -230.5q0 -164 -155.5 -259t-425.5 -95q-239 0 -416.5 102t-220.5 265z" />
    <glyph glyph-name="t" unicode="t" horiz-adv-x="995" 
d="M961 801h-347v-391q0 -50 23 -70.5t80 -20.5h203v-319h-256q-208 0 -306 92.5t-98 284.5v424h-256v284h256v281h354v-281h347v-284z" />
    <glyph glyph-name="u" unicode="u" horiz-adv-x="1366" 
d="M76 457v628h354v-553q0 -125 58 -185t180 -60q115 0 185.5 67.5t70.5 177.5v553h354v-1085h-344v104h-4q-129 -135 -357 -135q-230 0 -364 131q-133 133 -133 357z" />
    <glyph glyph-name="v" unicode="v" horiz-adv-x="1392" 
d="M526 0l-530 1085h397l301 -682h4l303 682h398l-533 -1085h-340z" />
    <glyph glyph-name="w" unicode="w" horiz-adv-x="1976" 
d="M330 0l-305 1085h358l174 -657h4l273 657h309l274 -657h4l172 657h361l-307 -1085h-359l-297 717h-4l-299 -717h-358z" />
    <glyph glyph-name="x" unicode="x" horiz-adv-x="1386" 
d="M-18 0l473 551l-461 534h455l245 -321h4l240 321h457l-463 -534l473 -551h-455l-252 338h-4l-254 -338h-458z" />
    <glyph glyph-name="y" unicode="y" horiz-adv-x="1398" 
d="M258 -461l250 512l-512 1034h395l309 -682h5l307 682h393l-756 -1546h-391z" />
    <glyph glyph-name="z" unicode="z" horiz-adv-x="1302" 
d="M45 0v256l674 541v4h-656v284h1174v-256l-674 -540v-4h694v-285h-1212z" />
    <glyph glyph-name="braceleft" unicode="{" horiz-adv-x="878" 
d="M279 -47v319q0 69 -23.5 95t-89.5 26h-57v379h57q66 0 89.5 26t23.5 95v276q0 179 79.5 252.5t274.5 73.5h219v-281h-182q-65 0 -89 -28.5t-24 -102.5v-292q0 -86 -53.5 -146.5t-134.5 -60.5v-4q81 0 134.5 -60.5t53.5 -146.5v-332q0 -74 24 -102.5t89 -28.5h182v-283
h-219q-195 0 -274.5 73.5t-79.5 252.5z" />
    <glyph glyph-name="bar" unicode="|" horiz-adv-x="563" 
d="M170 -614v2201h223v-2201h-223z" />
    <glyph glyph-name="braceright" unicode="}" horiz-adv-x="878" 
d="M246 -373h-219v283h182q65 0 89 28.5t24 102.5v332q0 86 53.5 146.5t134.5 60.5v4q-81 0 -134.5 60.5t-53.5 146.5v292q0 74 -24 102.5t-89 28.5h-182v281h219q195 0 274.5 -73.5t79.5 -252.5v-276q0 -69 23.5 -95t89.5 -26h57v-379h-57q-66 0 -89.5 -26t-23.5 -95v-319
q0 -179 -79.5 -252.5t-274.5 -73.5z" />
    <glyph glyph-name="asciitilde" unicode="~" horiz-adv-x="1470" 
d="M381 469l-293 121q105 360 414 360q66 0 125 -21t166 -75q65 -35 97 -48t60 -13q84 0 140 157l292 -119q-105 -362 -413 -362q-68 0 -129 22t-160 76q-66 35 -98.5 48.5t-61.5 13.5q-83 0 -139 -160z" />
    <glyph glyph-name="uni00A0" unicode="&#xa0;" horiz-adv-x="522" 
 />
    <glyph glyph-name="exclamdown" unicode="&#xa1;" horiz-adv-x="686" 
d="M150 1085h387v-376h-387v376zM162 545h364v-893h-364v893z" />
    <glyph glyph-name="cent" unicode="&#xa2;" horiz-adv-x="1368" 
d="M989 446l322 -96q-44 -158 -184.5 -261t-335.5 -122v-203h-158v203q-255 22 -410 181.5t-155 394.5t155 394t410 181v182h158v-182q195 -19 335.5 -122t184.5 -261l-322 -96q-20 68 -71.5 112t-126.5 62v-541q75 18 126.5 62t71.5 112zM633 270v545q-105 -20 -162 -91.5
t-57 -180.5t57 -181t162 -92z" />
    <glyph glyph-name="sterling" unicode="&#xa3;" horiz-adv-x="1423" 
d="M692 330v-4h664v-326h-1247v326h90q115 0 178 45t63 127q0 28 -10 55h-321v264h112q-90 117 -90 232q0 189 167.5 306.5t436.5 117.5q257 0 435.5 -121t215.5 -322l-350 -74q-59 197 -301 197q-108 0 -168.5 -44t-60.5 -120q0 -35 20.5 -73t67.5 -99h510v-264h-350
q8 -31 8 -66q0 -99 -70 -157z" />
    <glyph glyph-name="currency" unicode="&#xa4;" horiz-adv-x="1157" 
d="M969 377l139 -137l-98 -97l-136 133q-124 -100 -294 -100q-171 0 -301 103l-136 -136l-96 97l139 139q-86 127 -86 297q0 165 84 293l-137 137l96 96l131 -131q129 107 306 107q176 0 301 -107l131 131l98 -96l-137 -137q86 -127 86 -293q0 -168 -90 -299zM756 674
q0 109 -45.5 167t-130.5 58q-177 0 -177 -225q0 -106 45 -161.5t132 -55.5q85 0 130.5 56t45.5 161z" />
    <glyph glyph-name="yen" unicode="&#xa5;" horiz-adv-x="1560" 
d="M1567 1434l-500 -723h346v-224h-450v-86h450v-225h-450v-176h-365v176h-448v225h448v86h-448v224h344l-502 723h422l364 -564h4l363 564h422z" />
    <glyph glyph-name="brokenbar" unicode="&#xa6;" horiz-adv-x="563" 
d="M170 717v870h223v-870h-223zM170 -614v870h223v-870h-223z" />
    <glyph glyph-name="section" unicode="&#xa7;" horiz-adv-x="1460" 
d="M1280 -25q0 -171 -145 -283t-369 -112q-220 0 -376 112t-181 292l332 49q35 -160 223 -160q77 0 125.5 28.5t48.5 73.5q0 43 -44.5 72t-174.5 72l-279 92q-311 102 -311 311q0 175 182 289q-131 101 -131 264q0 171 145.5 284.5t368.5 113.5q221 0 376.5 -112.5
t180.5 -291.5l-331 -51q-17 79 -74.5 120.5t-149.5 41.5q-78 0 -126 -29t-48 -76q0 -41 44.5 -69.5t174.5 -71.5l279 -92q311 -102 311 -312q0 -172 -182 -288q131 -101 131 -267zM633 453l270 -91q53 31 74.5 59.5t21.5 61.5t-38.5 59t-135.5 58l-268 90
q-53 -31 -74.5 -59.5t-21.5 -61.5q0 -32 38 -58t134 -58z" />
    <glyph glyph-name="dieresis" unicode="&#xa8;" horiz-adv-x="923" 
d="M88 1188v282h285v-282h-285zM551 1188v282h285v-282h-285z" />
    <glyph glyph-name="copyright" unicode="&#xa9;" horiz-adv-x="1406" 
d="M68 662q-3 173 79 318t229 229t326 81q133 2 252.5 -47t204.5 -133.5t133.5 -201.5t46.5 -246q2 -129 -46.5 -246.5t-133.5 -202t-204.5 -133.5t-252.5 -47q-179 -3 -326 81t-229 229.5t-79 318.5zM1167 662q0 199 -132.5 336t-332.5 137q-201 0 -331.5 -137t-130.5 -336
q0 -129 58 -237.5t164.5 -172.5t239.5 -64q132 0 239 64t166.5 172.5t59.5 237.5zM383 664q0 158 90 262q90 100 238 100q124 0 208 -73.5t95 -190.5l-180 -33q-11 62 -41.5 91.5t-87.5 29.5q-60 0 -93.5 -48t-33.5 -138q0 -88 33.5 -137.5t93.5 -49.5q57 0 87.5 29.5
t41.5 91.5l180 -33q-11 -117 -95 -190.5t-208 -73.5q-148 0 -238 100q-90 104 -90 263z" />
    <glyph glyph-name="ordfeminine" unicode="&#xaa;" horiz-adv-x="614" 
d="M14 1026q0 72 58.5 114.5t193.5 67.5q67 12 92 23.5t25 30.5t-21.5 30t-58.5 11q-45 0 -77.5 -23t-39.5 -61l-172 36q17 86 97.5 139.5t191.5 53.5q121 0 194.5 -61.5t73.5 -161.5v-357h-168v54h-2q-55 -68 -176 -68q-98 0 -154.5 46t-56.5 126zM393 1090v45h-2
q-12 -21 -92 -39q-59 -12 -81.5 -24.5t-22.5 -33.5q0 -39 65 -39q55 0 94 27t39 64z" />
    <glyph glyph-name="guillemotleft" unicode="&#xab;" horiz-adv-x="1161" 
d="M776 162l-229 399l229 397h297l-239 -397l239 -399h-297zM338 162l-229 399l229 397h297l-240 -397l240 -399h-297z" />
    <glyph glyph-name="logicalnot" unicode="&#xac;" horiz-adv-x="1392" 
d="M940 258v367h-852v317h1217v-684h-365z" />
    <glyph glyph-name="uni00AD" unicode="&#xad;" horiz-adv-x="712" 
d="M68 449v296h577v-296h-577z" />
    <glyph glyph-name="registered" unicode="&#xae;" horiz-adv-x="1406" 
d="M1339 662q2 -129 -46.5 -246.5t-133.5 -202t-204.5 -133.5t-252.5 -47q-179 -3 -326 81t-229 229.5t-79 318.5q-3 173 79 318t229 229t326 81q133 2 252.5 -47t204.5 -133.5t133.5 -201.5t46.5 -246zM1167 662q0 199 -132.5 336t-332.5 137q-201 0 -331.5 -137
t-130.5 -336q0 -129 58 -237.5t164.5 -172.5t239.5 -64q132 0 239 64t166.5 172.5t59.5 237.5zM862 571l125 -249h-194l-103 233h-49v-233h-180v692h293q120 0 186 -60.5t66 -167.5q0 -78 -37.5 -134t-106.5 -81zM643 858v-153h100q80 0 80 81q0 72 -80 72h-100z" />
    <glyph glyph-name="macron" unicode="&#xaf;" horiz-adv-x="925" 
d="M88 1208v203h750v-203h-750z" />
    <glyph glyph-name="degree" unicode="&#xb0;" horiz-adv-x="950" 
d="M47 1047q0 169 122 283t306 114t306 -114t122 -283q0 -170 -122 -283t-306 -113t-306 113t-122 283zM643 1047q0 74 -45 116.5t-123 42.5q-75 0 -120.5 -43t-45.5 -116q0 -72 45.5 -116t120.5 -44t121.5 44t46.5 116z" />
    <glyph glyph-name="plusminus" unicode="&#xb1;" horiz-adv-x="1259" 
d="M776 1071h393v-270h-393v-336h-291v336h-395v270h395v336h291v-336zM90 72v272h1079v-272h-1079z" />
    <glyph glyph-name="acute" unicode="&#xb4;" horiz-adv-x="747" 
d="M88 1208l221 297h350l-292 -297h-279z" />
    <glyph glyph-name="paragraph" unicode="&#xb6;" horiz-adv-x="1478" 
d="M354 -279v1043q-140 3 -233.5 97t-93.5 237q0 157 94 245q97 91 241 91h967v-1713h-364v1387h-246v-1387h-365z" />
    <glyph glyph-name="periodcentered" unicode="&#xb7;" horiz-adv-x="563" 
d="M90 586v377h387v-377h-387z" />
    <glyph glyph-name="cedilla" unicode="&#xb8;" horiz-adv-x="727" 
d="M647 -287q0 -110 -78.5 -177.5t-206.5 -67.5q-150 0 -272 67l90 174q88 -49 160 -49q44 0 71 19t27 51q0 26 -25.5 42.5t-64.5 16.5q-61 0 -112 -39l-134 53l154 254l145 -43l-57 -84q50 4 57 4q110 0 178 -60.5t68 -160.5z" />
    <glyph glyph-name="ordmasculine" unicode="&#xba;" horiz-adv-x="690" 
d="M14 1151q0 129 94 213t236 84q143 0 237.5 -84t94.5 -213t-94.5 -213t-237.5 -84q-142 0 -236 84t-94 213zM471 1151q0 55 -35 88t-92 33q-56 0 -90.5 -33t-34.5 -88q0 -54 34.5 -87.5t90.5 -33.5q57 0 92 33.5t35 87.5z" />
    <glyph glyph-name="guillemotright" unicode="&#xbb;" horiz-adv-x="1161" 
d="M385 162h-297l240 399l-240 397h297l229 -397zM823 162h-297l240 399l-240 397h297l230 -397z" />
    <glyph glyph-name="onequarter" unicode="&#xbc;" horiz-adv-x="1935" 
d="M285 573v605l-258 -140v246l280 150h213v-861h-235zM473 -178l-211 121l1010 1661l211 -123zM1563 0v137h-519v209l371 514h381v-514h125v-209h-125v-137h-233zM1294 346h269v363h-2z" />
    <glyph glyph-name="onehalf" unicode="&#xbd;" horiz-adv-x="1943" 
d="M285 573v605l-258 -140v246l280 150h213v-861h-235zM473 -178l-211 121l1010 1661l211 -123zM1405 207h496v-207h-750v145q0 130 68 201q38 38 95.5 67t153.5 58q120 35 162.5 61.5t42.5 63.5t-37 60.5t-94 23.5q-73 0 -122 -41.5t-56 -112.5l-227 21q9 146 122 239
t283 93q158 0 261.5 -79.5t103.5 -203.5q0 -105 -75.5 -175t-238.5 -114q-136 -40 -166 -63q-16 -16 -22 -37z" />
    <glyph glyph-name="threequarters" unicode="&#xbe;" horiz-adv-x="2125" 
d="M27 844l221 57q19 -74 66.5 -113.5t115.5 -39.5q63 0 99 25t36 71q0 88 -123 88h-104v160h92q56 0 86.5 21t30.5 58q0 44 -34 68.5t-95 24.5q-66 0 -110 -34.5t-56 -92.5l-215 41q27 125 128 199.5t253 74.5q149 0 252 -74q100 -69 100 -186q0 -107 -96 -166v-2
q125 -61 125 -199q0 -119 -102 -194.5t-267 -75.5q-160 0 -270 79t-133 210zM664 -178l-211 121l1009 1661l211 -123zM1753 0v137h-518v209l371 514h381v-514h124v-209h-124v-137h-234zM1485 346h268v363h-2z" />
    <glyph glyph-name="questiondown" unicode="&#xbf;" horiz-adv-x="1456" 
d="M971 1085v-362h-387v362h387zM944 614v-112q0 -88 -52 -150t-173 -116q-133 -60 -179 -97t-46 -84q0 -61 59 -98t156 -37q123 0 200 70.5t84 191.5l355 -28q-12 -245 -185.5 -393t-453.5 -148q-164 0 -296.5 57t-208 158t-75.5 225q0 245 324 373q99 41 132 71t33 78v39
h326z" />
    <glyph glyph-name="Agrave" unicode="&#xc0;" horiz-adv-x="1583" 
d="M1225 0l-88 213h-688l-89 -213h-378l641 1434h338l641 -1434h-377zM575 522h435l-215 522h-4zM686 1556l-295 297h350l222 -297h-277z" />
    <glyph glyph-name="Aacute" unicode="&#xc1;" horiz-adv-x="1583" 
d="M1225 0l-88 213h-688l-89 -213h-378l641 1434h338l641 -1434h-377zM575 522h435l-215 522h-4zM612 1556l222 297h350l-293 -297h-279z" />
    <glyph glyph-name="Acircumflex" unicode="&#xc2;" horiz-adv-x="1583" 
d="M1225 0l-88 213h-688l-89 -213h-378l641 1434h338l641 -1434h-377zM575 522h435l-215 522h-4zM1126 1665l-165 -149l-168 180l-168 -180l-166 149l162 164h344z" />
    <glyph glyph-name="Atilde" unicode="&#xc3;" horiz-adv-x="1583" 
d="M1225 0l-88 213h-688l-89 -213h-378l641 1434h338l641 -1434h-377zM575 522h435l-215 522h-4zM762 1595q-91 35 -127 35q-68 0 -86 -74h-170q6 129 70.5 199t175.5 70q83 0 198 -47q84 -35 125 -35q73 0 88 69h170q-6 -126 -71 -197t-172 -71q-84 0 -201 51z" />
    <glyph glyph-name="Adieresis" unicode="&#xc4;" horiz-adv-x="1583" 
d="M1225 0l-88 213h-688l-89 -213h-378l641 1434h338l641 -1434h-377zM575 522h435l-215 522h-4zM418 1536v283h284v-283h-284zM881 1536v283h284v-283h-284z" />
    <glyph glyph-name="Aring" unicode="&#xc5;" horiz-adv-x="1583" 
d="M1225 0l-88 213h-688l-89 -213h-378l641 1434h338l641 -1434h-377zM575 522h435l-215 522h-4zM461 1569q0 126 94.5 209.5t237.5 83.5t238 -83.5t95 -209.5t-95 -209.5t-238 -83.5t-237.5 83.5t-94.5 209.5zM930 1569q0 60 -38 97.5t-99 37.5q-60 0 -99 -37.5t-39 -97.5
t39 -97.5t99 -37.5q61 0 99 37.5t38 97.5z" />
    <glyph glyph-name="AE" unicode="&#xc6;" horiz-adv-x="2101" 
d="M1423 299h605v-299h-951v219h-604l-100 -219h-391l675 1434h1368v-299h-602v-267h533v-282h-533v-287zM610 514h467v621h-182z" />
    <glyph glyph-name="Ccedilla" unicode="&#xc7;" horiz-adv-x="1538" 
d="M47 717q-2 161 56 302.5t159.5 241.5t245 157t305.5 55q260 0 448.5 -136.5t237.5 -361.5l-338 -92q-35 130 -125 200t-223 70q-180 0 -290.5 -120.5t-110.5 -315.5t110.5 -315.5t290.5 -120.5q138 0 231 77t125 222l342 -84q-30 -164 -127.5 -286t-244.5 -185.5
t-326 -63.5q-162 -2 -305.5 55t-245 157t-159.5 241.5t-56 302.5zM1128 -324q0 -110 -78 -177.5t-206 -67.5q-151 0 -273 67l91 174q88 -49 159 -49q45 0 72 19t27 51q0 26 -26 42.5t-65 16.5q-61 0 -112 -39l-133 54l153 253l146 -43l-58 -83q50 4 58 4q110 0 177.5 -61
t67.5 -161z" />
    <glyph glyph-name="Egrave" unicode="&#xc8;" horiz-adv-x="1312" 
d="M129 0v1434h1106v-318h-741v-244h671v-292h-671v-263h743v-317h-1108zM575 1556l-294 297h350l221 -297h-277z" />
    <glyph glyph-name="Eacute" unicode="&#xc9;" horiz-adv-x="1312" 
d="M129 0v1434h1106v-318h-741v-244h671v-292h-671v-263h743v-317h-1108zM502 1556l221 297h350l-293 -297h-278z" />
    <glyph glyph-name="Ecircumflex" unicode="&#xca;" horiz-adv-x="1312" 
d="M129 0v1434h1106v-318h-741v-244h671v-292h-671v-263h743v-317h-1108zM1016 1665l-166 -149l-168 180l-168 -180l-166 149l162 164h344z" />
    <glyph glyph-name="Edieresis" unicode="&#xcb;" horiz-adv-x="1312" 
d="M129 0v1434h1106v-318h-741v-244h671v-292h-671v-263h743v-317h-1108zM307 1536v283h285v-283h-285zM770 1536v283h285v-283h-285z" />
    <glyph glyph-name="Igrave" unicode="&#xcc;" horiz-adv-x="622" 
d="M129 0v1434h365v-1434h-365zM205 1556l-295 297h350l221 -297h-276z" />
    <glyph glyph-name="Iacute" unicode="&#xcd;" horiz-adv-x="622" 
d="M129 0v1434h365v-1434h-365zM131 1556l221 297h350l-292 -297h-279z" />
    <glyph glyph-name="Icircumflex" unicode="&#xce;" horiz-adv-x="622" 
d="M129 0v1434h365v-1434h-365zM645 1665l-166 -149l-168 180l-168 -180l-166 149l162 164h344z" />
    <glyph glyph-name="Idieresis" unicode="&#xcf;" horiz-adv-x="622" 
d="M129 0v1434h365v-1434h-365zM-63 1536v283h284v-283h-284zM399 1536v283h285v-283h-285z" />
    <glyph glyph-name="Eth" unicode="&#xd0;" horiz-adv-x="1527" 
d="M129 0v1434h627q219 0 381.5 -82t253 -244.5t90.5 -390.5q0 -353 -197 -535t-532 -182h-623zM494 317h233q197 0 293 96.5t96 303.5q0 399 -389 399h-233v-799zM-53 584v268h893v-268h-893z" />
    <glyph glyph-name="Ntilde" unicode="&#xd1;" horiz-adv-x="1638" 
d="M129 0v1434h381l631 -912h4v912h364v-1434h-381l-630 913h-4v-913h-365zM788 1595q-91 35 -126 35q-69 0 -87 -74h-169q6 129 70 199t175 70q84 0 199 -47q84 -35 125 -35q73 0 88 69h170q-6 -126 -71.5 -197t-172.5 -71q-84 0 -201 51z" />
    <glyph glyph-name="Ograve" unicode="&#xd2;" horiz-adv-x="1626" 
d="M47 717q-2 161 56 302.5t159.5 241.5t245 157t305.5 55q162 2 305.5 -55t245 -157t159.5 -241.5t56 -302.5q2 -161 -56 -302.5t-159.5 -241.5t-245 -157t-305.5 -55q-162 -2 -305.5 55t-245 157t-159.5 241.5t-56 302.5zM1214 717q0 198 -110 317q-107 119 -291 119
q-183 0 -293 -119q-108 -120 -108 -317q0 -195 110.5 -315.5t290.5 -120.5q185 0 291 118q110 119 110 318zM707 1595l-295 297h350l221 -297h-276z" />
    <glyph glyph-name="Oacute" unicode="&#xd3;" horiz-adv-x="1626" 
d="M47 717q-2 161 56 302.5t159.5 241.5t245 157t305.5 55q162 2 305.5 -55t245 -157t159.5 -241.5t56 -302.5q2 -161 -56 -302.5t-159.5 -241.5t-245 -157t-305.5 -55q-162 -2 -305.5 55t-245 157t-159.5 241.5t-56 302.5zM1214 717q0 198 -110 317q-107 119 -291 119
q-183 0 -293 -119q-108 -120 -108 -317q0 -195 110.5 -315.5t290.5 -120.5q185 0 291 118q110 119 110 318zM633 1595l221 297h350l-293 -297h-278z" />
    <glyph glyph-name="Ocircumflex" unicode="&#xd4;" horiz-adv-x="1626" 
d="M47 717q-2 161 56 302.5t159.5 241.5t245 157t305.5 55q162 2 305.5 -55t245 -157t159.5 -241.5t56 -302.5q2 -161 -56 -302.5t-159.5 -241.5t-245 -157t-305.5 -55q-162 -2 -305.5 55t-245 157t-159.5 241.5t-56 302.5zM1214 717q0 198 -110 317q-107 119 -291 119
q-183 0 -293 -119q-108 -120 -108 -317q0 -195 110.5 -315.5t290.5 -120.5q185 0 291 118q110 119 110 318zM1147 1704l-166 -150l-168 181l-168 -181l-166 150l162 164h344z" />
    <glyph glyph-name="Otilde" unicode="&#xd5;" horiz-adv-x="1626" 
d="M47 717q-2 161 56 302.5t159.5 241.5t245 157t305.5 55q162 2 305.5 -55t245 -157t159.5 -241.5t56 -302.5q2 -161 -56 -302.5t-159.5 -241.5t-245 -157t-305.5 -55q-162 -2 -305.5 55t-245 157t-159.5 241.5t-56 302.5zM1214 717q0 198 -110 317q-107 119 -291 119
q-183 0 -293 -119q-108 -120 -108 -317q0 -195 110.5 -315.5t290.5 -120.5q185 0 291 118q110 119 110 318zM782 1634q-91 35 -127 35q-68 0 -86 -74h-170q6 129 70.5 199t175.5 70q84 0 199 -47q84 -35 125 -35q73 0 88 69h170q-6 -126 -71.5 -197t-172.5 -71
q-84 0 -201 51z" />
    <glyph glyph-name="Odieresis" unicode="&#xd6;" horiz-adv-x="1626" 
d="M47 717q-2 161 56 302.5t159.5 241.5t245 157t305.5 55q162 2 305.5 -55t245 -157t159.5 -241.5t56 -302.5q2 -161 -56 -302.5t-159.5 -241.5t-245 -157t-305.5 -55q-162 -2 -305.5 55t-245 157t-159.5 241.5t-56 302.5zM1214 717q0 198 -110 317q-107 119 -291 119
q-183 0 -293 -119q-108 -120 -108 -317q0 -195 110.5 -315.5t290.5 -120.5q185 0 291 118q110 119 110 318zM438 1575v283h285v-283h-285zM901 1575v283h285v-283h-285z" />
    <glyph glyph-name="multiply" unicode="&#xd7;" horiz-adv-x="1200" 
d="M283 199l-195 190l322 320l-322 319l195 193l317 -320l318 320l194 -193l-321 -319l321 -320l-194 -190l-318 319z" />
    <glyph glyph-name="Oslash" unicode="&#xd8;" horiz-adv-x="1626" 
d="M1579 717q2 -161 -56 -302.5t-159.5 -241.5t-245 -157t-305.5 -55q-248 0 -434 119l-96 -107l-152 121l98 113q-182 207 -182 510q-2 161 56 302.5t159.5 241.5t245 157t305.5 55q246 0 432 -119l94 106l154 -123l-98 -110q184 -206 184 -510zM461 467l569 643
q-98 55 -217 55q-186 0 -299 -123t-113 -325q0 -139 60 -250zM1225 717q0 141 -60 252l-571 -643q94 -58 219 -58q185 0 299 123q113 122 113 326z" />
    <glyph glyph-name="Ugrave" unicode="&#xd9;" horiz-adv-x="1574" 
d="M119 553v881h364v-854q0 -153 75 -226t230 -73q153 0 228.5 73t75.5 226v854h364v-881q0 -284 -174.5 -438t-493.5 -154t-494 154t-175 438zM682 1556l-295 297h350l221 -297h-276z" />
    <glyph glyph-name="Uacute" unicode="&#xda;" horiz-adv-x="1574" 
d="M119 553v881h364v-854q0 -153 75 -226t230 -73q153 0 228.5 73t75.5 226v854h364v-881q0 -284 -174.5 -438t-493.5 -154t-494 154t-175 438zM608 1556l221 297h351l-293 -297h-279z" />
    <glyph glyph-name="Ucircumflex" unicode="&#xdb;" horiz-adv-x="1574" 
d="M119 553v881h364v-854q0 -153 75 -226t230 -73q153 0 228.5 73t75.5 226v854h364v-881q0 -284 -174.5 -438t-493.5 -154t-494 154t-175 438zM1122 1665l-166 -149l-168 180l-167 -180l-166 149l161 164h345z" />
    <glyph glyph-name="Udieresis" unicode="&#xdc;" horiz-adv-x="1574" 
d="M119 553v881h364v-854q0 -153 75 -226t230 -73q153 0 228.5 73t75.5 226v854h364v-881q0 -284 -174.5 -438t-493.5 -154t-494 154t-175 438zM414 1536v283h284v-283h-284zM877 1536v283h284v-283h-284z" />
    <glyph glyph-name="Yacute" unicode="&#xdd;" horiz-adv-x="1519" 
d="M578 0v559l-607 875h422l365 -564h4l362 564h422l-604 -875v-559h-364zM580 1556l221 297h350l-293 -297h-278z" />
    <glyph glyph-name="Thorn" unicode="&#xde;" horiz-adv-x="1464" 
d="M1440 727q0 -228 -149 -358.5t-392 -130.5h-405v-238h-365v1434h365v-213h405q242 0 391.5 -133t149.5 -361zM1075 731q0 91 -53 135.5t-150 44.5h-378v-364h374q91 0 149 48t58 136z" />
    <glyph glyph-name="germandbls" unicode="&#xdf;" horiz-adv-x="1327" 
d="M96 0v983q0 233 148 361.5t418 128.5q151 0 276 -52t196.5 -143.5t71.5 -202.5q0 -92 -48.5 -167t-133.5 -113v-4q118 -41 187 -137t69 -220q0 -202 -150 -319q-151 -115 -395 -115h-178v299h158q105 0 161 43.5t56 124.5q0 78 -53 120t-150 42h-172v250h121
q87 0 136.5 38t49.5 109q0 69 -52 108.5t-144 39.5q-103 0 -160 -51t-57 -142v-981h-355z" />
    <glyph glyph-name="agrave" unicode="&#xe0;" horiz-adv-x="1241" 
d="M51 305q0 149 116 232t374 118q148 20 205 44.5t57 66.5q0 44 -48 71t-126 27q-100 0 -168.5 -49t-87.5 -135l-324 57q28 169 189 278t380 109q254 0 398 -120q147 -120 147 -328v-676h-321v109h-4q-128 -140 -371 -140q-190 0 -303 91t-113 245zM821 412v108h-4
q-17 -25 -62 -42.5t-143 -37.5q-124 -25 -171.5 -50t-47.5 -66q0 -82 152 -82q110 0 193 51t83 119zM512 1247l-295 297h350l221 -297h-276z" />
    <glyph glyph-name="aacute" unicode="&#xe1;" horiz-adv-x="1241" 
d="M51 305q0 149 116 232t374 118q148 20 205 44.5t57 66.5q0 44 -48 71t-126 27q-100 0 -168.5 -49t-87.5 -135l-324 57q28 169 189 278t380 109q254 0 398 -120q147 -120 147 -328v-676h-321v109h-4q-128 -140 -371 -140q-190 0 -303 91t-113 245zM821 412v108h-4
q-17 -25 -62 -42.5t-143 -37.5q-124 -25 -171.5 -50t-47.5 -66q0 -82 152 -82q110 0 193 51t83 119zM438 1247l221 297h351l-293 -297h-279z" />
    <glyph glyph-name="acircumflex" unicode="&#xe2;" horiz-adv-x="1241" 
d="M51 305q0 149 116 232t374 118q148 20 205 44.5t57 66.5q0 44 -48 71t-126 27q-100 0 -168.5 -49t-87.5 -135l-324 57q28 169 189 278t380 109q254 0 398 -120q147 -120 147 -328v-676h-321v109h-4q-128 -140 -371 -140q-190 0 -303 91t-113 245zM821 412v108h-4
q-17 -25 -62 -42.5t-143 -37.5q-124 -25 -171.5 -50t-47.5 -66q0 -82 152 -82q110 0 193 51t83 119zM952 1356l-166 -150l-168 180l-167 -180l-166 150l161 164h345z" />
    <glyph glyph-name="atilde" unicode="&#xe3;" horiz-adv-x="1241" 
d="M51 305q0 149 116 232t374 118q148 20 205 44.5t57 66.5q0 44 -48 71t-126 27q-100 0 -168.5 -49t-87.5 -135l-324 57q28 169 189 278t380 109q254 0 398 -120q147 -120 147 -328v-676h-321v109h-4q-128 -140 -371 -140q-190 0 -303 91t-113 245zM821 412v108h-4
q-17 -25 -62 -42.5t-143 -37.5q-124 -25 -171.5 -50t-47.5 -66q0 -82 152 -82q110 0 193 51t83 119zM588 1286q-91 35 -127 35q-68 0 -86 -74h-170q6 129 70.5 199t175.5 70q80 0 198 -48q81 -34 125 -34q73 0 88 69h170q-6 -126 -71.5 -197t-172.5 -71q-83 0 -200 51z" />
    <glyph glyph-name="adieresis" unicode="&#xe4;" horiz-adv-x="1241" 
d="M51 305q0 149 116 232t374 118q148 20 205 44.5t57 66.5q0 44 -48 71t-126 27q-100 0 -168.5 -49t-87.5 -135l-324 57q28 169 189 278t380 109q254 0 398 -120q147 -120 147 -328v-676h-321v109h-4q-128 -140 -371 -140q-190 0 -303 91t-113 245zM821 412v108h-4
q-17 -25 -62 -42.5t-143 -37.5q-124 -25 -171.5 -50t-47.5 -66q0 -82 152 -82q110 0 193 51t83 119zM244 1227v282h284v-282h-284zM707 1227v282h284v-282h-284z" />
    <glyph glyph-name="aring" unicode="&#xe5;" horiz-adv-x="1241" 
d="M299 1423q0 114 84 189q85 76 215 76q131 0 213 -76q86 -74 86 -189q0 -111 -86 -188q-83 -74 -213 -74q-129 0 -215 74q-84 78 -84 188zM721 1423q0 54 -34 88.5t-89 34.5q-54 0 -89.5 -34.5t-35.5 -88.5q0 -53 35 -86.5t90 -33.5t89 33t34 87zM51 305q0 149 116 232
t374 118q148 20 205 44.5t57 66.5q0 44 -48 71t-126 27q-100 0 -168.5 -49t-87.5 -135l-324 57q28 169 189 278t380 109q254 0 398 -120q147 -120 147 -328v-676h-321v109h-4q-128 -140 -371 -140q-190 0 -303 91t-113 245zM821 412v108h-4q-17 -25 -62 -42.5t-143 -37.5
q-124 -25 -171.5 -50t-47.5 -66q0 -82 152 -82q110 0 193 51t83 119z" />
    <glyph glyph-name="ae" unicode="&#xe6;" horiz-adv-x="2013" 
d="M1966 541v-103h-838q7 -96 79 -149t194 -53q85 0 160 36.5t157 118.5l195 -215q-209 -215 -508 -215q-296 0 -455 178q-147 -178 -465 -178q-196 0 -312 92t-116 246q0 127 70 197q66 66 154.5 96.5t259.5 60.5q137 26 188 46.5t51 62.5q0 48 -43 75t-127 27
q-98 0 -166 -50t-88 -136l-309 78q40 163 197 266q156 102 366 102q258 0 389 -137q155 137 383 137q253 0 418.5 -165.5t165.5 -417.5zM1130 670h510q-10 87 -78 137.5t-173 50.5q-106 0 -177.5 -51.5t-81.5 -136.5zM795 395v125h-4q-18 -29 -62.5 -46t-140.5 -38
q-115 -26 -162 -49.5t-47 -67.5q0 -88 151 -88q105 0 185 49t80 115z" />
    <glyph glyph-name="ccedilla" unicode="&#xe7;" horiz-adv-x="1284" 
d="M47 543q0 163 81.5 296.5t223 209t314.5 75.5q212 0 373.5 -108.5t207.5 -280.5l-329 -100q-25 85 -90.5 132.5t-161.5 47.5q-118 0 -191.5 -75t-73.5 -197q0 -121 74 -197t191 -76q96 0 161 47t91 134l329 -101q-46 -172 -207.5 -280.5t-373.5 -108.5
q-173 0 -314.5 75.5t-223 209.5t-81.5 297zM981 -324q0 -110 -78.5 -177.5t-206.5 -67.5q-150 0 -272 67l90 174q88 -49 160 -49q44 0 71 19t27 51q0 26 -25.5 42.5t-64.5 16.5q-62 0 -113 -39l-133 54l154 253l145 -43l-57 -83q50 4 57 4q110 0 178 -61t68 -161z" />
    <glyph glyph-name="egrave" unicode="&#xe8;" horiz-adv-x="1318" 
d="M47 541q-2 120 45.5 229t129.5 187.5t197.5 123.5t242.5 43q174 0 314 -76.5t218 -210t78 -296.5v-105h-875q8 -93 83 -144.5t204 -51.5q168 0 328 151l196 -225q-114 -105 -243 -155t-293 -50q-284 0 -454.5 158.5t-170.5 421.5zM399 670h529q-10 88 -79.5 137
t-182.5 49q-109 0 -183 -51t-84 -135zM555 1247l-295 297h350l221 -297h-276z" />
    <glyph glyph-name="eacute" unicode="&#xe9;" horiz-adv-x="1318" 
d="M47 541q-2 120 45.5 229t129.5 187.5t197.5 123.5t242.5 43q174 0 314 -76.5t218 -210t78 -296.5v-105h-875q8 -93 83 -144.5t204 -51.5q168 0 328 151l196 -225q-114 -105 -243 -155t-293 -50q-284 0 -454.5 158.5t-170.5 421.5zM399 670h529q-10 88 -79.5 137
t-182.5 49q-109 0 -183 -51t-84 -135zM481 1247l221 297h351l-293 -297h-279z" />
    <glyph glyph-name="ecircumflex" unicode="&#xea;" horiz-adv-x="1318" 
d="M47 541q-2 120 45.5 229t129.5 187.5t197.5 123.5t242.5 43q174 0 314 -76.5t218 -210t78 -296.5v-105h-875q8 -93 83 -144.5t204 -51.5q168 0 328 151l196 -225q-114 -105 -243 -155t-293 -50q-284 0 -454.5 158.5t-170.5 421.5zM399 670h529q-10 88 -79.5 137
t-182.5 49q-109 0 -183 -51t-84 -135zM995 1356l-166 -150l-167 180l-168 -180l-166 150l161 164h345z" />
    <glyph glyph-name="edieresis" unicode="&#xeb;" horiz-adv-x="1318" 
d="M47 541q-2 120 45.5 229t129.5 187.5t197.5 123.5t242.5 43q174 0 314 -76.5t218 -210t78 -296.5v-105h-875q8 -93 83 -144.5t204 -51.5q168 0 328 151l196 -225q-114 -105 -243 -155t-293 -50q-284 0 -454.5 158.5t-170.5 421.5zM399 670h529q-10 88 -79.5 137
t-182.5 49q-109 0 -183 -51t-84 -135zM287 1227v282h284v-282h-284zM750 1227v282h284v-282h-284z" />
    <glyph glyph-name="igrave" unicode="&#xec;" horiz-adv-x="530" 
d="M88 0v1085h354v-1085h-354zM158 1208l-295 297h350l221 -297h-276z" />
    <glyph glyph-name="iacute" unicode="&#xed;" horiz-adv-x="530" 
d="M88 0v1085h354v-1085h-354zM84 1208l221 297h350l-293 -297h-278z" />
    <glyph glyph-name="icircumflex" unicode="&#xee;" horiz-adv-x="530" 
d="M88 0v1085h354v-1085h-354zM598 1317l-166 -150l-168 181l-168 -181l-166 150l162 164h344z" />
    <glyph glyph-name="idieresis" unicode="&#xef;" horiz-adv-x="530" 
d="M-82 1188v282h285v-282h-285zM328 1188v282h284v-282h-284zM88 0v1085h354v-1085h-354z" />
    <glyph glyph-name="eth" unicode="&#xf0;" horiz-adv-x="1359" 
d="M1313 575q0 -183 -81 -323t-225.5 -215.5t-330.5 -75.5q-178 -3 -323.5 72t-227 208.5t-78.5 297.5q-1 97 27.5 186t81.5 160t124.5 123.5t161 80t185.5 25.5q155 0 276 -74h4q-79 132 -174 238l-278 -78l-37 133l207 58q-97 92 -222 192v4h369q69 -62 123 -121l266 74
l39 -131l-205 -57q152 -189 235 -391.5t83 -385.5zM954 541q0 122 -76.5 198t-199.5 76q-124 0 -200.5 -76t-76.5 -198q0 -119 76.5 -195t200.5 -76q122 0 199 76t77 195z" />
    <glyph glyph-name="ntilde" unicode="&#xf1;" horiz-adv-x="1413" 
d="M96 0v1085h342v-100h4q69 63 164 97t201 34q237 0 382.5 -142.5t145.5 -373.5v-600h-354v561q0 119 -67 182.5t-191 63.5q-123 0 -197.5 -68t-74.5 -178v-561h-355zM707 1278q-91 35 -127 35q-68 0 -86 -74h-170q6 129 70 198.5t175 69.5q84 0 199 -47q84 -35 125 -35
q73 0 88 70h170q-6 -126 -71.5 -197t-172.5 -71q-83 0 -200 51z" />
    <glyph glyph-name="ograve" unicode="&#xf2;" horiz-adv-x="1355" 
d="M47 543q-2 122 46 230.5t132.5 186t202.5 122t250 42.5q132 2 250 -42.5t202.5 -122t132.5 -186t46 -230.5q3 -162 -79.5 -297t-229 -211.5t-322.5 -73.5q-176 -3 -322.5 73.5t-229 211.5t-79.5 297zM954 543q0 119 -76 195.5t-200 76.5t-200.5 -75t-76.5 -197
q0 -119 76.5 -196t200.5 -77q123 0 199.5 76.5t76.5 196.5zM571 1247l-295 297h351l221 -297h-277z" />
    <glyph glyph-name="oacute" unicode="&#xf3;" horiz-adv-x="1355" 
d="M47 543q-2 122 46 230.5t132.5 186t202.5 122t250 42.5q132 2 250 -42.5t202.5 -122t132.5 -186t46 -230.5q3 -162 -79.5 -297t-229 -211.5t-322.5 -73.5q-176 -3 -322.5 73.5t-229 211.5t-79.5 297zM954 543q0 119 -76 195.5t-200 76.5t-200.5 -75t-76.5 -197
q0 -119 76.5 -196t200.5 -77q123 0 199.5 76.5t76.5 196.5zM498 1247l221 297h350l-293 -297h-278z" />
    <glyph glyph-name="ocircumflex" unicode="&#xf4;" horiz-adv-x="1355" 
d="M47 543q-2 122 46 230.5t132.5 186t202.5 122t250 42.5q132 2 250 -42.5t202.5 -122t132.5 -186t46 -230.5q3 -162 -79.5 -297t-229 -211.5t-322.5 -73.5q-176 -3 -322.5 73.5t-229 211.5t-79.5 297zM954 543q0 119 -76 195.5t-200 76.5t-200.5 -75t-76.5 -197
q0 -119 76.5 -196t200.5 -77q123 0 199.5 76.5t76.5 196.5zM1012 1356l-166 -150l-168 180l-168 -180l-166 150l162 164h344z" />
    <glyph glyph-name="otilde" unicode="&#xf5;" horiz-adv-x="1355" 
d="M47 543q-2 122 46 230.5t132.5 186t202.5 122t250 42.5q132 2 250 -42.5t202.5 -122t132.5 -186t46 -230.5q3 -162 -79.5 -297t-229 -211.5t-322.5 -73.5q-176 -3 -322.5 73.5t-229 211.5t-79.5 297zM954 543q0 119 -76 195.5t-200 76.5t-200.5 -75t-76.5 -197
q0 -119 76.5 -196t200.5 -77q123 0 199.5 76.5t76.5 196.5zM647 1286q-91 35 -127 35q-68 0 -86 -74h-170q6 129 70.5 199t175.5 70q81 0 199 -48q81 -34 125 -34q73 0 88 69h170q-6 -126 -71.5 -197t-172.5 -71q-84 0 -201 51z" />
    <glyph glyph-name="odieresis" unicode="&#xf6;" horiz-adv-x="1355" 
d="M47 543q-2 122 46 230.5t132.5 186t202.5 122t250 42.5q132 2 250 -42.5t202.5 -122t132.5 -186t46 -230.5q3 -162 -79.5 -297t-229 -211.5t-322.5 -73.5q-176 -3 -322.5 73.5t-229 211.5t-79.5 297zM954 543q0 119 -76 195.5t-200 76.5t-200.5 -75t-76.5 -197
q0 -119 76.5 -196t200.5 -77q123 0 199.5 76.5t76.5 196.5zM303 1227v282h285v-282h-285zM766 1227v282h285v-282h-285z" />
    <glyph glyph-name="divide" unicode="&#xf7;" horiz-adv-x="1153" 
d="M362 1198q0 92 61 153.5t152 61.5q94 0 156 -61.5t62 -153.5q0 -93 -62 -154t-156 -61q-91 0 -152 61.5t-61 153.5zM88 602v270h977v-270h-977zM362 268q0 92 61 153.5t152 61.5q94 0 156 -61.5t62 -153.5t-62 -153.5t-156 -61.5q-91 0 -152 61.5t-61 153.5z" />
    <glyph glyph-name="oslash" unicode="&#xf8;" horiz-adv-x="1357" 
d="M1311 543q2 -163 -80.5 -297.5t-228.5 -211t-322 -73.5q-210 0 -367 98l-104 -104l-113 111l94 96q-143 155 -143 381q-2 122 46.5 230.5t133 186t203 122t250.5 42.5q207 0 367 -100l104 106l111 -110l-95 -96q144 -157 144 -381zM426 397l393 400q-58 30 -139 30
q-130 0 -209.5 -79.5t-79.5 -204.5q0 -81 35 -146zM967 543q0 80 -35 145l-393 -399q64 -31 141 -31q129 0 208 79.5t79 205.5z" />
    <glyph glyph-name="ugrave" unicode="&#xf9;" horiz-adv-x="1366" 
d="M76 457v628h354v-553q0 -125 58 -185t180 -60q115 0 185.5 67.5t70.5 177.5v553h354v-1085h-344v104h-4q-129 -135 -357 -135q-230 0 -364 131q-133 133 -133 357zM569 1208l-295 297h351l221 -297h-277z" />
    <glyph glyph-name="uacute" unicode="&#xfa;" horiz-adv-x="1366" 
d="M76 457v628h354v-553q0 -125 58 -185t180 -60q115 0 185.5 67.5t70.5 177.5v553h354v-1085h-344v104h-4q-129 -135 -357 -135q-230 0 -364 131q-133 133 -133 357zM496 1208l221 297h350l-293 -297h-278z" />
    <glyph glyph-name="ucircumflex" unicode="&#xfb;" horiz-adv-x="1366" 
d="M76 457v628h354v-553q0 -125 58 -185t180 -60q115 0 185.5 67.5t70.5 177.5v553h354v-1085h-344v104h-4q-129 -135 -357 -135q-230 0 -364 131q-133 133 -133 357zM1010 1317l-166 -150l-168 181l-168 -181l-166 150l162 164h344z" />
    <glyph glyph-name="udieresis" unicode="&#xfc;" horiz-adv-x="1366" 
d="M76 457v628h354v-553q0 -125 58 -185t180 -60q115 0 185.5 67.5t70.5 177.5v553h354v-1085h-344v104h-4q-129 -135 -357 -135q-230 0 -364 131q-133 133 -133 357zM301 1188v282h285v-282h-285zM764 1188v282h285v-282h-285z" />
    <glyph glyph-name="yacute" unicode="&#xfd;" horiz-adv-x="1398" 
d="M258 -461l250 512l-512 1034h395l309 -682h5l307 682h393l-756 -1546h-391zM520 1208l221 297h351l-293 -297h-279z" />
    <glyph glyph-name="thorn" unicode="&#xfe;" horiz-adv-x="1384" 
d="M1337 541q3 -156 -70 -289t-201 -209.5t-280 -73.5q-97 0 -183.5 28.5t-147.5 78.5h-4v-537h-355v1968h355v-483q129 100 319 100q156 2 287.5 -75.5t207 -212.5t72.5 -295zM983 545q0 123 -75.5 196.5t-202.5 73.5q-104 0 -181 -59q-73 -58 -73 -144v-131q0 -84 73 -145
q75 -60 181 -60q125 0 201.5 74t76.5 195z" />
    <glyph glyph-name="ydieresis" unicode="&#xff;" horiz-adv-x="1398" 
d="M258 -461l250 512l-512 1034h395l309 -682h5l307 682h393l-756 -1546h-391zM326 1188v282h284v-282h-284zM788 1188v282h285v-282h-285z" />
    <glyph glyph-name="Amacron" unicode="&#x100;" horiz-adv-x="1583" 
d="M1225 0l-88 213h-688l-89 -213h-378l641 1434h338l641 -1434h-377zM575 522h435l-215 522h-4zM416 1556v203h749v-203h-749z" />
    <glyph glyph-name="amacron" unicode="&#x101;" horiz-adv-x="1241" 
d="M51 305q0 149 116 232t374 118q148 20 205 44.5t57 66.5q0 44 -48 71t-126 27q-100 0 -168.5 -49t-87.5 -135l-324 57q28 169 189 278t380 109q254 0 398 -120q147 -120 147 -328v-676h-321v109h-4q-128 -140 -371 -140q-190 0 -303 91t-113 245zM821 412v108h-4
q-17 -25 -62 -42.5t-143 -37.5q-124 -25 -171.5 -50t-47.5 -66q0 -82 152 -82q110 0 193 51t83 119zM242 1247v203h749v-203h-749z" />
    <glyph glyph-name="Abreve" unicode="&#x102;" horiz-adv-x="1583" 
d="M1225 0l-88 213h-688l-89 -213h-378l641 1434h338l641 -1434h-377zM575 522h435l-215 522h-4zM436 1835h180q17 -44 65 -70t114 -26t113.5 26t60.5 70h182q-20 -140 -114.5 -219.5t-241.5 -79.5q-149 0 -244 79.5t-115 219.5z" />
    <glyph glyph-name="abreve" unicode="&#x103;" horiz-adv-x="1241" 
d="M51 305q0 149 116 232t374 118q148 20 205 44.5t57 66.5q0 44 -48 71t-126 27q-100 0 -168.5 -49t-87.5 -135l-324 57q28 169 189 278t380 109q254 0 398 -120q147 -120 147 -328v-676h-321v109h-4q-128 -140 -371 -140q-190 0 -303 91t-113 245zM821 412v108h-4
q-17 -25 -62 -42.5t-143 -37.5q-124 -25 -171.5 -50t-47.5 -66q0 -82 152 -82q110 0 193 51t83 119zM262 1526h180q17 -44 65 -70t114 -26t113.5 26t60.5 70h182q-20 -140 -114.5 -219.5t-241.5 -79.5q-149 0 -244 79.5t-115 219.5z" />
    <glyph glyph-name="Aogonek" unicode="&#x104;" horiz-adv-x="1583" 
d="M1225 0l-88 213h-688l-89 -213h-378l641 1434h338l641 -1434h-377zM575 522h435l-215 522h-4zM1161 -254q0 164 221 285l140 -31q-140 -103 -140 -182q0 -51 54 -51q56 0 110 32l78 -190q-109 -53 -227 -53q-111 0 -173.5 49.5t-62.5 140.5z" />
    <glyph glyph-name="aogonek" unicode="&#x105;" horiz-adv-x="1241" 
d="M51 305q0 149 116 232t374 118q148 20 205 44.5t57 66.5q0 44 -48 71t-126 27q-100 0 -168.5 -49t-87.5 -135l-324 57q28 169 189 278t380 109q254 0 398 -120q147 -120 147 -328v-676h-321v109h-4q-128 -140 -371 -140q-190 0 -303 91t-113 245zM821 412v108h-4
q-17 -25 -62 -42.5t-143 -37.5q-124 -25 -171.5 -50t-47.5 -66q0 -82 152 -82q110 0 193 51t83 119zM756 -252q0 164 221 285l139 -31q-139 -103 -139 -182q0 -51 53 -51q57 0 111 32l78 -190q-109 -53 -228 -53q-111 0 -173 49.5t-62 140.5z" />
    <glyph glyph-name="Cacute" unicode="&#x106;" horiz-adv-x="1538" 
d="M47 717q-2 161 56 302.5t159.5 241.5t245 157t305.5 55q260 0 448.5 -136.5t237.5 -361.5l-338 -92q-35 130 -125 200t-223 70q-180 0 -290.5 -120.5t-110.5 -315.5t110.5 -315.5t290.5 -120.5q138 0 231 77t125 222l342 -84q-30 -164 -127.5 -286t-244.5 -185.5
t-326 -63.5q-162 -2 -305.5 55t-245 157t-159.5 241.5t-56 302.5zM633 1595l221 297h350l-293 -297h-278z" />
    <glyph glyph-name="cacute" unicode="&#x107;" horiz-adv-x="1284" 
d="M47 543q0 163 81.5 296.5t223 209t314.5 75.5q212 0 373.5 -108.5t207.5 -280.5l-329 -100q-25 85 -90.5 132.5t-161.5 47.5q-118 0 -191.5 -75t-73.5 -197q0 -121 74 -197t191 -76q96 0 161 47t91 134l329 -101q-46 -172 -207.5 -280.5t-373.5 -108.5
q-173 0 -314.5 75.5t-223 209.5t-81.5 297zM485 1247l222 297h350l-293 -297h-279z" />
    <glyph glyph-name="Ccircumflex" unicode="&#x108;" horiz-adv-x="1538" 
d="M47 717q-2 161 56 302.5t159.5 241.5t245 157t305.5 55q260 0 448.5 -136.5t237.5 -361.5l-338 -92q-35 130 -125 200t-223 70q-180 0 -290.5 -120.5t-110.5 -315.5t110.5 -315.5t290.5 -120.5q138 0 231 77t125 222l342 -84q-30 -164 -127.5 -286t-244.5 -185.5
t-326 -63.5q-162 -2 -305.5 55t-245 157t-159.5 241.5t-56 302.5zM1147 1704l-166 -150l-168 181l-168 -181l-166 150l162 164h344z" />
    <glyph glyph-name="ccircumflex" unicode="&#x109;" horiz-adv-x="1284" 
d="M47 543q0 163 81.5 296.5t223 209t314.5 75.5q212 0 373.5 -108.5t207.5 -280.5l-329 -100q-25 85 -90.5 132.5t-161.5 47.5q-118 0 -191.5 -75t-73.5 -197q0 -121 74 -197t191 -76q96 0 161 47t91 134l329 -101q-46 -172 -207.5 -280.5t-373.5 -108.5
q-173 0 -314.5 75.5t-223 209.5t-81.5 297zM999 1356l-165 -150l-168 180l-168 -180l-166 150l162 164h344z" />
    <glyph glyph-name="Cdotaccent" unicode="&#x10a;" horiz-adv-x="1538" 
d="M47 717q-2 161 56 302.5t159.5 241.5t245 157t305.5 55q260 0 448.5 -136.5t237.5 -361.5l-338 -92q-35 130 -125 200t-223 70q-180 0 -290.5 -120.5t-110.5 -315.5t110.5 -315.5t290.5 -120.5q138 0 231 77t125 222l342 -84q-30 -164 -127.5 -286t-244.5 -185.5
t-326 -63.5q-162 -2 -305.5 55t-245 157t-159.5 241.5t-56 302.5zM672 1595v281h282v-281h-282z" />
    <glyph glyph-name="cdotaccent" unicode="&#x10b;" horiz-adv-x="1284" 
d="M47 543q0 163 81.5 296.5t223 209t314.5 75.5q212 0 373.5 -108.5t207.5 -280.5l-329 -100q-25 85 -90.5 132.5t-161.5 47.5q-118 0 -191.5 -75t-73.5 -197q0 -121 74 -197t191 -76q96 0 161 47t91 134l329 -101q-46 -172 -207.5 -280.5t-373.5 -108.5
q-173 0 -314.5 75.5t-223 209.5t-81.5 297zM524 1247v281h283v-281h-283z" />
    <glyph glyph-name="Ccaron" unicode="&#x10c;" horiz-adv-x="1538" 
d="M47 717q-2 161 56 302.5t159.5 241.5t245 157t305.5 55q260 0 448.5 -136.5t237.5 -361.5l-338 -92q-35 130 -125 200t-223 70q-180 0 -290.5 -120.5t-110.5 -315.5t110.5 -315.5t290.5 -120.5q138 0 231 77t125 222l342 -84q-30 -164 -127.5 -286t-244.5 -185.5
t-326 -63.5q-162 -2 -305.5 55t-245 157t-159.5 241.5t-56 302.5zM981 1888l166 -147l-162 -166h-344l-162 166l166 147l168 -178z" />
    <glyph glyph-name="ccaron" unicode="&#x10d;" horiz-adv-x="1284" 
d="M47 543q0 163 81.5 296.5t223 209t314.5 75.5q212 0 373.5 -108.5t207.5 -280.5l-329 -100q-25 85 -90.5 132.5t-161.5 47.5q-118 0 -191.5 -75t-73.5 -197q0 -121 74 -197t191 -76q96 0 161 47t91 134l329 -101q-46 -172 -207.5 -280.5t-373.5 -108.5
q-173 0 -314.5 75.5t-223 209.5t-81.5 297zM834 1540l165 -147l-161 -166h-344l-162 166l166 147l168 -178z" />
    <glyph glyph-name="Dcaron" unicode="&#x10e;" horiz-adv-x="1527" 
d="M129 0v1434h627q219 0 381.5 -82t253 -244.5t90.5 -390.5q0 -353 -197 -535t-532 -182h-623zM494 317h233q197 0 293 96.5t96 303.5q0 399 -389 399h-233v-799zM866 1849l166 -147l-162 -166h-344l-161 166l165 147l168 -178z" />
    <glyph glyph-name="dcaron" unicode="&#x10f;" horiz-adv-x="1730" 
d="M47 541q-3 156 74 289.5t213 211t297 74.5q206 0 330 -112h4v491h354v-1495h-326v104h-4q-62 -62 -154.5 -95.5t-201.5 -33.5q-124 -2 -234 41t-187.5 118.5t-122 181.5t-42.5 225zM965 487v119q0 83 -80.5 143t-190.5 60q-130 0 -211.5 -73.5t-81.5 -190.5
q0 -119 79 -189.5t214 -70.5q114 0 191 59q80 59 80 143zM1430 969v135q56 12 77 38.5t21 82.5h-107v270h295v-231q0 -132 -73 -208.5t-213 -86.5z" />
    <glyph glyph-name="Dcroat" unicode="&#x110;" horiz-adv-x="1527" 
d="M129 0v1434h627q219 0 381.5 -82t253 -244.5t90.5 -390.5q0 -353 -197 -535t-532 -182h-623zM494 317h233q197 0 293 96.5t96 303.5q0 399 -389 399h-233v-799zM-53 584v268h893v-268h-893z" />
    <glyph glyph-name="dcroat" unicode="&#x111;" horiz-adv-x="1415" 
d="M47 541q-3 156 74 289.5t213 211t297 74.5q206 0 330 -112h4v491h354v-1495h-326v104h-4q-62 -62 -154.5 -95.5t-201.5 -33.5q-124 -2 -234 41t-187.5 118.5t-122 181.5t-42.5 225zM965 487v119q0 83 -80.5 143t-190.5 60q-130 0 -211.5 -73.5t-81.5 -190.5
q0 -119 79 -189.5t214 -70.5q114 0 191 59q80 59 80 143zM500 1180v213h897v-213h-897z" />
    <glyph glyph-name="Emacron" unicode="&#x112;" horiz-adv-x="1312" 
d="M129 0v1434h1106v-318h-741v-244h671v-292h-671v-263h743v-317h-1108zM305 1556v203h750v-203h-750z" />
    <glyph glyph-name="emacron" unicode="&#x113;" horiz-adv-x="1318" 
d="M47 541q-2 120 45.5 229t129.5 187.5t197.5 123.5t242.5 43q174 0 314 -76.5t218 -210t78 -296.5v-105h-875q8 -93 83 -144.5t204 -51.5q168 0 328 151l196 -225q-114 -105 -243 -155t-293 -50q-284 0 -454.5 158.5t-170.5 421.5zM399 670h529q-10 88 -79.5 137
t-182.5 49q-109 0 -183 -51t-84 -135zM285 1247v203h749v-203h-749z" />
    <glyph glyph-name="Ebreve" unicode="&#x114;" horiz-adv-x="1312" 
d="M129 0v1434h1106v-318h-741v-244h671v-292h-671v-263h743v-317h-1108zM326 1835h180q17 -44 64.5 -70t113.5 -26t113.5 26t60.5 70h182q-20 -140 -114.5 -219.5t-241.5 -79.5q-149 0 -243.5 79.5t-114.5 219.5z" />
    <glyph glyph-name="ebreve" unicode="&#x115;" horiz-adv-x="1318" 
d="M47 541q-2 120 45.5 229t129.5 187.5t197.5 123.5t242.5 43q174 0 314 -76.5t218 -210t78 -296.5v-105h-875q8 -93 83 -144.5t204 -51.5q168 0 328 151l196 -225q-114 -105 -243 -155t-293 -50q-284 0 -454.5 158.5t-170.5 421.5zM399 670h529q-10 88 -79.5 137
t-182.5 49q-109 0 -183 -51t-84 -135zM305 1526h180q17 -44 65 -70t114 -26t113.5 26t60.5 70h182q-20 -140 -114.5 -219.5t-241.5 -79.5q-149 0 -244 79.5t-115 219.5z" />
    <glyph glyph-name="Edotaccent" unicode="&#x116;" horiz-adv-x="1312" 
d="M129 0v1434h1106v-318h-741v-244h671v-292h-671v-263h743v-317h-1108zM541 1556v281h282v-281h-282z" />
    <glyph glyph-name="edotaccent" unicode="&#x117;" horiz-adv-x="1318" 
d="M47 541q-2 120 45.5 229t129.5 187.5t197.5 123.5t242.5 43q174 0 314 -76.5t218 -210t78 -296.5v-105h-875q8 -93 83 -144.5t204 -51.5q168 0 328 151l196 -225q-114 -105 -243 -155t-293 -50q-284 0 -454.5 158.5t-170.5 421.5zM399 670h529q-10 88 -79.5 137
t-182.5 49q-109 0 -183 -51t-84 -135zM520 1247v281h283v-281h-283z" />
    <glyph glyph-name="Eogonek" unicode="&#x118;" horiz-adv-x="1312" 
d="M129 0v1434h1106v-318h-741v-244h671v-292h-671v-263h743v-317h-1108zM756 -254q0 164 221 285l139 -31q-139 -103 -139 -182q0 -51 53 -51q57 0 111 32l78 -190q-109 -53 -228 -53q-111 0 -173 49.5t-62 140.5z" />
    <glyph glyph-name="eogonek" unicode="&#x119;" horiz-adv-x="1318" 
d="M47 541q-2 120 45.5 229t129.5 187.5t197.5 123.5t242.5 43q174 0 314 -76.5t218 -210t78 -296.5v-105h-875q8 -93 83 -144.5t204 -51.5q168 0 328 151l196 -225q-114 -105 -243 -155t-293 -50q-284 0 -454.5 158.5t-170.5 421.5zM399 670h529q-10 88 -79.5 137
t-182.5 49q-109 0 -183 -51t-84 -135zM573 -254q0 164 222 285l139 -31q-139 -103 -139 -182q0 -51 53 -51q56 0 110 32l78 -190q-109 -53 -227 -53q-111 0 -173.5 49.5t-62.5 140.5z" />
    <glyph glyph-name="Ecaron" unicode="&#x11a;" horiz-adv-x="1312" 
d="M129 0v1434h1106v-318h-741v-244h671v-292h-671v-263h743v-317h-1108zM850 1849l166 -147l-162 -166h-344l-162 166l166 147l168 -178z" />
    <glyph glyph-name="ecaron" unicode="&#x11b;" horiz-adv-x="1318" 
d="M47 541q-2 120 45.5 229t129.5 187.5t197.5 123.5t242.5 43q174 0 314 -76.5t218 -210t78 -296.5v-105h-875q8 -93 83 -144.5t204 -51.5q168 0 328 151l196 -225q-114 -105 -243 -155t-293 -50q-284 0 -454.5 158.5t-170.5 421.5zM399 670h529q-10 88 -79.5 137
t-182.5 49q-109 0 -183 -51t-84 -135zM829 1540l166 -147l-161 -166h-345l-161 166l166 147l168 -178z" />
    <glyph glyph-name="Gcircumflex" unicode="&#x11c;" horiz-adv-x="1554" 
d="M47 717q-3 161 55 302.5t159.5 241.5t245 157t306.5 55q256 0 443 -133t237 -345l-340 -94q-37 120 -124.5 186t-215.5 66q-183 0 -293 -119q-108 -120 -108 -317q0 -195 110.5 -315.5t290.5 -120.5q154 0 241.5 60t98.5 171h-326v260h680v-190q0 -287 -186.5 -454
t-507.5 -167q-162 -2 -305.5 55t-245 157t-159.5 241.5t-56 302.5zM1147 1704l-166 -150l-168 181l-168 -181l-166 150l162 164h344z" />
    <glyph glyph-name="gcircumflex" unicode="&#x11d;" horiz-adv-x="1386" 
d="M96 -242l240 211q85 -94 164.5 -133t191.5 -39q123 0 202 68t79 174v78h-4q-50 -60 -138.5 -93.5t-203.5 -33.5q-254 0 -417 155.5t-163 399.5q0 119 44 223t120.5 178.5t184 117t229.5 42.5q104 0 195.5 -32t148.5 -89h4v100h336v-1046q0 -154 -79 -277.5t-220 -192.5
t-318 -69q-186 0 -339.5 66.5t-256.5 191.5zM954 492v106q0 80 -79 140.5t-187 60.5q-131 0 -209 -69.5t-78 -184.5q0 -117 77 -185.5t208 -68.5q116 0 191 57q77 59 77 144zM999 1352l-165 -150l-168 180l-168 -180l-166 150l162 164h344z" />
    <glyph glyph-name="Gbreve" unicode="&#x11e;" horiz-adv-x="1554" 
d="M47 717q-3 161 55 302.5t159.5 241.5t245 157t306.5 55q256 0 443 -133t237 -345l-340 -94q-37 120 -124.5 186t-215.5 66q-183 0 -293 -119q-108 -120 -108 -317q0 -195 110.5 -315.5t290.5 -120.5q154 0 241.5 60t98.5 171h-326v260h680v-190q0 -287 -186.5 -454
t-507.5 -167q-162 -2 -305.5 55t-245 157t-159.5 241.5t-56 302.5zM457 1874h180q17 -44 64.5 -70t113.5 -26t113.5 26t60.5 70h182q-20 -140 -114.5 -219.5t-241.5 -79.5q-149 0 -243.5 79.5t-114.5 219.5z" />
    <glyph glyph-name="gbreve" unicode="&#x11f;" horiz-adv-x="1386" 
d="M96 -242l240 211q85 -94 164.5 -133t191.5 -39q123 0 202 68t79 174v78h-4q-50 -60 -138.5 -93.5t-203.5 -33.5q-254 0 -417 155.5t-163 399.5q0 119 44 223t120.5 178.5t184 117t229.5 42.5q104 0 195.5 -32t148.5 -89h4v100h336v-1046q0 -154 -79 -277.5t-220 -192.5
t-318 -69q-186 0 -339.5 66.5t-256.5 191.5zM954 492v106q0 80 -79 140.5t-187 60.5q-131 0 -209 -69.5t-78 -184.5q0 -117 77 -185.5t208 -68.5q116 0 191 57q77 59 77 144zM328 1522h180q17 -45 64.5 -71t113.5 -26t113 26.5t61 70.5h182q-20 -140 -114.5 -219.5
t-241.5 -79.5q-149 0 -243.5 79.5t-114.5 219.5z" />
    <glyph glyph-name="Gdotaccent" unicode="&#x120;" horiz-adv-x="1554" 
d="M47 717q-3 161 55 302.5t159.5 241.5t245 157t306.5 55q256 0 443 -133t237 -345l-340 -94q-37 120 -124.5 186t-215.5 66q-183 0 -293 -119q-108 -120 -108 -317q0 -195 110.5 -315.5t290.5 -120.5q154 0 241.5 60t98.5 171h-326v260h680v-190q0 -287 -186.5 -454
t-507.5 -167q-162 -2 -305.5 55t-245 157t-159.5 241.5t-56 302.5zM672 1595v281h282v-281h-282z" />
    <glyph glyph-name="gdotaccent" unicode="&#x121;" horiz-adv-x="1386" 
d="M96 -242l240 211q85 -94 164.5 -133t191.5 -39q123 0 202 68t79 174v78h-4q-50 -60 -138.5 -93.5t-203.5 -33.5q-254 0 -417 155.5t-163 399.5q0 119 44 223t120.5 178.5t184 117t229.5 42.5q104 0 195.5 -32t148.5 -89h4v100h336v-1046q0 -154 -79 -277.5t-220 -192.5
t-318 -69q-186 0 -339.5 66.5t-256.5 191.5zM954 492v106q0 80 -79 140.5t-187 60.5q-131 0 -209 -69.5t-78 -184.5q0 -117 77 -185.5t208 -68.5q116 0 191 57q77 59 77 144zM518 1229v280h283v-280h-283z" />
    <glyph glyph-name="uni0122" unicode="&#x122;" horiz-adv-x="1554" 
d="M47 717q-3 161 55 302.5t159.5 241.5t245 157t306.5 55q256 0 443 -133t237 -345l-340 -94q-37 120 -124.5 186t-215.5 66q-183 0 -293 -119q-108 -120 -108 -317q0 -195 110.5 -315.5t290.5 -120.5q154 0 241.5 60t98.5 171h-326v260h680v-190q0 -287 -186.5 -454
t-507.5 -167q-162 -2 -305.5 55t-245 157t-159.5 241.5t-56 302.5zM674 -666v136q56 12 77 38t21 82h-106v271h295v-232q0 -131 -73.5 -208t-213.5 -87z" />
    <glyph glyph-name="uni0123" unicode="&#x123;" horiz-adv-x="1386" 
d="M96 -242l240 211q85 -94 164.5 -133t191.5 -39q123 0 202 68t79 174v78h-4q-50 -60 -138.5 -93.5t-203.5 -33.5q-254 0 -417 155.5t-163 399.5q0 119 44 223t120.5 178.5t184 117t229.5 42.5q104 0 195.5 -32t148.5 -89h4v100h336v-1046q0 -154 -79 -277.5t-220 -192.5
t-318 -69q-186 0 -339.5 66.5t-256.5 191.5zM954 492v106q0 80 -79 140.5t-187 60.5q-131 0 -209 -69.5t-78 -184.5q0 -117 77 -185.5t208 -68.5q116 0 191 57q77 59 77 144zM813 1751v-133q-61 -12 -84.5 -38.5t-23.5 -82.5h120v-268h-329v229q0 131 81 207t236 86z" />
    <glyph glyph-name="Hcircumflex" unicode="&#x124;" horiz-adv-x="1593" 
d="M129 0v1434h365v-537h606v537h364v-1434h-364v563h-606v-563h-365zM1130 1665l-165 -149l-168 180l-168 -180l-166 149l162 164h344z" />
    <glyph glyph-name="hcircumflex" unicode="&#x125;" horiz-adv-x="1413" 
d="M96 0v1495h355v-510h4q140 131 352 131q235 0 381.5 -135t146.5 -352v-629h-354v561q0 119 -67 182.5t-191 63.5q-123 0 -197.5 -68t-74.5 -178v-561h-355zM1087 1665l-165 -149l-168 180l-168 -180l-166 149l162 164h344z" />
    <glyph glyph-name="Hbar" unicode="&#x126;" horiz-adv-x="1593" 
d="M1608 1272v-258h-144v-1014h-356v580h-623v-580h-356v1014h-143v258h143v162h356v-162h623v162h356v-162h144zM1108 881v133h-623v-133h623z" />
    <glyph glyph-name="hbar" unicode="&#x127;" horiz-adv-x="1413" 
d="M96 0v1495h355v-510h4q140 131 352 131q235 0 381.5 -135t146.5 -352v-629h-354v561q0 119 -67 182.5t-191 63.5q-123 0 -197.5 -68t-74.5 -178v-561h-355zM-10 1180v213h897v-213h-897z" />
    <glyph glyph-name="Itilde" unicode="&#x128;" horiz-adv-x="622" 
d="M129 0v1434h365v-1434h-365zM281 1595q-91 35 -127 35q-68 0 -86 -74h-170q6 129 70 199t175 70q84 0 199 -47q84 -35 125 -35q73 0 88 69h170q-6 -126 -71.5 -197t-172.5 -71q-83 0 -200 51z" />
    <glyph glyph-name="itilde" unicode="&#x129;" horiz-adv-x="530" 
d="M88 0v1085h354v-1085h-354zM233 1247q-91 35 -127 35q-68 0 -86 -74h-170q6 129 70.5 199t175.5 70q84 0 199 -47q84 -35 125 -35q73 0 88 69h170q-6 -126 -71.5 -197t-172.5 -71q-84 0 -201 51z" />
    <glyph glyph-name="Imacron" unicode="&#x12a;" horiz-adv-x="622" 
d="M129 0v1434h365v-1434h-365zM-66 1556v203h750v-203h-750z" />
    <glyph glyph-name="imacron" unicode="&#x12b;" horiz-adv-x="530" 
d="M88 0v1085h354v-1085h-354zM-113 1208v203h750v-203h-750z" />
    <glyph glyph-name="Ibreve" unicode="&#x12c;" horiz-adv-x="622" 
d="M129 0v1434h365v-1434h-365zM-45 1835h180q17 -44 64.5 -70t113.5 -26t113.5 26t60.5 70h183q-20 -140 -115 -219.5t-242 -79.5q-149 0 -243.5 79.5t-114.5 219.5z" />
    <glyph glyph-name="ibreve" unicode="&#x12d;" horiz-adv-x="530" 
d="M88 0v1085h354v-1085h-354zM-92 1487h180q17 -44 64.5 -70t113.5 -26t113.5 26t60.5 70h183q-20 -140 -115 -219.5t-242 -79.5q-149 0 -243.5 79.5t-114.5 219.5z" />
    <glyph glyph-name="Iogonek" unicode="&#x12e;" horiz-adv-x="622" 
d="M129 0v1434h365v-1434h-365zM57 -254q0 164 222 285l139 -31q-139 -103 -139 -182q0 -51 53 -51q56 0 110 32l78 -190q-109 -53 -227 -53q-111 0 -173.5 49.5t-62.5 140.5z" />
    <glyph glyph-name="iogonek" unicode="&#x12f;" horiz-adv-x="530" 
d="M88 0v1085h354v-1085h-354zM14 -254q0 164 222 285l139 -31q-139 -103 -139 -182q0 -51 53 -51q56 0 110 32l78 -190q-109 -53 -227 -53q-111 0 -173.5 49.5t-62.5 140.5zM88 1253v332h354v-332h-354z" />
    <glyph glyph-name="Idotaccent" unicode="&#x130;" horiz-adv-x="622" 
d="M129 0v1434h365v-1434h-365zM170 1556v281h283v-281h-283z" />
    <glyph glyph-name="dotlessi" unicode="&#x131;" horiz-adv-x="530" 
d="M88 0v1085h354v-1085h-354z" />
    <glyph glyph-name="Jcircumflex" unicode="&#x134;" horiz-adv-x="1345" 
d="M35 489l352 50q19 -140 75.5 -199t174.5 -59q106 0 165.5 74.5t59.5 209.5v869h365v-910q0 -171 -76 -299.5t-209 -196t-305 -67.5q-269 0 -429 139t-173 389zM1378 1665l-166 -149l-168 180l-167 -180l-166 149l161 164h345z" />
    <glyph glyph-name="jcircumflex" unicode="&#x135;" horiz-adv-x="552" 
d="M-178 -457v328h180q57 0 83 24t26 78v1112h354v-1116q0 -227 -101.5 -326.5t-330.5 -99.5h-211zM623 1317l-166 -150l-168 181l-168 -181l-166 150l162 164h344z" />
    <glyph glyph-name="uni0136" unicode="&#x136;" horiz-adv-x="1521" 
d="M129 0v1434h365v-600h4l551 600h483l-584 -621l592 -813h-455l-378 569h-5l-208 -225v-344h-365zM662 -627v135q56 12 77 38.5t21 82.5h-107v271h295v-232q0 -132 -73 -208.5t-213 -86.5z" />
    <glyph glyph-name="uni0137" unicode="&#x137;" horiz-adv-x="1409" 
d="M96 0v1495h355v-805h4l448 395h486l-517 -440l523 -645h-418l-338 436h-4l-184 -151v-285h-355zM586 -627v135q56 12 77 38.5t21 82.5h-106v271h294v-232q0 -132 -73 -208.5t-213 -86.5z" />
    <glyph glyph-name="kgreenlandic" unicode="&#x138;" horiz-adv-x="1374" 
d="M96 0v1085h353v-376h4l421 376h482l-496 -440l498 -645h-414l-317 436h-4l-174 -151v-285h-353z" />
    <glyph glyph-name="Lacute" unicode="&#x139;" horiz-adv-x="1261" 
d="M129 0v1434h365v-1115h731v-319h-1096zM131 1556l221 297h350l-292 -297h-279z" />
    <glyph glyph-name="lacute" unicode="&#x13a;" horiz-adv-x="530" 
d="M88 0v1495h354v-1495h-354zM86 1618l221 297h350l-292 -297h-279z" />
    <glyph glyph-name="uni013B" unicode="&#x13b;" horiz-adv-x="1261" 
d="M129 0v1434h365v-1115h731v-319h-1096zM539 -627v135q56 12 77 38.5t21 82.5h-107v271h295v-232q0 -132 -73 -208.5t-213 -86.5z" />
    <glyph glyph-name="uni013C" unicode="&#x13c;" horiz-adv-x="530" 
d="M88 0v1495h354v-1495h-354zM127 -627v135q56 12 77 38.5t21 82.5h-106v271h295v-232q0 -131 -73.5 -208t-213.5 -87z" />
    <glyph glyph-name="Lcaron" unicode="&#x13d;" horiz-adv-x="1282" 
d="M129 0v1434h365v-1115h731v-319h-1096zM997 907v135q56 12 77.5 38.5t21.5 82.5h-107v271h295v-232q0 -131 -73.5 -208t-213.5 -87z" />
    <glyph glyph-name="lcaron" unicode="&#x13e;" horiz-adv-x="854" 
d="M88 0v1495h354v-1495h-354zM553 969v135q56 12 77 38.5t21 82.5h-106v270h295v-231q0 -131 -73.5 -208t-213.5 -87z" />
    <glyph glyph-name="Ldot" unicode="&#x13f;" horiz-adv-x="1261" 
d="M129 0v1434h365v-1115h731v-319h-1096zM745 647v377h388v-377h-388z" />
    <glyph glyph-name="ldot" unicode="&#x140;" horiz-adv-x="978" 
d="M88 0v1495h354v-1495h-354zM557 586v377h387v-377h-387z" />
    <glyph glyph-name="Lslash" unicode="&#x141;" horiz-adv-x="1419" 
d="M307 0v1434h365v-1115h731v-319h-1096zM424 463l641 608l-115 123l-481 -457v41l-469 -442l111 -113l313 295v-55z" />
    <glyph glyph-name="lslash" unicode="&#x142;" horiz-adv-x="833" 
d="M240 0v1495h354v-1495h-354zM379 633l495 471l-110 115l-385 -361v60l-420 -394l113 -116l307 286v-61z" />
    <glyph glyph-name="Nacute" unicode="&#x143;" horiz-adv-x="1638" 
d="M129 0v1434h381l631 -912h4v912h364v-1434h-381l-630 913h-4v-913h-365zM639 1556l221 297h350l-292 -297h-279z" />
    <glyph glyph-name="nacute" unicode="&#x144;" horiz-adv-x="1413" 
d="M96 0v1085h342v-100h4q69 63 164 97t201 34q237 0 382.5 -142.5t145.5 -373.5v-600h-354v561q0 119 -67 182.5t-191 63.5q-123 0 -197.5 -68t-74.5 -178v-561h-355zM557 1239l221 297h350l-292 -297h-279z" />
    <glyph glyph-name="uni0145" unicode="&#x145;" horiz-adv-x="1638" 
d="M129 0v1434h381l631 -912h4v912h364v-1434h-381l-630 913h-4v-913h-365zM709 -627v135q56 12 77 38.5t21 82.5h-107v271h295v-232q0 -132 -73 -208.5t-213 -86.5z" />
    <glyph glyph-name="uni0146" unicode="&#x146;" horiz-adv-x="1413" 
d="M96 0v1085h342v-100h4q69 63 164 97t201 34q237 0 382.5 -142.5t145.5 -373.5v-600h-354v561q0 119 -67 182.5t-191 63.5q-123 0 -197.5 -68t-74.5 -178v-561h-355zM578 -627v135q56 12 77 38.5t21 82.5h-107v271h295v-232q0 -132 -73 -208.5t-213 -86.5z" />
    <glyph glyph-name="Ncaron" unicode="&#x147;" horiz-adv-x="1638" 
d="M129 0v1434h381l631 -912h4v912h364v-1434h-381l-630 913h-4v-913h-365zM987 1849l166 -147l-162 -166h-344l-162 166l166 147l168 -178z" />
    <glyph glyph-name="ncaron" unicode="&#x148;" horiz-adv-x="1413" 
d="M96 0v1085h342v-100h4q69 63 164 97t201 34q237 0 382.5 -142.5t145.5 -373.5v-600h-354v561q0 119 -67 182.5t-191 63.5q-123 0 -197.5 -68t-74.5 -178v-561h-355zM905 1532l166 -148l-162 -165h-344l-162 165l166 148l168 -178z" />
    <glyph glyph-name="Eng" unicode="&#x14a;" horiz-adv-x="1638" 
d="M1145 1434h364v-1504q0 -203 -96.5 -290t-314.5 -89h-180v328h174q41 0 60 18.5t19 59.5v43l-673 874h-4v-874h-365v1434h342l670 -871h4v871z" />
    <glyph glyph-name="eng" unicode="&#x14b;" horiz-adv-x="1413" 
d="M1335 600v-670q0 -203 -96 -291t-311 -88h-180v328h155q78 0 78 78v604q0 119 -67 182.5t-191 63.5q-123 0 -197.5 -68t-74.5 -178v-561h-355v1085h342v-100h4q69 63 164 97t201 34q237 0 382.5 -142.5t145.5 -373.5z" />
    <glyph glyph-name="Omacron" unicode="&#x14c;" horiz-adv-x="1626" 
d="M47 717q-2 161 56 302.5t159.5 241.5t245 157t305.5 55q162 2 305.5 -55t245 -157t159.5 -241.5t56 -302.5q2 -161 -56 -302.5t-159.5 -241.5t-245 -157t-305.5 -55q-162 -2 -305.5 55t-245 157t-159.5 241.5t-56 302.5zM1214 717q0 198 -110 317q-107 119 -291 119
q-183 0 -293 -119q-108 -120 -108 -317q0 -195 110.5 -315.5t290.5 -120.5q185 0 291 118q110 119 110 318zM436 1595v203h750v-203h-750z" />
    <glyph glyph-name="omacron" unicode="&#x14d;" horiz-adv-x="1355" 
d="M47 543q-2 122 46 230.5t132.5 186t202.5 122t250 42.5q132 2 250 -42.5t202.5 -122t132.5 -186t46 -230.5q3 -162 -79.5 -297t-229 -211.5t-322.5 -73.5q-176 -3 -322.5 73.5t-229 211.5t-79.5 297zM954 543q0 119 -76 195.5t-200 76.5t-200.5 -75t-76.5 -197
q0 -119 76.5 -196t200.5 -77q123 0 199.5 76.5t76.5 196.5zM301 1247v203h750v-203h-750z" />
    <glyph glyph-name="Obreve" unicode="&#x14e;" horiz-adv-x="1626" 
d="M47 717q-2 161 56 302.5t159.5 241.5t245 157t305.5 55q162 2 305.5 -55t245 -157t159.5 -241.5t56 -302.5q2 -161 -56 -302.5t-159.5 -241.5t-245 -157t-305.5 -55q-162 -2 -305.5 55t-245 157t-159.5 241.5t-56 302.5zM1214 717q0 198 -110 317q-107 119 -291 119
q-183 0 -293 -119q-108 -120 -108 -317q0 -195 110.5 -315.5t290.5 -120.5q185 0 291 118q110 119 110 318zM457 1874h180q17 -44 64.5 -70t113.5 -26t113.5 26t60.5 70h182q-20 -140 -114.5 -219.5t-241.5 -79.5q-149 0 -243.5 79.5t-114.5 219.5z" />
    <glyph glyph-name="obreve" unicode="&#x14f;" horiz-adv-x="1355" 
d="M47 543q-2 122 46 230.5t132.5 186t202.5 122t250 42.5q132 2 250 -42.5t202.5 -122t132.5 -186t46 -230.5q3 -162 -79.5 -297t-229 -211.5t-322.5 -73.5q-176 -3 -322.5 73.5t-229 211.5t-79.5 297zM954 543q0 119 -76 195.5t-200 76.5t-200.5 -75t-76.5 -197
q0 -119 76.5 -196t200.5 -77q123 0 199.5 76.5t76.5 196.5zM322 1526h180q17 -44 64.5 -70t113.5 -26t113.5 26t60.5 70h182q-20 -140 -114.5 -219.5t-241.5 -79.5q-149 0 -243.5 79.5t-114.5 219.5z" />
    <glyph glyph-name="Ohungarumlaut" unicode="&#x150;" horiz-adv-x="1626" 
d="M47 717q-2 161 56 302.5t159.5 241.5t245 157t305.5 55q162 2 305.5 -55t245 -157t159.5 -241.5t56 -302.5q2 -161 -56 -302.5t-159.5 -241.5t-245 -157t-305.5 -55q-162 -2 -305.5 55t-245 157t-159.5 241.5t-56 302.5zM1214 717q0 198 -110 317q-107 119 -291 119
q-183 0 -293 -119q-108 -120 -108 -317q0 -195 110.5 -315.5t290.5 -120.5q185 0 291 118q110 119 110 318zM416 1595l217 297h328l-289 -297h-256zM856 1595l215 297h330l-289 -297h-256z" />
    <glyph glyph-name="ohungarumlaut" unicode="&#x151;" horiz-adv-x="1355" 
d="M47 543q-2 122 46 230.5t132.5 186t202.5 122t250 42.5q132 2 250 -42.5t202.5 -122t132.5 -186t46 -230.5q3 -162 -79.5 -297t-229 -211.5t-322.5 -73.5q-176 -3 -322.5 73.5t-229 211.5t-79.5 297zM954 543q0 119 -76 195.5t-200 76.5t-200.5 -75t-76.5 -197
q0 -119 76.5 -196t200.5 -77q123 0 199.5 76.5t76.5 196.5zM281 1247l217 297h327l-288 -297h-256zM721 1247l215 297h330l-289 -297h-256z" />
    <glyph glyph-name="OE" unicode="&#x152;" horiz-adv-x="2199" 
d="M47 717q-2 158 52.5 297.5t150.5 239t233 156t293 54.5q202 0 344 -90h4v60h1000v-312h-645v-252h575v-288h-575v-271h647v-311h-1002v57h-4q-142 -90 -344 -90q-158 -2 -295 54.5t-233 156t-149.5 239.5t-51.5 300zM1124 406v620q-120 129 -313 129
q-183 0 -295.5 -121.5t-112.5 -316.5q0 -199 111.5 -320t296.5 -121q192 0 313 130z" />
    <glyph glyph-name="oe" unicode="&#x153;" horiz-adv-x="2222" 
d="M2175 545v-107h-872q8 -92 80.5 -142t199.5 -50q163 0 328 151l198 -233q-116 -105 -245.5 -154t-294.5 -49q-287 0 -447 160q-174 -160 -440 -160q-181 0 -326.5 75t-227 207.5t-81.5 297.5q0 124 48 232t131.5 185t201.5 121.5t254 44.5q134 0 249 -43t197 -123
q83 79 194.5 122.5t238.5 43.5q174 0 315 -75.5t220 -208t79 -295.5zM1307 670h516q-10 86 -78.5 134t-177.5 48q-106 0 -178 -50t-82 -132zM958 541q0 125 -75 203.5t-201 78.5t-203.5 -79t-77.5 -203q0 -123 77.5 -201t203.5 -78t201 78t75 201z" />
    <glyph glyph-name="Racute" unicode="&#x154;" horiz-adv-x="1484" 
d="M1102 504l336 -504h-406l-301 475h-237v-475h-365v1434h770q242 0 388.5 -128.5t146.5 -349.5q0 -169 -87.5 -285.5t-244.5 -164.5v-2zM494 786h374q94 0 147.5 44.5t53.5 125.5q0 166 -201 166h-374v-336zM553 1556l221 297h350l-293 -297h-278z" />
    <glyph glyph-name="racute" unicode="&#x155;" horiz-adv-x="956" 
d="M96 0v1085h334v-104h4q115 127 318 127q100 0 194 -27l-61 -315q-84 20 -164 20q-131 0 -200.5 -79.5t-69.5 -233.5v-473h-355zM256 1208l221 297h350l-292 -297h-279z" />
    <glyph glyph-name="uni0156" unicode="&#x156;" horiz-adv-x="1484" 
d="M1102 504l336 -504h-406l-301 475h-237v-475h-365v1434h770q242 0 388.5 -128.5t146.5 -349.5q0 -169 -87.5 -285.5t-244.5 -164.5v-2zM494 786h374q94 0 147.5 44.5t53.5 125.5q0 166 -201 166h-374v-336zM614 -627v135q56 12 77.5 38.5t21.5 82.5h-107v271h295v-232
q0 -131 -73.5 -208t-213.5 -87z" />
    <glyph glyph-name="uni0157" unicode="&#x157;" horiz-adv-x="956" 
d="M96 0v1085h334v-104h4q115 127 318 127q100 0 194 -27l-61 -315q-84 20 -164 20q-131 0 -200.5 -79.5t-69.5 -233.5v-473h-355zM135 -627v135q56 12 77 38.5t21 82.5h-106v271h295v-232q0 -131 -73.5 -208t-213.5 -87z" />
    <glyph glyph-name="Rcaron" unicode="&#x158;" horiz-adv-x="1484" 
d="M1102 504l336 -504h-406l-301 475h-237v-475h-365v1434h770q242 0 388.5 -128.5t146.5 -349.5q0 -169 -87.5 -285.5t-244.5 -164.5v-2zM494 786h374q94 0 147.5 44.5t53.5 125.5q0 166 -201 166h-374v-336zM901 1849l166 -147l-162 -166h-344l-162 166l166 147l168 -178z
" />
    <glyph glyph-name="rcaron" unicode="&#x159;" horiz-adv-x="956" 
d="M96 0v1085h334v-104h4q115 127 318 127q100 0 194 -27l-61 -315q-84 20 -164 20q-131 0 -200.5 -79.5t-69.5 -233.5v-473h-355zM604 1501l166 -147l-162 -166h-344l-162 166l166 147l168 -178z" />
    <glyph glyph-name="Sacute" unicode="&#x15a;" horiz-adv-x="1419" 
d="M27 481l346 62q32 -149 124.5 -217t260.5 -68q128 0 199 36.5t71 102.5q0 45 -34 75.5t-123.5 61.5t-264.5 70q-277 62 -403.5 164.5t-126.5 267.5q0 191 166.5 312.5t433.5 121.5q256 0 438 -119t232 -317l-345 -76q-74 218 -325 218q-106 0 -171 -37t-65 -97
q4 -38 35 -61t108.5 -47t256.5 -66q286 -67 419.5 -176t133.5 -286q0 -202 -174 -323.5t-463 -121.5q-309 0 -500 136t-229 384zM496 1593l221 297h350l-293 -297h-278z" />
    <glyph glyph-name="sacute" unicode="&#x15b;" horiz-adv-x="1271" 
d="M27 328l331 94q26 -92 109 -140.5t211 -48.5q106 0 164.5 19.5t58.5 54.5q0 41 -58.5 64.5t-219.5 48.5q-288 43 -412.5 125t-124.5 229q0 157 146.5 253.5t385.5 96.5q214 0 382 -92.5t214 -234.5l-319 -95q-29 70 -108 112t-183 42q-86 0 -133 -20t-47 -56
q0 -37 55 -56.5t234 -47.5q286 -48 409 -130.5t123 -230.5q0 -164 -155.5 -259t-425.5 -95q-239 0 -416.5 102t-220.5 265zM438 1247l221 297h351l-293 -297h-279z" />
    <glyph glyph-name="Scircumflex" unicode="&#x15c;" horiz-adv-x="1419" 
d="M27 481l346 62q32 -149 124.5 -217t260.5 -68q128 0 199 36.5t71 102.5q0 45 -34 75.5t-123.5 61.5t-264.5 70q-277 62 -403.5 164.5t-126.5 267.5q0 191 166.5 312.5t433.5 121.5q256 0 438 -119t232 -317l-345 -76q-74 218 -325 218q-106 0 -171 -37t-65 -97
q4 -38 35 -61t108.5 -47t256.5 -66q286 -67 419.5 -176t133.5 -286q0 -202 -174 -323.5t-463 -121.5q-309 0 -500 136t-229 384zM1010 1702l-166 -150l-168 181l-168 -181l-166 150l162 164h344z" />
    <glyph glyph-name="scircumflex" unicode="&#x15d;" horiz-adv-x="1271" 
d="M27 328l331 94q26 -92 109 -140.5t211 -48.5q106 0 164.5 19.5t58.5 54.5q0 41 -58.5 64.5t-219.5 48.5q-288 43 -412.5 125t-124.5 229q0 157 146.5 253.5t385.5 96.5q214 0 382 -92.5t214 -234.5l-319 -95q-29 70 -108 112t-183 42q-86 0 -133 -20t-47 -56
q0 -37 55 -56.5t234 -47.5q286 -48 409 -130.5t123 -230.5q0 -164 -155.5 -259t-425.5 -95q-239 0 -416.5 102t-220.5 265zM952 1356l-166 -150l-168 180l-167 -180l-166 150l161 164h345z" />
    <glyph glyph-name="Scedilla" unicode="&#x15e;" horiz-adv-x="1419" 
d="M27 481l346 62q32 -149 124.5 -217t260.5 -68q128 0 199 36.5t71 102.5q0 45 -34 75.5t-123.5 61.5t-264.5 70q-277 62 -403.5 164.5t-126.5 267.5q0 191 166.5 312.5t433.5 121.5q256 0 438 -119t232 -317l-345 -76q-74 218 -325 218q-106 0 -171 -37t-65 -97
q4 -38 35 -61t108.5 -47t256.5 -66q286 -67 419.5 -176t133.5 -286q0 -202 -174 -323.5t-463 -121.5q-309 0 -500 136t-229 384zM1071 -324q0 -110 -78.5 -177.5t-206.5 -67.5q-150 0 -272 67l90 174q88 -49 160 -49q44 0 71 19t27 51q0 26 -25.5 42.5t-64.5 16.5
q-62 0 -113 -39l-133 54l154 253l145 -43l-57 -83q50 4 57 4q110 0 178 -61t68 -161z" />
    <glyph glyph-name="scedilla" unicode="&#x15f;" horiz-adv-x="1271" 
d="M27 328l331 94q26 -92 109 -140.5t211 -48.5q106 0 164.5 19.5t58.5 54.5q0 41 -58.5 64.5t-219.5 48.5q-288 43 -412.5 125t-124.5 229q0 157 146.5 253.5t385.5 96.5q214 0 382 -92.5t214 -234.5l-319 -95q-29 70 -108 112t-183 42q-86 0 -133 -20t-47 -56
q0 -37 55 -56.5t234 -47.5q286 -48 409 -130.5t123 -230.5q0 -164 -155.5 -259t-425.5 -95q-239 0 -416.5 102t-220.5 265zM995 -326q0 -110 -78 -177.5t-206 -67.5q-151 0 -273 67l90 174q88 -49 160 -49q44 0 71 19t27 51q0 26 -25.5 42.5t-64.5 16.5q-61 0 -112 -39
l-133 53l153 254l146 -43l-58 -84q9 1 22 2t21.5 2t14.5 1q110 0 177.5 -61t67.5 -161z" />
    <glyph glyph-name="Scaron" unicode="&#x160;" horiz-adv-x="1419" 
d="M27 481l346 62q32 -149 124.5 -217t260.5 -68q128 0 199 36.5t71 102.5q0 45 -34 75.5t-123.5 61.5t-264.5 70q-277 62 -403.5 164.5t-126.5 267.5q0 191 166.5 312.5t433.5 121.5q256 0 438 -119t232 -317l-345 -76q-74 218 -325 218q-106 0 -171 -37t-65 -97
q4 -38 35 -61t108.5 -47t256.5 -66q286 -67 419.5 -176t133.5 -286q0 -202 -174 -323.5t-463 -121.5q-309 0 -500 136t-229 384zM844 1886l166 -147l-162 -166h-344l-162 166l166 147l168 -178z" />
    <glyph glyph-name="scaron" unicode="&#x161;" horiz-adv-x="1271" 
d="M27 328l331 94q26 -92 109 -140.5t211 -48.5q106 0 164.5 19.5t58.5 54.5q0 41 -58.5 64.5t-219.5 48.5q-288 43 -412.5 125t-124.5 229q0 157 146.5 253.5t385.5 96.5q214 0 382 -92.5t214 -234.5l-319 -95q-29 70 -108 112t-183 42q-86 0 -133 -20t-47 -56
q0 -37 55 -56.5t234 -47.5q286 -48 409 -130.5t123 -230.5q0 -164 -155.5 -259t-425.5 -95q-239 0 -416.5 102t-220.5 265zM786 1540l166 -147l-161 -166h-345l-161 166l166 147l167 -178z" />
    <glyph glyph-name="uni0162" unicode="&#x162;" horiz-adv-x="1441" 
d="M537 0v1116h-500v318h1368v-318h-504v-1116h-364zM1036 -287q0 -110 -78 -177.5t-206 -67.5q-151 0 -273 67l90 174q88 -49 160 -49q44 0 71 19t27 51q0 26 -25.5 42.5t-64.5 16.5q-61 0 -112 -39l-133 53l153 254l146 -43l-58 -84q50 4 58 4q110 0 177.5 -60.5
t67.5 -160.5z" />
    <glyph glyph-name="uni0163" unicode="&#x163;" horiz-adv-x="995" 
d="M961 801h-347v-391q0 -50 23 -70.5t80 -20.5h203v-319h-256q-208 0 -306 92.5t-98 284.5v424h-256v284h256v281h354v-281h347v-284zM883 -287q0 -110 -78.5 -177.5t-206.5 -67.5q-150 0 -272 67l90 174q88 -49 159 -49q45 0 72 19t27 51q0 26 -25.5 42.5t-64.5 16.5
q-62 0 -113 -39l-133 53l154 254l145 -43l-57 -84q50 4 57 4q110 0 178 -60.5t68 -160.5z" />
    <glyph glyph-name="Tcaron" unicode="&#x164;" horiz-adv-x="1441" 
d="M537 0v1116h-500v318h1368v-318h-504v-1116h-364zM889 1849l166 -147l-162 -166h-344l-162 166l166 147l168 -178z" />
    <glyph glyph-name="tcaron" unicode="&#x165;" horiz-adv-x="983" 
d="M961 801h-347v-391q0 -50 23 -70.5t80 -20.5h203v-319h-256q-208 0 -306 92.5t-98 284.5v424h-256v284h256v281h354v-281h347v-284zM733 1176v135q56 12 77 38.5t21 82.5h-106v270h295v-232q0 -131 -73.5 -207.5t-213.5 -86.5z" />
    <glyph glyph-name="Tbar" unicode="&#x166;" horiz-adv-x="1441" 
d="M537 0v1116h-500v318h1368v-318h-504v-1116h-364zM274 528v269h893v-269h-893z" />
    <glyph glyph-name="tbar" unicode="&#x167;" horiz-adv-x="995" 
d="M961 801h-347v-391q0 -50 23 -70.5t80 -20.5h203v-319h-256q-208 0 -306 92.5t-98 284.5v424h-256v284h256v281h354v-281h347v-284zM45 471v213h897v-213h-897z" />
    <glyph glyph-name="Utilde" unicode="&#x168;" horiz-adv-x="1574" 
d="M119 553v881h364v-854q0 -153 75 -226t230 -73q153 0 228.5 73t75.5 226v854h364v-881q0 -284 -174.5 -438t-493.5 -154t-494 154t-175 438zM758 1595q-91 35 -127 35q-68 0 -86 -74h-170q6 129 70.5 199t175.5 70q83 0 198 -47q84 -35 125 -35q73 0 88 69h170
q-6 -126 -71.5 -197t-172.5 -71q-83 0 -200 51z" />
    <glyph glyph-name="utilde" unicode="&#x169;" horiz-adv-x="1366" 
d="M76 457v628h354v-553q0 -125 58 -185t180 -60q115 0 185.5 67.5t70.5 177.5v553h354v-1085h-344v104h-4q-129 -135 -357 -135q-230 0 -364 131q-133 133 -133 357zM645 1247q-91 35 -127 35q-68 0 -86 -74h-170q6 129 70.5 199t175.5 70q84 0 199 -47q84 -35 124 -35
q74 0 89 69h170q-6 -126 -71.5 -197t-172.5 -71q-84 0 -201 51z" />
    <glyph glyph-name="Umacron" unicode="&#x16a;" horiz-adv-x="1574" 
d="M119 553v881h364v-854q0 -153 75 -226t230 -73q153 0 228.5 73t75.5 226v854h364v-881q0 -284 -174.5 -438t-493.5 -154t-494 154t-175 438zM412 1556v203h749v-203h-749z" />
    <glyph glyph-name="umacron" unicode="&#x16b;" horiz-adv-x="1366" 
d="M76 457v628h354v-553q0 -125 58 -185t180 -60q115 0 185.5 67.5t70.5 177.5v553h354v-1085h-344v104h-4q-129 -135 -357 -135q-230 0 -364 131q-133 133 -133 357zM299 1208v203h750v-203h-750z" />
    <glyph glyph-name="Ubreve" unicode="&#x16c;" horiz-adv-x="1574" 
d="M119 553v881h364v-854q0 -153 75 -226t230 -73q153 0 228.5 73t75.5 226v854h364v-881q0 -284 -174.5 -438t-493.5 -154t-494 154t-175 438zM432 1835h180q17 -44 65 -70t114 -26t113.5 26t60.5 70h182q-20 -140 -114.5 -219.5t-241.5 -79.5q-149 0 -244 79.5t-115 219.5
z" />
    <glyph glyph-name="ubreve" unicode="&#x16d;" horiz-adv-x="1366" 
d="M76 457v628h354v-553q0 -125 58 -185t180 -60q115 0 185.5 67.5t70.5 177.5v553h354v-1085h-344v104h-4q-129 -135 -357 -135q-230 0 -364 131q-133 133 -133 357zM319 1487h181q17 -44 64.5 -70t113.5 -26t113.5 26t60.5 70h182q-20 -140 -114.5 -219.5t-241.5 -79.5
q-149 0 -244 79.5t-115 219.5z" />
    <glyph glyph-name="Uring" unicode="&#x16e;" horiz-adv-x="1574" 
d="M119 553v881h364v-854q0 -153 75 -226t230 -73q153 0 228.5 73t75.5 226v854h364v-881q0 -284 -174.5 -438t-493.5 -154t-494 154t-175 438zM461 1714q0 126 94.5 209.5t237.5 83.5t238 -83.5t95 -209.5t-95 -209.5t-238 -83.5t-237.5 83.5t-94.5 209.5zM930 1714
q0 60 -38 97.5t-99 37.5q-60 0 -99 -37.5t-39 -97.5t39 -97.5t99 -37.5q61 0 99 37.5t38 97.5z" />
    <glyph glyph-name="uring" unicode="&#x16f;" horiz-adv-x="1366" 
d="M76 457v628h354v-553q0 -125 58 -185t180 -60q115 0 185.5 67.5t70.5 177.5v553h354v-1085h-344v104h-4q-129 -135 -357 -135q-230 0 -364 131q-133 133 -133 357zM362 1407q0 126 94.5 209.5t237.5 83.5t238.5 -83.5t95.5 -209.5t-95.5 -209.5t-238.5 -83.5t-237.5 83.5
t-94.5 209.5zM831 1407q0 60 -38 97.5t-99 37.5q-60 0 -98.5 -37.5t-38.5 -97.5t38.5 -97.5t98.5 -37.5q61 0 99 37.5t38 97.5z" />
    <glyph glyph-name="Uhungarumlaut" unicode="&#x170;" horiz-adv-x="1574" 
d="M119 553v881h364v-854q0 -153 75 -226t230 -73q153 0 228.5 73t75.5 226v854h364v-881q0 -284 -174.5 -438t-493.5 -154t-494 154t-175 438zM391 1556l217 297h328l-289 -297h-256zM831 1556l216 297h329l-289 -297h-256z" />
    <glyph glyph-name="uhungarumlaut" unicode="&#x171;" horiz-adv-x="1366" 
d="M76 457v628h354v-553q0 -125 58 -185t180 -60q115 0 185.5 67.5t70.5 177.5v553h354v-1085h-344v104h-4q-129 -135 -357 -135q-230 0 -364 131q-133 133 -133 357zM279 1208l217 297h327l-288 -297h-256zM719 1208l215 297h330l-289 -297h-256z" />
    <glyph glyph-name="Uogonek" unicode="&#x172;" horiz-adv-x="1574" 
d="M119 553v881h364v-854q0 -153 75 -226t230 -73q153 0 228.5 73t75.5 226v854h364v-881q0 -284 -174.5 -438t-493.5 -154t-494 154t-175 438zM705 -254q0 164 221 285l139 -31q-139 -103 -139 -182q0 -51 53 -51q57 0 111 32l77 -190q-109 -53 -227 -53q-111 0 -173 49.5
t-62 140.5z" />
    <glyph glyph-name="uogonek" unicode="&#x173;" horiz-adv-x="1366" 
d="M76 457v628h354v-553q0 -125 58 -185t180 -60q115 0 185.5 67.5t70.5 177.5v553h354v-1085h-344v104h-4q-129 -135 -357 -135q-230 0 -364 131q-133 133 -133 357zM854 -254q0 164 221 285l139 -31q-139 -103 -139 -182q0 -51 53 -51q57 0 111 32l78 -190
q-109 -53 -227 -53q-111 0 -173.5 49.5t-62.5 140.5z" />
    <glyph glyph-name="Wcircumflex" unicode="&#x174;" horiz-adv-x="2213" 
d="M377 0l-363 1434h377l225 -932h5l342 932h286l344 -932h4l226 932h377l-363 -1434h-383l-346 915h-4l-348 -915h-379zM1440 1665l-166 -149l-168 180l-168 -180l-166 149l162 164h344z" />
    <glyph glyph-name="wcircumflex" unicode="&#x175;" horiz-adv-x="1976" 
d="M330 0l-305 1085h358l174 -657h4l273 657h309l274 -657h4l172 657h361l-307 -1085h-359l-297 717h-4l-299 -717h-358zM1323 1317l-166 -150l-168 181l-168 -181l-166 150l162 164h344z" />
    <glyph glyph-name="Ycircumflex" unicode="&#x176;" horiz-adv-x="1519" 
d="M578 0v559l-607 875h422l365 -564h4l362 564h422l-604 -875v-559h-364zM1094 1665l-166 -149l-168 180l-168 -180l-166 149l162 164h344z" />
    <glyph glyph-name="ycircumflex" unicode="&#x177;" horiz-adv-x="1398" 
d="M258 -461l250 512l-512 1034h395l309 -682h5l307 682h393l-756 -1546h-391zM1034 1317l-166 -150l-168 181l-168 -181l-165 150l161 164h344z" />
    <glyph glyph-name="Ydieresis" unicode="&#x178;" horiz-adv-x="1519" 
d="M578 0v559l-607 875h422l365 -564h4l362 564h422l-604 -875v-559h-364zM385 1536v283h285v-283h-285zM848 1536v283h285v-283h-285z" />
    <glyph glyph-name="Zacute" unicode="&#x179;" horiz-adv-x="1452" 
d="M66 0v281l813 831v4h-789v318h1296v-281l-815 -831v-5h805v-317h-1310zM559 1556l221 297h350l-292 -297h-279z" />
    <glyph glyph-name="zacute" unicode="&#x17a;" horiz-adv-x="1302" 
d="M45 0v256l674 541v4h-656v284h1174v-256l-674 -540v-4h694v-285h-1212zM471 1208l221 297h350l-292 -297h-279z" />
    <glyph glyph-name="Zdotaccent" unicode="&#x17b;" horiz-adv-x="1452" 
d="M66 0v281l813 831v4h-789v318h1296v-281l-815 -831v-5h805v-317h-1310zM598 1556v281h283v-281h-283z" />
    <glyph glyph-name="zdotaccent" unicode="&#x17c;" horiz-adv-x="1302" 
d="M45 0v256l674 541v4h-656v284h1174v-256l-674 -540v-4h694v-285h-1212zM475 1253v332h354v-332h-354z" />
    <glyph glyph-name="Zcaron" unicode="&#x17d;" horiz-adv-x="1452" 
d="M66 0v281l813 831v4h-789v318h1296v-281l-815 -831v-5h805v-317h-1310zM907 1849l166 -147l-162 -166h-344l-161 166l165 147l168 -178z" />
    <glyph glyph-name="zcaron" unicode="&#x17e;" horiz-adv-x="1302" 
d="M45 0v256l674 541v4h-656v284h1174v-256l-674 -540v-4h694v-285h-1212zM819 1501l166 -147l-162 -166h-344l-162 166l166 147l168 -178z" />
    <glyph glyph-name="longs" unicode="&#x17f;" horiz-adv-x="808" 
d="M236 0v803h-232v282h232v105q0 154 98 241t276 87h277v-283h-213q-84 0 -84 -80v-1155h-354z" />
    <glyph glyph-name="uni018E" unicode="&#x18e;" horiz-adv-x="1312" 
d="M1184 0h-1108v317h743v263h-672v292h672v244h-741v318h1106v-1434z" />
    <glyph glyph-name="uni018F" unicode="&#x18f;" horiz-adv-x="1583" 
d="M47 719v135h1110q-23 137 -122 218t-247 81q-249 0 -350 -221l-327 141q88 188 266 294t411 106q216 2 387.5 -94t267.5 -269.5t93 -392.5q2 -161 -54 -302.5t-155 -241.5t-239.5 -157t-299.5 -55q-218 0 -386.5 94.5t-261.5 267t-93 396.5zM1157 578h-731
q9 -137 109 -218q101 -79 253 -79q149 0 252.5 82t116.5 215z" />
    <glyph glyph-name="florin" unicode="&#x192;" horiz-adv-x="1136" 
d="M735 1085h355v-284h-404l-160 -907q-58 -340 -424 -340h-223v284h189q49 0 75 22t37 70l8 50l144 821h-295v284h344l16 95q59 338 424 338h264v-283h-229q-101 0 -113 -92z" />
    <glyph glyph-name="uni01CD" unicode="&#x1cd;" horiz-adv-x="1583" 
d="M1225 0l-88 213h-688l-89 -213h-378l641 1434h338l641 -1434h-377zM575 522h435l-215 522h-4zM961 1849l165 -147l-161 -166h-344l-162 166l166 147l168 -178z" />
    <glyph glyph-name="uni01CE" unicode="&#x1ce;" horiz-adv-x="1241" 
d="M51 305q0 149 116 232t374 118q148 20 205 44.5t57 66.5q0 44 -48 71t-126 27q-100 0 -168.5 -49t-87.5 -135l-324 57q28 169 189 278t380 109q254 0 398 -120q147 -120 147 -328v-676h-321v109h-4q-128 -140 -371 -140q-190 0 -303 91t-113 245zM821 412v108h-4
q-17 -25 -62 -42.5t-143 -37.5q-124 -25 -171.5 -50t-47.5 -66q0 -82 152 -82q110 0 193 51t83 119zM786 1540l166 -147l-161 -166h-345l-161 166l166 147l167 -178z" />
    <glyph glyph-name="uni01CF" unicode="&#x1cf;" horiz-adv-x="622" 
d="M129 0v1434h365v-1434h-365zM479 1849l166 -147l-162 -166h-344l-162 166l166 147l168 -178z" />
    <glyph glyph-name="uni01D0" unicode="&#x1d0;" horiz-adv-x="530" 
d="M88 0v1085h354v-1085h-354zM432 1501l166 -147l-162 -166h-344l-162 166l166 147l168 -178z" />
    <glyph glyph-name="uni01D1" unicode="&#x1d1;" horiz-adv-x="1626" 
d="M47 717q-2 161 56 302.5t159.5 241.5t245 157t305.5 55q162 2 305.5 -55t245 -157t159.5 -241.5t56 -302.5q2 -161 -56 -302.5t-159.5 -241.5t-245 -157t-305.5 -55q-162 -2 -305.5 55t-245 157t-159.5 241.5t-56 302.5zM1214 717q0 198 -110 317q-107 119 -291 119
q-183 0 -293 -119q-108 -120 -108 -317q0 -195 110.5 -315.5t290.5 -120.5q185 0 291 118q110 119 110 318zM981 1888l166 -147l-162 -166h-344l-162 166l166 147l168 -178z" />
    <glyph glyph-name="uni01D2" unicode="&#x1d2;" horiz-adv-x="1355" 
d="M47 543q-2 122 46 230.5t132.5 186t202.5 122t250 42.5q132 2 250 -42.5t202.5 -122t132.5 -186t46 -230.5q3 -162 -79.5 -297t-229 -211.5t-322.5 -73.5q-176 -3 -322.5 73.5t-229 211.5t-79.5 297zM954 543q0 119 -76 195.5t-200 76.5t-200.5 -75t-76.5 -197
q0 -119 76.5 -196t200.5 -77q123 0 199.5 76.5t76.5 196.5zM846 1540l166 -147l-162 -166h-344l-162 166l166 147l168 -178z" />
    <glyph glyph-name="uni01D3" unicode="&#x1d3;" horiz-adv-x="1574" 
d="M119 553v881h364v-854q0 -153 75 -226t230 -73q153 0 228.5 73t75.5 226v854h364v-881q0 -284 -174.5 -438t-493.5 -154t-494 154t-175 438zM956 1849l166 -147l-161 -166h-345l-161 166l166 147l167 -178z" />
    <glyph glyph-name="uni01D4" unicode="&#x1d4;" horiz-adv-x="1366" 
d="M76 457v628h354v-553q0 -125 58 -185t180 -60q115 0 185.5 67.5t70.5 177.5v553h354v-1085h-344v104h-4q-129 -135 -357 -135q-230 0 -364 131q-133 133 -133 357zM844 1501l166 -147l-162 -166h-344l-162 166l166 147l168 -178z" />
    <glyph glyph-name="uni01D5" unicode="&#x1d5;" horiz-adv-x="1574" 
d="M119 553v881h364v-854q0 -153 75 -226t230 -73q153 0 228.5 73t75.5 226v854h364v-881q0 -284 -174.5 -438t-493.5 -154t-494 154t-175 438zM414 1536v283h284v-283h-284zM877 1536v283h284v-283h-284zM412 1901v202h749v-202h-749z" />
    <glyph glyph-name="uni01D6" unicode="&#x1d6;" horiz-adv-x="1366" 
d="M76 457v628h354v-553q0 -125 58 -185t180 -60q115 0 185.5 67.5t70.5 177.5v553h354v-1085h-344v104h-4q-129 -135 -357 -135q-230 0 -364 131q-133 133 -133 357zM301 1188v282h285v-282h-285zM764 1188v282h285v-282h-285zM299 1552v203h750v-203h-750z" />
    <glyph glyph-name="uni01D7" unicode="&#x1d7;" horiz-adv-x="1574" 
d="M119 553v881h364v-854q0 -153 75 -226t230 -73q153 0 228.5 73t75.5 226v854h364v-881q0 -284 -174.5 -438t-493.5 -154t-494 154t-175 438zM414 1536v283h284v-283h-284zM877 1536v283h284v-283h-284zM608 1901l221 297h351l-293 -297h-279z" />
    <glyph glyph-name="uni01D8" unicode="&#x1d8;" horiz-adv-x="1366" 
d="M76 457v628h354v-553q0 -125 58 -185t180 -60q115 0 185.5 67.5t70.5 177.5v553h354v-1085h-344v104h-4q-129 -135 -357 -135q-230 0 -364 131q-133 133 -133 357zM301 1188v282h285v-282h-285zM764 1188v282h285v-282h-285zM496 1552l221 297h350l-293 -297h-278z" />
    <glyph glyph-name="uni01D9" unicode="&#x1d9;" horiz-adv-x="1574" 
d="M119 553v881h364v-854q0 -153 75 -226t230 -73q153 0 228.5 73t75.5 226v854h364v-881q0 -284 -174.5 -438t-493.5 -154t-494 154t-175 438zM414 1536v283h284v-283h-284zM877 1536v283h284v-283h-284zM956 2193l166 -147l-161 -166h-345l-161 166l166 147l167 -178z" />
    <glyph glyph-name="uni01DA" unicode="&#x1da;" horiz-adv-x="1366" 
d="M76 457v628h354v-553q0 -125 58 -185t180 -60q115 0 185.5 67.5t70.5 177.5v553h354v-1085h-344v104h-4q-129 -135 -357 -135q-230 0 -364 131q-133 133 -133 357zM301 1188v282h285v-282h-285zM764 1188v282h285v-282h-285zM844 1845l166 -147l-162 -166h-344l-162 166
l166 147l168 -178z" />
    <glyph glyph-name="uni01DB" unicode="&#x1db;" horiz-adv-x="1574" 
d="M119 553v881h364v-854q0 -153 75 -226t230 -73q153 0 228.5 73t75.5 226v854h364v-881q0 -284 -174.5 -438t-493.5 -154t-494 154t-175 438zM414 1536v283h284v-283h-284zM877 1536v283h284v-283h-284zM682 1901l-295 297h350l221 -297h-276z" />
    <glyph glyph-name="uni01DC" unicode="&#x1dc;" horiz-adv-x="1366" 
d="M76 457v628h354v-553q0 -125 58 -185t180 -60q115 0 185.5 67.5t70.5 177.5v553h354v-1085h-344v104h-4q-129 -135 -357 -135q-230 0 -364 131q-133 133 -133 357zM301 1188v282h285v-282h-285zM764 1188v282h285v-282h-285zM569 1552l-295 297h351l221 -297h-277z" />
    <glyph glyph-name="uni01DE" unicode="&#x1de;" horiz-adv-x="1583" 
d="M1225 0l-88 213h-688l-89 -213h-378l641 1434h338l641 -1434h-377zM575 522h435l-215 522h-4zM418 1536v283h284v-283h-284zM881 1536v283h284v-283h-284zM416 1901v202h749v-202h-749z" />
    <glyph glyph-name="uni01DF" unicode="&#x1df;" horiz-adv-x="1241" 
d="M51 305q0 149 116 232t374 118q148 20 205 44.5t57 66.5q0 44 -48 71t-126 27q-100 0 -168.5 -49t-87.5 -135l-324 57q28 169 189 278t380 109q254 0 398 -120q147 -120 147 -328v-676h-321v109h-4q-128 -140 -371 -140q-190 0 -303 91t-113 245zM821 412v108h-4
q-17 -25 -62 -42.5t-143 -37.5q-124 -25 -171.5 -50t-47.5 -66q0 -82 152 -82q110 0 193 51t83 119zM244 1227v282h284v-282h-284zM707 1227v282h284v-282h-284zM242 1591v203h749v-203h-749z" />
    <glyph glyph-name="Aringacute" unicode="&#x1fa;" horiz-adv-x="1583" 
d="M1225 0l-88 213h-688l-89 -213h-378l641 1434h338l641 -1434h-377zM575 522h435l-215 522h-4zM461 1569q0 126 94.5 209.5t237.5 83.5t238 -83.5t95 -209.5t-95 -209.5t-238 -83.5t-237.5 83.5t-94.5 209.5zM930 1569q0 60 -38 97.5t-99 37.5q-60 0 -99 -37.5t-39 -97.5
t39 -97.5t99 -37.5q61 0 99 37.5t38 97.5zM612 1810l222 297h350l-293 -297h-279z" />
    <glyph glyph-name="aringacute" unicode="&#x1fb;" horiz-adv-x="1261" 
d="M317 1430q0 85 49.5 150t135.5 95l190 256h350l-270 -272q68 -36 105.5 -95.5t37.5 -133.5q0 -112 -86 -189q-83 -74 -213 -74q-129 0 -215 74q-84 78 -84 189zM739 1430q0 54 -34 88t-89 34q-54 0 -89 -34t-35 -88t35 -87.5t89 -33.5q55 0 89 33.5t34 87.5zM1163 676
v-676h-321v109h-4q-128 -140 -371 -140q-190 0 -303 91t-113 245q0 149 116 232t374 118q148 20 205 44.5t57 66.5q0 44 -48 71t-126 27q-100 0 -168.5 -49t-87.5 -135l-324 57q28 169 189 278t380 109q254 0 398 -120q147 -120 147 -328zM821 412v108h-4q-17 -25 -62 -42.5
t-143 -37.5q-124 -25 -171.5 -50t-47.5 -66q0 -82 152 -82q110 0 193 51t83 119z" />
    <glyph glyph-name="AEacute" unicode="&#x1fc;" horiz-adv-x="2101" 
d="M1423 299h605v-299h-951v219h-604l-100 -219h-391l675 1434h1368v-299h-602v-267h533v-282h-533v-287zM610 514h467v621h-182zM877 1556l221 297h350l-293 -297h-278z" />
    <glyph glyph-name="aeacute" unicode="&#x1fd;" horiz-adv-x="2013" 
d="M1966 541v-103h-838q7 -96 79 -149t194 -53q85 0 160 36.5t157 118.5l195 -215q-209 -215 -508 -215q-296 0 -455 178q-147 -178 -465 -178q-196 0 -312 92t-116 246q0 127 70 197q66 66 154.5 96.5t259.5 60.5q137 26 188 46.5t51 62.5q0 48 -43 75t-127 27
q-98 0 -166 -50t-88 -136l-309 78q40 163 197 266q156 102 366 102q258 0 389 -137q155 137 383 137q253 0 418.5 -165.5t165.5 -417.5zM1130 670h510q-10 87 -78 137.5t-173 50.5q-106 0 -177.5 -51.5t-81.5 -136.5zM795 395v125h-4q-18 -29 -62.5 -46t-140.5 -38
q-115 -26 -162 -49.5t-47 -67.5q0 -88 151 -88q105 0 185 49t80 115zM829 1208l222 297h350l-293 -297h-279z" />
    <glyph glyph-name="Oslashacute" unicode="&#x1fe;" horiz-adv-x="1626" 
d="M1579 717q2 -161 -56 -302.5t-159.5 -241.5t-245 -157t-305.5 -55q-248 0 -434 119l-96 -107l-152 121l98 113q-182 207 -182 510q-2 161 56 302.5t159.5 241.5t245 157t305.5 55q246 0 432 -119l94 106l154 -123l-98 -110q184 -206 184 -510zM461 467l569 643
q-98 55 -217 55q-186 0 -299 -123t-113 -325q0 -139 60 -250zM1225 717q0 141 -60 252l-571 -643q94 -58 219 -58q185 0 299 123q113 122 113 326zM633 1595l221 297h350l-293 -297h-278z" />
    <glyph glyph-name="oslashacute" unicode="&#x1ff;" horiz-adv-x="1357" 
d="M1311 543q2 -163 -80.5 -297.5t-228.5 -211t-322 -73.5q-210 0 -367 98l-104 -104l-113 111l94 96q-143 155 -143 381q-2 122 46.5 230.5t133 186t203 122t250.5 42.5q207 0 367 -100l104 106l111 -110l-95 -96q144 -157 144 -381zM426 397l393 400q-58 30 -139 30
q-130 0 -209.5 -79.5t-79.5 -204.5q0 -81 35 -146zM967 543q0 80 -35 145l-393 -399q64 -31 141 -31q129 0 208 79.5t79 205.5zM500 1247l221 297h350l-293 -297h-278z" />
    <glyph glyph-name="uni0218" unicode="&#x218;" horiz-adv-x="1419" 
d="M27 481l346 62q32 -149 124.5 -217t260.5 -68q128 0 199 36.5t71 102.5q0 45 -34 75.5t-123.5 61.5t-264.5 70q-277 62 -403.5 164.5t-126.5 267.5q0 191 166.5 312.5t433.5 121.5q256 0 438 -119t232 -317l-345 -76q-74 218 -325 218q-106 0 -171 -37t-65 -97
q4 -38 35 -61t108.5 -47t256.5 -66q286 -67 419.5 -176t133.5 -286q0 -202 -174 -323.5t-463 -121.5q-309 0 -500 136t-229 384zM616 -666v136q57 12 78 38t21 82h-107v271h295v-232q0 -131 -73.5 -208t-213.5 -87z" />
    <glyph glyph-name="uni0219" unicode="&#x219;" horiz-adv-x="1271" 
d="M27 328l331 94q26 -92 109 -140.5t211 -48.5q106 0 164.5 19.5t58.5 54.5q0 41 -58.5 64.5t-219.5 48.5q-288 43 -412.5 125t-124.5 229q0 157 146.5 253.5t385.5 96.5q214 0 382 -92.5t214 -234.5l-319 -95q-29 70 -108 112t-183 42q-86 0 -133 -20t-47 -56
q0 -37 55 -56.5t234 -47.5q286 -48 409 -130.5t123 -230.5q0 -164 -155.5 -259t-425.5 -95q-239 0 -416.5 102t-220.5 265zM541 -668v136q56 12 77 38t21 82h-107v271h295v-232q0 -132 -73 -208.5t-213 -86.5z" />
    <glyph glyph-name="uni021A" unicode="&#x21a;" horiz-adv-x="1441" 
d="M537 0v1116h-500v318h1368v-318h-504v-1116h-364zM582 -627v135q56 12 77 38.5t21 82.5h-107v271h295v-232q0 -132 -73 -208.5t-213 -86.5z" />
    <glyph glyph-name="uni021B" unicode="&#x21b;" horiz-adv-x="995" 
d="M961 801h-347v-391q0 -50 23 -70.5t80 -20.5h203v-319h-256q-208 0 -306 92.5t-98 284.5v424h-256v284h256v281h354v-281h347v-284zM428 -627v135q56 12 77 38.5t21 82.5h-106v271h295v-232q0 -131 -73.5 -208t-213.5 -87z" />
    <glyph glyph-name="uni0228" unicode="&#x228;" horiz-adv-x="1312" 
d="M129 0v1434h1106v-318h-741v-244h671v-292h-671v-263h743v-317h-1108zM999 -287q0 -110 -78 -177.5t-206 -67.5q-151 0 -273 67l90 174q88 -49 160 -49q45 0 72 19t27 51q0 26 -26 42.5t-65 16.5q-61 0 -112 -39l-133 53l153 254l146 -43l-58 -84q50 4 58 4
q110 0 177.5 -60.5t67.5 -160.5z" />
    <glyph glyph-name="uni0229" unicode="&#x229;" horiz-adv-x="1318" 
d="M47 541q-2 120 45.5 229t129.5 187.5t197.5 123.5t242.5 43q174 0 314 -76.5t218 -210t78 -296.5v-105h-875q8 -93 83 -144.5t204 -51.5q168 0 328 151l196 -225q-114 -105 -243 -155t-293 -50q-284 0 -454.5 158.5t-170.5 421.5zM399 670h529q-10 88 -79.5 137
t-182.5 49q-109 0 -183 -51t-84 -135zM987 -324q0 -110 -78.5 -177.5t-206.5 -67.5q-150 0 -272 67l90 174q88 -49 160 -49q44 0 71 19t27 51q0 26 -25.5 42.5t-64.5 16.5q-62 0 -113 -39l-133 54l154 253l145 -43l-57 -83q50 4 57 4q110 0 178 -61t68 -161z" />
    <glyph glyph-name="uni0237" unicode="&#x237;" horiz-adv-x="552" 
d="M-178 -457v328h180q57 0 83 24t26 78v1112h354v-1116q0 -227 -101.5 -326.5t-330.5 -99.5h-211z" />
    <glyph glyph-name="uni0258" unicode="&#x258;" horiz-adv-x="1318" 
d="M111 166l196 225q160 -151 328 -151q129 0 204 51.5t83 144.5h-875v105q0 163 78 296.5t218 210t314 76.5q127 2 242.5 -43t197.5 -123.5t129.5 -187.5t45.5 -229q0 -263 -170.5 -421.5t-454.5 -158.5q-164 0 -293 50t-243 155zM653 856q-113 0 -182.5 -49t-79.5 -137
h529q-10 84 -84 135t-183 51z" />
    <glyph glyph-name="uni0259" unicode="&#x259;" horiz-adv-x="1318" 
d="M47 545v104h875q-8 94 -82.5 145.5t-204.5 51.5q-163 0 -328 -152l-194 226q119 104 247 154t287 50q286 0 455.5 -158t169.5 -421q2 -121 -45.5 -230t-129.5 -187.5t-197.5 -123.5t-242.5 -43q-174 0 -314 77t-218 210.5t-78 296.5zM920 416h-529q10 -87 80.5 -137
t181.5 -50q109 0 183 51.5t84 135.5z" />
    <glyph glyph-name="circumflex" unicode="&#x2c6;" horiz-adv-x="843" 
d="M756 1317l-166 -150l-168 181l-168 -181l-166 150l162 164h344z" />
    <glyph glyph-name="caron" unicode="&#x2c7;" horiz-adv-x="843" 
d="M590 1501l166 -147l-162 -166h-344l-162 166l166 147l168 -178z" />
    <glyph glyph-name="breve" unicode="&#x2d8;" horiz-adv-x="839" 
d="M88 1487h180q17 -44 64.5 -70t113.5 -26t114 26t61 70h182q-20 -140 -115 -219.5t-242 -79.5q-149 0 -243.5 79.5t-114.5 219.5z" />
    <glyph glyph-name="dotaccent" unicode="&#x2d9;" horiz-adv-x="458" 
d="M88 1208v281h283v-281h-283z" />
    <glyph glyph-name="ring" unicode="&#x2da;" horiz-adv-x="841" 
d="M88 1221q0 126 94.5 209t237.5 83t238.5 -83t95.5 -209t-95.5 -209.5t-238.5 -83.5t-237.5 83.5t-94.5 209.5zM557 1221q0 60 -38 97.5t-99 37.5q-60 0 -98.5 -37.5t-38.5 -97.5t38.5 -98t98.5 -38q61 0 99 38t38 98z" />
    <glyph glyph-name="ogonek" unicode="&#x2db;" horiz-adv-x="638" 
d="M88 -254q0 164 221 285l140 -31q-140 -103 -140 -182q0 -51 53 -51q57 0 111 32l78 -190q-109 -53 -227 -53q-111 0 -173.5 49.5t-62.5 140.5z" />
    <glyph glyph-name="tilde" unicode="&#x2dc;" horiz-adv-x="948" 
d="M471 1247q-91 35 -127 35q-68 0 -86 -74h-170q6 129 70.5 199t175.5 70q83 0 198 -47q84 -35 125 -35q73 0 88 69h170q-6 -126 -71 -197t-172 -71q-84 0 -201 51z" />
    <glyph glyph-name="hungarumlaut" unicode="&#x2dd;" horiz-adv-x="1175" 
d="M88 1208l217 297h328l-289 -297h-256zM528 1208l215 297h330l-289 -297h-256z" />
    <glyph glyph-name="gravecomb" unicode="&#x300;" horiz-adv-x="0" 
d="M-276 1208l-295 297h350l221 -297h-276z" />
    <glyph glyph-name="acutecomb" unicode="&#x301;" horiz-adv-x="0" 
d="M-571 1208l221 297h350l-293 -297h-278z" />
    <glyph glyph-name="uni0302" unicode="&#x302;" horiz-adv-x="0" 
d="M0 1317l-166 -150l-168 181l-168 -181l-166 150l162 164h344z" />
    <glyph glyph-name="tildecomb" unicode="&#x303;" horiz-adv-x="0" 
d="M-444 1247q-91 35 -127 35q-68 0 -86 -74h-170q6 129 70 199t175 70q84 0 199 -47q84 -35 125 -35q73 0 88 69h170q-6 -126 -71.5 -197t-172.5 -71q-83 0 -200 51z" />
    <glyph glyph-name="uni0304" unicode="&#x304;" horiz-adv-x="0" 
d="M-750 1208v203h750v-203h-750z" />
    <glyph glyph-name="uni0306" unicode="&#x306;" horiz-adv-x="0" 
d="M-715 1487h180q17 -44 65 -70t114 -26t113.5 26t60.5 70h182q-20 -140 -114.5 -219.5t-241.5 -79.5q-149 0 -244 79.5t-115 219.5z" />
    <glyph glyph-name="uni0307" unicode="&#x307;" horiz-adv-x="0" 
d="M-283 1208v281h283v-281h-283z" />
    <glyph glyph-name="uni0308" unicode="&#x308;" horiz-adv-x="0" 
d="M-748 1188v282h285v-282h-285zM-285 1188v282h285v-282h-285z" />
    <glyph glyph-name="uni030A" unicode="&#x30a;" horiz-adv-x="0" 
d="M-666 1221q0 126 94.5 209t237.5 83t238.5 -83t95.5 -209t-95.5 -209.5t-238.5 -83.5t-237.5 83.5t-94.5 209.5zM-197 1221q0 60 -38 97.5t-99 37.5q-60 0 -98.5 -37.5t-38.5 -97.5t38.5 -98t98.5 -38q61 0 99 38t38 98z" />
    <glyph glyph-name="uni030B" unicode="&#x30b;" horiz-adv-x="0" 
d="M-985 1208l217 297h328l-289 -297h-256zM-545 1208l215 297h330l-289 -297h-256z" />
    <glyph glyph-name="uni030C" unicode="&#x30c;" horiz-adv-x="0" 
d="M-166 1501l166 -147l-162 -166h-344l-162 166l166 147l168 -178z" />
    <glyph glyph-name="uni0312" unicode="&#x312;" horiz-adv-x="0" 
d="M-12 1731v-134q-63 -13 -86 -38.5t-23 -81.5h121v-269h-330v230q0 132 80.5 207.5t237.5 85.5z" />
    <glyph glyph-name="dotbelowcomb" unicode="&#x323;" horiz-adv-x="0" 
d="M-283 -381v281h283v-281h-283z" />
    <glyph glyph-name="uni0326" unicode="&#x326;" horiz-adv-x="0" 
d="M-287 -629v135q57 12 78 38t21 83h-107v271h295v-232q0 -131 -73.5 -208t-213.5 -87z" />
    <glyph glyph-name="uni0327" unicode="&#x327;" horiz-adv-x="0" 
d="M8 -287q0 -110 -78 -177.5t-206 -67.5q-151 0 -273 67l90 174q88 -49 160 -49q44 0 71 19t27 51q0 26 -25.5 42.5t-64.5 16.5q-61 0 -112 -39l-134 53l154 254l145 -43l-57 -84q50 4 57 4q110 0 178 -60.5t68 -160.5z" />
    <glyph glyph-name="uni0328" unicode="&#x328;" horiz-adv-x="0" 
d="M-463 -254q0 164 221 285l140 -31q-140 -103 -140 -182q0 -51 54 -51q56 0 110 32l78 -190q-109 -53 -227 -53q-111 0 -173.5 49.5t-62.5 140.5z" />
    <glyph glyph-name="uni0335" unicode="&#x335;" horiz-adv-x="0" 
d="M-893 594v268h893v-268h-893z" />
    <glyph glyph-name="uni0336" unicode="&#x336;" horiz-adv-x="0" 
d="M-1608 596v258h1622v-258h-1622z" />
    <glyph glyph-name="uni0337" unicode="&#x337;" horiz-adv-x="0" 
d="M-1053 -45l-114 111l1054 1064l113 -110z" />
    <glyph glyph-name="uni0338" unicode="&#x338;" horiz-adv-x="0" 
d="M-1212 -27l-150 121l1208 1366l154 -123z" />
    <glyph glyph-name="uni0394" unicode="&#x394;" horiz-adv-x="1585" 
d="M963 1434l641 -1434h-1622l643 1434h338zM492 319h602l-299 725h-4z" />
    <glyph glyph-name="uni03A9" unicode="&#x3a9;" horiz-adv-x="1626" 
d="M1339 233v-4h230v-229h-670v213q315 118 315 524q0 184 -113 300t-288 116t-288 -116t-113 -300q0 -406 315 -524v-213h-670v229h230v4q-240 172 -240 519q-2 150 56.5 285t161 231t245.5 151.5t303 53.5q160 2 303 -53.5t245.5 -151.5t161 -231t56.5 -285
q0 -347 -240 -519z" />
    <glyph glyph-name="uni03BC" unicode="&#x3bc;" horiz-adv-x="1386" 
d="M944 1085h354v-1085h-342v100h-4q-106 -131 -293 -131q-119 0 -204 54h-4v-484h-355v1546h355v-553q0 -127 58 -186t181 -59q115 0 184.5 67t69.5 178v553z" />
    <glyph glyph-name="pi" unicode="&#x3c0;" horiz-adv-x="1673" 
d="M1597 778h-299v-368q0 -54 20 -72.5t77 -18.5h188v-319h-262q-193 0 -285 83.5t-92 266.5v428h-305v-778h-344v778h-291v307h1593v-307z" />
    <glyph glyph-name="uni0E3F" unicode="&#xe3f;" horiz-adv-x="1531" 
d="M1456 444q0 -223 -139.5 -333.5t-423.5 -110.5h-51v-236h-158v236h-534v1434h534v215h158v-215h121q194 0 318 -108.5t124 -278.5q0 -85 -38.5 -155.5t-106.5 -113.5v-4q92 -44 144 -132t52 -198zM494 1124v-245h190v245h-190zM911 1124h-69v-245h69q146 0 146 125
q0 120 -146 120zM494 309h190v291h-190v-291zM1110 457q0 69 -42.5 106t-123.5 37h-102v-291h102q86 0 126 36.5t40 111.5z" />
    <glyph glyph-name="uni1E04" unicode="&#x1e04;" horiz-adv-x="1490" 
d="M129 0v1434h813q194 0 318 -108.5t124 -278.5q0 -85 -38.5 -155.5t-106.5 -113.5v-4q92 -44 144.5 -132t52.5 -198q0 -444 -564 -444h-743zM487 879h390q145 0 145 125q0 122 -145 122h-390v-247zM487 307h422q85 0 125.5 37t40.5 113q0 69 -42.5 106t-123.5 37h-422
v-293zM606 -381v281h283v-281h-283z" />
    <glyph glyph-name="uni1E05" unicode="&#x1e05;" horiz-adv-x="1415" 
d="M426 104h-4v-104h-326v1495h355v-491h4q124 112 329 112q160 3 296 -74.5t213.5 -211t74.5 -289.5q2 -119 -42.5 -225t-122 -181.5t-187.5 -118.5t-234 -41q-109 0 -201.5 33.5t-154.5 95.5zM1014 545q0 117 -81.5 190.5t-211.5 73.5q-110 0 -190 -60t-80 -143v-119
q0 -84 77 -143q80 -59 193 -59q135 0 214 70.5t79 189.5zM614 -406v281h283v-281h-283z" />
    <glyph glyph-name="uni1E0C" unicode="&#x1e0c;" horiz-adv-x="1527" 
d="M129 0v1434h627q219 0 381.5 -82t253 -244.5t90.5 -390.5q0 -353 -197 -535t-532 -182h-623zM494 317h233q197 0 293 96.5t96 303.5q0 399 -389 399h-233v-799zM621 -381v281h282v-281h-282z" />
    <glyph glyph-name="uni1E0D" unicode="&#x1e0d;" horiz-adv-x="1415" 
d="M47 541q-3 156 74 289.5t213 211t297 74.5q206 0 330 -112h4v491h354v-1495h-326v104h-4q-62 -62 -154.5 -95.5t-201.5 -33.5q-124 -2 -234 41t-187.5 118.5t-122 181.5t-42.5 225zM965 487v119q0 83 -80.5 143t-190.5 60q-130 0 -211.5 -73.5t-81.5 -190.5
q0 -119 79 -189.5t214 -70.5q114 0 191 59q80 59 80 143zM559 -381v281h283v-281h-283z" />
    <glyph glyph-name="uni1E24" unicode="&#x1e24;" horiz-adv-x="1593" 
d="M129 0v1434h365v-537h606v537h364v-1434h-364v563h-606v-563h-365zM655 -381v281h283v-281h-283z" />
    <glyph glyph-name="uni1E25" unicode="&#x1e25;" horiz-adv-x="1413" 
d="M96 0v1495h355v-510h4q140 131 352 131q235 0 381.5 -135t146.5 -352v-629h-354v561q0 119 -67 182.5t-191 63.5q-123 0 -197.5 -68t-74.5 -178v-561h-355zM575 -381v281h283v-281h-283z" />
    <glyph glyph-name="uni1E36" unicode="&#x1e36;" horiz-adv-x="1261" 
d="M129 0v1434h365v-1115h731v-319h-1096zM537 -381v281h282v-281h-282z" />
    <glyph glyph-name="uni1E37" unicode="&#x1e37;" horiz-adv-x="530" 
d="M88 0v1495h354v-1495h-354zM125 -381v281h283v-281h-283z" />
    <glyph glyph-name="uni1E44" unicode="&#x1e44;" horiz-adv-x="1638" 
d="M129 0v1434h381l631 -912h4v912h364v-1434h-381l-630 913h-4v-913h-365zM678 1556v281h283v-281h-283z" />
    <glyph glyph-name="uni1E45" unicode="&#x1e45;" horiz-adv-x="1413" 
d="M96 0v1085h342v-100h4q69 63 164 97t201 34q237 0 382.5 -142.5t145.5 -373.5v-600h-354v561q0 119 -67 182.5t-191 63.5q-123 0 -197.5 -68t-74.5 -178v-561h-355zM596 1239v281h283v-281h-283z" />
    <glyph glyph-name="uni1E46" unicode="&#x1e46;" horiz-adv-x="1638" 
d="M129 0v1434h381l631 -912h4v912h364v-1434h-381l-630 913h-4v-913h-365zM707 -381v281h282v-281h-282z" />
    <glyph glyph-name="uni1E47" unicode="&#x1e47;" horiz-adv-x="1413" 
d="M96 0v1085h342v-100h4q69 63 164 97t201 34q237 0 382.5 -142.5t145.5 -373.5v-600h-354v561q0 119 -67 182.5t-191 63.5q-123 0 -197.5 -68t-74.5 -178v-561h-355zM575 -381v281h283v-281h-283z" />
    <glyph glyph-name="uni1E4C" unicode="&#x1e4c;" horiz-adv-x="1626" 
d="M47 717q-2 161 56 302.5t159.5 241.5t245 157t305.5 55q162 2 305.5 -55t245 -157t159.5 -241.5t56 -302.5q2 -161 -56 -302.5t-159.5 -241.5t-245 -157t-305.5 -55q-162 -2 -305.5 55t-245 157t-159.5 241.5t-56 302.5zM1214 717q0 198 -110 317q-107 119 -291 119
q-183 0 -293 -119q-108 -120 -108 -317q0 -195 110.5 -315.5t290.5 -120.5q185 0 291 118q110 119 110 318zM782 1634q-91 35 -127 35q-68 0 -86 -74h-170q6 129 70.5 199t175.5 70q84 0 199 -47q84 -35 125 -35q73 0 88 69h170q-6 -126 -71.5 -197t-172.5 -71
q-84 0 -201 51zM633 1925l221 297h350l-293 -297h-278z" />
    <glyph glyph-name="uni1E4D" unicode="&#x1e4d;" horiz-adv-x="1355" 
d="M47 543q-2 122 46 230.5t132.5 186t202.5 122t250 42.5q132 2 250 -42.5t202.5 -122t132.5 -186t46 -230.5q3 -162 -79.5 -297t-229 -211.5t-322.5 -73.5q-176 -3 -322.5 73.5t-229 211.5t-79.5 297zM954 543q0 119 -76 195.5t-200 76.5t-200.5 -75t-76.5 -197
q0 -119 76.5 -196t200.5 -77q123 0 199.5 76.5t76.5 196.5zM647 1286q-91 35 -127 35q-68 0 -86 -74h-170q6 129 70.5 199t175.5 70q81 0 199 -48q81 -34 125 -34q73 0 88 69h170q-6 -126 -71.5 -197t-172.5 -71q-84 0 -201 51zM498 1577l221 297h350l-293 -297h-278z" />
    <glyph glyph-name="uni1E62" unicode="&#x1e62;" horiz-adv-x="1419" 
d="M27 481l346 62q32 -149 124.5 -217t260.5 -68q128 0 199 36.5t71 102.5q0 45 -34 75.5t-123.5 61.5t-264.5 70q-277 62 -403.5 164.5t-126.5 267.5q0 191 166.5 312.5t433.5 121.5q256 0 438 -119t232 -317l-345 -76q-74 218 -325 218q-106 0 -171 -37t-65 -97
q4 -38 35 -61t108.5 -47t256.5 -66q286 -67 419.5 -176t133.5 -286q0 -202 -174 -323.5t-463 -121.5q-309 0 -500 136t-229 384zM614 -420v281h283v-281h-283z" />
    <glyph glyph-name="uni1E63" unicode="&#x1e63;" horiz-adv-x="1271" 
d="M27 328l331 94q26 -92 109 -140.5t211 -48.5q106 0 164.5 19.5t58.5 54.5q0 41 -58.5 64.5t-219.5 48.5q-288 43 -412.5 125t-124.5 229q0 157 146.5 253.5t385.5 96.5q214 0 382 -92.5t214 -234.5l-319 -95q-29 70 -108 112t-183 42q-86 0 -133 -20t-47 -56
q0 -37 55 -56.5t234 -47.5q286 -48 409 -130.5t123 -230.5q0 -164 -155.5 -259t-425.5 -95q-239 0 -416.5 102t-220.5 265zM539 -422v281h282v-281h-282z" />
    <glyph glyph-name="uni1E6C" unicode="&#x1e6c;" horiz-adv-x="1441" 
d="M537 0v1116h-500v318h1368v-318h-504v-1116h-364zM580 -381v281h282v-281h-282z" />
    <glyph glyph-name="uni1E6D" unicode="&#x1e6d;" horiz-adv-x="995" 
d="M961 801h-347v-391q0 -50 23 -70.5t80 -20.5h203v-319h-256q-208 0 -306 92.5t-98 284.5v424h-256v284h256v281h354v-281h347v-284zM426 -381v281h283v-281h-283z" />
    <glyph glyph-name="Wgrave" unicode="&#x1e80;" horiz-adv-x="2213" 
d="M377 0l-363 1434h377l225 -932h5l342 932h286l344 -932h4l226 932h377l-363 -1434h-383l-346 915h-4l-348 -915h-379zM999 1556l-294 297h350l221 -297h-277z" />
    <glyph glyph-name="wgrave" unicode="&#x1e81;" horiz-adv-x="1976" 
d="M330 0l-305 1085h358l174 -657h4l273 657h309l274 -657h4l172 657h361l-307 -1085h-359l-297 717h-4l-299 -717h-358zM883 1208l-295 297h350l221 -297h-276z" />
    <glyph glyph-name="Wacute" unicode="&#x1e82;" horiz-adv-x="2213" 
d="M377 0l-363 1434h377l225 -932h5l342 932h286l344 -932h4l226 932h377l-363 -1434h-383l-346 915h-4l-348 -915h-379zM926 1556l221 297h350l-293 -297h-278z" />
    <glyph glyph-name="wacute" unicode="&#x1e83;" horiz-adv-x="1976" 
d="M330 0l-305 1085h358l174 -657h4l273 657h309l274 -657h4l172 657h361l-307 -1085h-359l-297 717h-4l-299 -717h-358zM809 1208l221 297h350l-293 -297h-278z" />
    <glyph glyph-name="Wdieresis" unicode="&#x1e84;" horiz-adv-x="2213" 
d="M377 0l-363 1434h377l225 -932h5l342 932h286l344 -932h4l226 932h377l-363 -1434h-383l-346 915h-4l-348 -915h-379zM731 1536v283h285v-283h-285zM1194 1536v283h285v-283h-285z" />
    <glyph glyph-name="wdieresis" unicode="&#x1e85;" horiz-adv-x="1976" 
d="M330 0l-305 1085h358l174 -657h4l273 657h309l274 -657h4l172 657h361l-307 -1085h-359l-297 717h-4l-299 -717h-358zM614 1188v282h285v-282h-285zM1077 1188v282h285v-282h-285z" />
    <glyph glyph-name="uni1E92" unicode="&#x1e92;" horiz-adv-x="1452" 
d="M66 0v281l813 831v4h-789v318h1296v-281l-815 -831v-5h805v-317h-1310zM575 -381v281h283v-281h-283z" />
    <glyph glyph-name="uni1E93" unicode="&#x1e93;" horiz-adv-x="1302" 
d="M45 0v256l674 541v4h-656v284h1174v-256l-674 -540v-4h694v-285h-1212zM510 -381v281h283v-281h-283z" />
    <glyph glyph-name="uni1EA0" unicode="&#x1ea0;" horiz-adv-x="1583" 
d="M1225 0l-88 213h-688l-89 -213h-378l641 1434h338l641 -1434h-377zM575 522h435l-215 522h-4zM651 -381v281h283v-281h-283z" />
    <glyph glyph-name="uni1EA1" unicode="&#x1ea1;" horiz-adv-x="1241" 
d="M51 305q0 149 116 232t374 118q148 20 205 44.5t57 66.5q0 44 -48 71t-126 27q-100 0 -168.5 -49t-87.5 -135l-324 57q28 169 189 278t380 109q254 0 398 -120q147 -120 147 -328v-676h-321v109h-4q-128 -140 -371 -140q-190 0 -303 91t-113 245zM821 412v108h-4
q-17 -25 -62 -42.5t-143 -37.5q-124 -25 -171.5 -50t-47.5 -66q0 -82 152 -82q110 0 193 51t83 119zM483 -412v281h283v-281h-283z" />
    <glyph glyph-name="uni1EAC" unicode="&#x1eac;" horiz-adv-x="1583" 
d="M1225 0l-88 213h-688l-89 -213h-378l641 1434h338l641 -1434h-377zM575 522h435l-215 522h-4zM1126 1665l-165 -149l-168 180l-168 -180l-166 149l162 164h344zM651 -381v281h283v-281h-283z" />
    <glyph glyph-name="uni1EAD" unicode="&#x1ead;" horiz-adv-x="1241" 
d="M51 305q0 149 116 232t374 118q148 20 205 44.5t57 66.5q0 44 -48 71t-126 27q-100 0 -168.5 -49t-87.5 -135l-324 57q28 169 189 278t380 109q254 0 398 -120q147 -120 147 -328v-676h-321v109h-4q-128 -140 -371 -140q-190 0 -303 91t-113 245zM821 412v108h-4
q-17 -25 -62 -42.5t-143 -37.5q-124 -25 -171.5 -50t-47.5 -66q0 -82 152 -82q110 0 193 51t83 119zM952 1356l-166 -150l-168 180l-167 -180l-166 150l161 164h345zM483 -412v281h283v-281h-283z" />
    <glyph glyph-name="uni1EB8" unicode="&#x1eb8;" horiz-adv-x="1312" 
d="M129 0v1434h1106v-318h-741v-244h671v-292h-671v-263h743v-317h-1108zM543 -381v281h282v-281h-282z" />
    <glyph glyph-name="uni1EB9" unicode="&#x1eb9;" horiz-adv-x="1318" 
d="M47 541q-2 120 45.5 229t129.5 187.5t197.5 123.5t242.5 43q174 0 314 -76.5t218 -210t78 -296.5v-105h-875q8 -93 83 -144.5t204 -51.5q168 0 328 151l196 -225q-114 -105 -243 -155t-293 -50q-284 0 -454.5 158.5t-170.5 421.5zM399 670h529q-10 88 -79.5 137
t-182.5 49q-109 0 -183 -51t-84 -135zM530 -420v281h283v-281h-283z" />
    <glyph glyph-name="uni1EBC" unicode="&#x1ebc;" horiz-adv-x="1312" 
d="M129 0v1434h1106v-318h-741v-244h671v-292h-671v-263h743v-317h-1108zM651 1595q-91 35 -127 35q-68 0 -86 -74h-170q6 129 70.5 199t175.5 70q84 0 199 -47q84 -35 125 -35q73 0 88 69h170q-6 -126 -71.5 -197t-172.5 -71q-84 0 -201 51z" />
    <glyph glyph-name="uni1EBD" unicode="&#x1ebd;" horiz-adv-x="1318" 
d="M47 541q-2 120 45.5 229t129.5 187.5t197.5 123.5t242.5 43q174 0 314 -76.5t218 -210t78 -296.5v-105h-875q8 -93 83 -144.5t204 -51.5q168 0 328 151l196 -225q-114 -105 -243 -155t-293 -50q-284 0 -454.5 158.5t-170.5 421.5zM399 670h529q-10 88 -79.5 137
t-182.5 49q-109 0 -183 -51t-84 -135zM631 1286q-91 35 -127 35q-68 0 -86 -74h-170q6 129 70.5 199t175.5 70q80 0 198 -48q81 -34 125 -34q73 0 88 69h170q-6 -126 -71.5 -197t-172.5 -71q-83 0 -200 51z" />
    <glyph glyph-name="uni1EC6" unicode="&#x1ec6;" horiz-adv-x="1312" 
d="M129 0v1434h1106v-318h-741v-244h671v-292h-671v-263h743v-317h-1108zM1016 1665l-166 -149l-168 180l-168 -180l-166 149l162 164h344zM543 -381v281h282v-281h-282z" />
    <glyph glyph-name="uni1EC7" unicode="&#x1ec7;" horiz-adv-x="1318" 
d="M47 541q-2 120 45.5 229t129.5 187.5t197.5 123.5t242.5 43q174 0 314 -76.5t218 -210t78 -296.5v-105h-875q8 -93 83 -144.5t204 -51.5q168 0 328 151l196 -225q-114 -105 -243 -155t-293 -50q-284 0 -454.5 158.5t-170.5 421.5zM399 670h529q-10 88 -79.5 137
t-182.5 49q-109 0 -183 -51t-84 -135zM995 1356l-166 -150l-167 180l-168 -180l-166 150l161 164h345zM530 -420v281h283v-281h-283z" />
    <glyph glyph-name="uni1ECA" unicode="&#x1eca;" horiz-adv-x="622" 
d="M129 0v1434h365v-1434h-365zM170 -381v281h283v-281h-283z" />
    <glyph glyph-name="uni1ECB" unicode="&#x1ecb;" horiz-adv-x="530" 
d="M88 0v1085h354v-1085h-354zM88 1253v332h354v-332h-354zM125 -381v281h283v-281h-283z" />
    <glyph glyph-name="uni1ECC" unicode="&#x1ecc;" horiz-adv-x="1626" 
d="M47 717q-2 161 56 302.5t159.5 241.5t245 157t305.5 55q162 2 305.5 -55t245 -157t159.5 -241.5t56 -302.5q2 -161 -56 -302.5t-159.5 -241.5t-245 -157t-305.5 -55q-162 -2 -305.5 55t-245 157t-159.5 241.5t-56 302.5zM1214 717q0 198 -110 317q-107 119 -291 119
q-183 0 -293 -119q-108 -120 -108 -317q0 -195 110.5 -315.5t290.5 -120.5q185 0 291 118q110 119 110 318zM672 -420v281h282v-281h-282z" />
    <glyph glyph-name="uni1ECD" unicode="&#x1ecd;" horiz-adv-x="1355" 
d="M47 543q-2 122 46 230.5t132.5 186t202.5 122t250 42.5q132 2 250 -42.5t202.5 -122t132.5 -186t46 -230.5q3 -162 -79.5 -297t-229 -211.5t-322.5 -73.5q-176 -3 -322.5 73.5t-229 211.5t-79.5 297zM954 543q0 119 -76 195.5t-200 76.5t-200.5 -75t-76.5 -197
q0 -119 76.5 -196t200.5 -77q123 0 199.5 76.5t76.5 196.5zM537 -420v281h282v-281h-282z" />
    <glyph glyph-name="uni1ED8" unicode="&#x1ed8;" horiz-adv-x="1626" 
d="M47 717q-2 161 56 302.5t159.5 241.5t245 157t305.5 55q162 2 305.5 -55t245 -157t159.5 -241.5t56 -302.5q2 -161 -56 -302.5t-159.5 -241.5t-245 -157t-305.5 -55q-162 -2 -305.5 55t-245 157t-159.5 241.5t-56 302.5zM1214 717q0 198 -110 317q-107 119 -291 119
q-183 0 -293 -119q-108 -120 -108 -317q0 -195 110.5 -315.5t290.5 -120.5q185 0 291 118q110 119 110 318zM1147 1704l-166 -150l-168 181l-168 -181l-166 150l162 164h344zM672 -420v281h282v-281h-282z" />
    <glyph glyph-name="uni1ED9" unicode="&#x1ed9;" horiz-adv-x="1355" 
d="M47 543q-2 122 46 230.5t132.5 186t202.5 122t250 42.5q132 2 250 -42.5t202.5 -122t132.5 -186t46 -230.5q3 -162 -79.5 -297t-229 -211.5t-322.5 -73.5q-176 -3 -322.5 73.5t-229 211.5t-79.5 297zM954 543q0 119 -76 195.5t-200 76.5t-200.5 -75t-76.5 -197
q0 -119 76.5 -196t200.5 -77q123 0 199.5 76.5t76.5 196.5zM1012 1356l-166 -150l-168 180l-168 -180l-166 150l162 164h344zM537 -420v281h282v-281h-282z" />
    <glyph glyph-name="uni1EE4" unicode="&#x1ee4;" horiz-adv-x="1574" 
d="M119 553v881h364v-854q0 -153 75 -226t230 -73q153 0 228.5 73t75.5 226v854h364v-881q0 -284 -174.5 -438t-493.5 -154t-494 154t-175 438zM647 -420v281h283v-281h-283z" />
    <glyph glyph-name="uni1EE5" unicode="&#x1ee5;" horiz-adv-x="1366" 
d="M76 457v628h354v-553q0 -125 58 -185t180 -60q115 0 185.5 67.5t70.5 177.5v553h354v-1085h-344v104h-4q-129 -135 -357 -135q-230 0 -364 131q-133 133 -133 357zM463 -412v281h282v-281h-282z" />
    <glyph glyph-name="Ygrave" unicode="&#x1ef2;" horiz-adv-x="1519" 
d="M578 0v559l-607 875h422l365 -564h4l362 564h422l-604 -875v-559h-364zM653 1556l-295 297h351l221 -297h-277z" />
    <glyph glyph-name="ygrave" unicode="&#x1ef3;" horiz-adv-x="1398" 
d="M258 -461l250 512l-512 1034h395l309 -682h5l307 682h393l-756 -1546h-391zM594 1208l-295 297h350l221 -297h-276z" />
    <glyph glyph-name="uni1EF4" unicode="&#x1ef4;" horiz-adv-x="1519" 
d="M578 0v559l-607 875h422l365 -564h4l362 564h422l-604 -875v-559h-364zM618 -381v281h283v-281h-283z" />
    <glyph glyph-name="uni1EF5" unicode="&#x1ef5;" horiz-adv-x="1398" 
d="M258 -461l250 512l-512 1034h395l309 -682h5l307 682h393l-756 -1546h-391zM930 -381v281h282v-281h-282z" />
    <glyph glyph-name="uni1EF8" unicode="&#x1ef8;" horiz-adv-x="1519" 
d="M578 0v559l-607 875h422l365 -564h4l362 564h422l-604 -875v-559h-364zM729 1595q-91 35 -127 35q-68 0 -86 -74h-170q6 129 70.5 199t175.5 70q84 0 199 -47q84 -35 124 -35q74 0 89 69h170q-6 -126 -71.5 -197t-172.5 -71q-84 0 -201 51z" />
    <glyph glyph-name="uni1EF9" unicode="&#x1ef9;" horiz-adv-x="1398" 
d="M258 -461l250 512l-512 1034h395l309 -682h5l307 682h393l-756 -1546h-391zM670 1247q-91 35 -127 35q-68 0 -86 -74h-170q6 129 70 199t175 70q84 0 199 -47q84 -35 125 -35q73 0 88 69h170q-6 -126 -71.5 -197t-172.5 -71q-83 0 -200 51z" />
    <glyph glyph-name="uni2002" unicode="&#x2002;" horiz-adv-x="1536" 
 />
    <glyph glyph-name="uni2003" unicode="&#x2003;" horiz-adv-x="2048" 
 />
    <glyph glyph-name="uni2004" unicode="&#x2004;" horiz-adv-x="716" 
 />
    <glyph glyph-name="uni2005" unicode="&#x2005;" horiz-adv-x="512" 
 />
    <glyph glyph-name="uni2007" unicode="&#x2007;" 
 />
    <glyph glyph-name="uni2008" unicode="&#x2008;" horiz-adv-x="686" 
 />
    <glyph glyph-name="uni2009" unicode="&#x2009;" horiz-adv-x="307" 
 />
    <glyph glyph-name="uni200A" unicode="&#x200a;" horiz-adv-x="153" 
 />
    <glyph glyph-name="uni200B" unicode="&#x200b;" horiz-adv-x="0" 
 />
    <glyph glyph-name="endash" unicode="&#x2013;" horiz-adv-x="1153" 
d="M68 449v296h1017v-296h-1017z" />
    <glyph glyph-name="emdash" unicode="&#x2014;" horiz-adv-x="1736" 
d="M68 449v296h1601v-296h-1601z" />
    <glyph glyph-name="quoteleft" unicode="&#x2018;" horiz-adv-x="595" 
d="M475 1434v-174q-72 -17 -98.5 -50.5t-26.5 -105.5h137v-348h-378v297q0 171 93.5 269.5t272.5 111.5z" />
    <glyph glyph-name="quoteright" unicode="&#x2019;" horiz-adv-x="595" 
d="M121 756v174q72 17 98.5 50t26.5 105h-137v349h378v-297q0 -171 -93.5 -269.5t-272.5 -111.5z" />
    <glyph glyph-name="quotesinglbase" unicode="&#x201a;" horiz-adv-x="677" 
d="M162 -330v174q72 17 98.5 50.5t26.5 105.5h-137v348h378v-297q0 -171 -93.5 -269.5t-272.5 -111.5z" />
    <glyph glyph-name="quotedblleft" unicode="&#x201c;" horiz-adv-x="1183" 
d="M516 1434v-174q-72 -17 -98.5 -50.5t-26.5 -105.5h137v-348h-378v297q0 171 93.5 269.5t272.5 111.5zM1022 1434v-174q-72 -17 -98.5 -50.5t-26.5 -105.5h137v-348h-379v297q0 171 94 269.5t273 111.5z" />
    <glyph glyph-name="quotedblright" unicode="&#x201d;" horiz-adv-x="1183" 
d="M162 756v174q72 17 98.5 50t26.5 105h-137v349h378v-297q0 -171 -93.5 -269.5t-272.5 -111.5zM668 756v174q72 17 98.5 50t26.5 105h-138v349h379v-297q0 -171 -93.5 -269.5t-272.5 -111.5z" />
    <glyph glyph-name="quotedblbase" unicode="&#x201e;" horiz-adv-x="1183" 
d="M162 -330v174q72 17 98.5 50.5t26.5 105.5h-137v348h378v-297q0 -171 -93.5 -269.5t-272.5 -111.5zM668 -330v174q72 17 98.5 50.5t26.5 105.5h-138v348h379v-297q0 -171 -93.5 -269.5t-272.5 -111.5z" />
    <glyph glyph-name="dagger" unicode="&#x2020;" horiz-adv-x="1396" 
d="M520 -401v1161h-452v325h452v469h354v-469h455v-325h-455v-1161h-354z" />
    <glyph glyph-name="daggerdbl" unicode="&#x2021;" horiz-adv-x="1396" 
d="M520 -401v444h-452v326h452v391h-452v325h452v469h354v-469h455v-325h-455v-391h455v-326h-455v-444h-354z" />
    <glyph glyph-name="bullet" unicode="&#x2022;" horiz-adv-x="856" 
d="M150 743q0 124 77 203.5t201 79.5t201.5 -79.5t77.5 -203.5t-77.5 -203t-201.5 -79t-201 79t-77 203z" />
    <glyph glyph-name="ellipsis" unicode="&#x2026;" horiz-adv-x="1865" 
d="M739 2v377h387v-377h-387zM150 0v377h387v-377h-387zM1329 2v377h387v-377h-387z" />
    <glyph glyph-name="perthousand" unicode="&#x2030;" horiz-adv-x="3291" 
d="M795 -197l-252 144l1024 1673l258 -141zM88 1004q0 195 122.5 321.5t311.5 126.5t311.5 -126.5t122.5 -321.5t-122.5 -322t-311.5 -127t-311.5 127t-122.5 322zM684 1004q0 97 -42 150.5t-120 53.5q-77 0 -119.5 -54.5t-42.5 -149.5t42.5 -150t119.5 -55q78 0 120 54
t42 151zM1393 430q0 195 122.5 322t311.5 127q190 0 312 -127t122 -322t-122 -321.5t-312 -126.5q-189 0 -311.5 126.5t-122.5 321.5zM2335 430q0 195 122.5 322t311.5 127q190 0 312 -127t122 -322t-122 -321.5t-312 -126.5q-189 0 -311.5 126.5t-122.5 321.5zM1989 430
q0 97 -42 151t-120 54q-77 0 -118.5 -53.5t-41.5 -151.5t41.5 -151.5t118.5 -53.5q78 0 120 54t42 151zM2931 430q0 97 -42 151t-120 54q-77 0 -118.5 -53.5t-41.5 -151.5t41.5 -151.5t118.5 -53.5q78 0 120 54t42 151z" />
    <glyph glyph-name="guilsinglleft" unicode="&#x2039;" horiz-adv-x="722" 
d="M338 162l-229 399l229 397h297l-240 -397l240 -399h-297z" />
    <glyph glyph-name="guilsinglright" unicode="&#x203a;" horiz-adv-x="722" 
d="M385 162h-297l240 399l-240 397h297l229 -397z" />
    <glyph glyph-name="fraction" unicode="&#x2044;" horiz-adv-x="454" 
d="M-172 -178l-211 121l1010 1661l211 -123z" />
    <glyph glyph-name="uni207A" unicode="&#x207a;" horiz-adv-x="866" 
d="M778 524v-192h-241v-266h-205v266h-244v192h244v256h205v-256h241z" />
    <glyph glyph-name="uni207B" unicode="&#x207b;" horiz-adv-x="770" 
d="M88 332v192h594v-192h-594z" />
    <glyph glyph-name="lira" unicode="&#x20a4;" horiz-adv-x="1437" 
d="M1047 756h364q3 -216 -96.5 -390.5t-276 -271t-393.5 -94.5h-364v586l-160 -58l-74 207l234 84v111l-160 -58l-74 207l234 84v271h364v-138l303 109l76 -205l-379 -137v-111l303 109l76 -205l-379 -137v-402q184 0 291 119q111 120 111 320z" />
    <glyph glyph-name="uni20A8" unicode="&#x20a8;" horiz-adv-x="1333" 
d="M1286 1237h-278v-4q76 -76 100 -184h178v-189h-176q-23 -130 -108 -222t-216 -130v-4l336 -504h-405l-301 475h-328v293h465q149 0 199 92h-664v189h666q-41 92 -201 92h-465v293h1198v-197z" />
    <glyph glyph-name="uni20A9" unicode="&#x20a9;" horiz-adv-x="2349" 
d="M2337 946h-205l-25 -102h230v-193h-279l-164 -651h-360l-246 651h-225l-248 -651h-360l-164 651h-277v193h228l-25 102h-203v195h154l-74 293h355l71 -293h410l106 293h279l106 -293h408l72 293h354l-74 -293h156v-195zM565 946l27 -102h229l37 102h-293zM1757 844
l27 102h-291l37 -102h227zM1135 844h79l-36 100h-4zM686 475l64 176h-113l43 -176h6zM1669 475l43 176h-110l63 -176h4z" />
    <glyph glyph-name="Euro" unicode="&#x20ac;" horiz-adv-x="1806" 
d="M1423 575l336 -83q-49 -244 -245.5 -386.5t-475.5 -142.5q-270 0 -471 133q-200 132 -280 359h-236v223h193v39q0 39 2 49h-195v223h240q80 222 278 350q198 131 469 131t466 -134.5t247 -362.5l-332 -92q-42 136 -139 208t-242 72q-116 0 -208.5 -45t-149.5 -127h414
v-223h-490q-2 -10 -2 -49q0 -31 2 -39h381v-223h-311q56 -87 150 -135t214 -48q150 0 250 78.5t135 224.5z" />
    <glyph glyph-name="uni20BD" unicode="&#x20bd;" horiz-adv-x="1630" 
d="M1563 940q0 -228 -149 -358.5t-392 -130.5h-406v-97h406v-198h-406v-156h-364v156h-205v198h205v97h-205v198h205v785h770q242 0 391.5 -133t149.5 -361zM1198 944q0 178 -203 178h-379v-362h375q91 0 149 48t58 136z" />
    <glyph glyph-name="uni2116" unicode="&#x2116;" horiz-adv-x="2566" 
d="M1634 1004q0 196 119 322t307 126q191 0 309.5 -126t118.5 -322q0 -197 -118.5 -323t-309.5 -126q-188 0 -307 126.5t-119 322.5zM129 0v1434h381l631 -912h4v912h364v-1434h-381l-630 913h-4v-913h-365zM2226 1004q0 97 -43.5 151.5t-122.5 54.5q-78 0 -121 -54.5
t-43 -151.5t43 -152t121 -55q79 0 122.5 55t43.5 152zM1634 188v277h854v-277h-854z" />
    <glyph glyph-name="uni2117" unicode="&#x2117;" horiz-adv-x="1406" 
d="M68 662q-3 173 79 318t229 229t326 81q133 2 252.5 -47t204.5 -133.5t133.5 -201.5t46.5 -246q2 -129 -46.5 -246.5t-133.5 -202t-204.5 -133.5t-252.5 -47q-179 -3 -326 81t-229 229.5t-79 318.5zM1167 662q0 199 -132.5 336t-332.5 137q-201 0 -331.5 -137t-130.5 -336
q0 -129 58 -237.5t164.5 -172.5t239.5 -64q132 0 239 64t166.5 172.5t59.5 237.5zM496 309v697h274q113 0 177.5 -65t64.5 -181q0 -115 -64.5 -178.5t-177.5 -63.5h-92v-209h-182zM678 672h65q47 0 65.5 19t18.5 69q0 47 -19.5 67.5t-62.5 20.5h-67v-176z" />
    <glyph glyph-name="trademark" unicode="&#x2122;" horiz-adv-x="1757" 
d="M250 739v475h-203v220h643v-220h-201v-475h-239zM782 739v695h267l186 -414h2l186 414h267v-695h-228v326h-2l-157 -326h-134l-155 326h-2v-326h-230z" />
    <glyph glyph-name="oneeighth" unicode="&#x215b;" horiz-adv-x="2000" 
d="M285 573v605l-258 -140v246l280 150h213v-861h-235zM473 -178l-211 121l1010 1661l211 -123zM1137 256q0 70 44 129.5t113 89.5v2q-45 24 -73.5 68t-28.5 94q0 106 100 172q103 68 258 68t258 -68t103 -172q0 -49 -29.5 -93.5t-73.5 -68.5v-2q68 -30 112 -89.5t44 -129.5
q0 -120 -112 -197t-302 -77q-187 0 -300 77.5t-113 196.5zM1688 625q0 38 -37 59t-101 21q-63 0 -99 -21t-36 -59t36 -60t99 -22t100.5 22t37.5 60zM1716 281q0 48 -42.5 75t-123.5 27q-79 0 -122.5 -27t-43.5 -75t43 -75.5t123 -27.5t123 27.5t43 75.5z" />
    <glyph glyph-name="threeeighths" unicode="&#x215c;" horiz-adv-x="2191" 
d="M27 844l221 57q19 -74 66.5 -113.5t115.5 -39.5q63 0 99 25t36 71q0 88 -123 88h-104v160h92q56 0 86.5 21t30.5 58q0 44 -34 68.5t-95 24.5q-66 0 -110 -34.5t-56 -92.5l-215 41q27 125 128 199.5t253 74.5q149 0 252 -74q100 -69 100 -186q0 -107 -96 -166v-2
q125 -61 125 -199q0 -119 -102 -194.5t-267 -75.5q-160 0 -270 79t-133 210zM664 -178l-211 121l1009 1661l211 -123zM1327 256q0 70 44.5 129.5t113.5 89.5v2q-45 24 -74 68t-29 94q0 105 101 172q103 68 258 68t258 -68q102 -68 102 -172q0 -50 -29 -94t-73 -68v-2
q68 -30 111.5 -89.5t43.5 -129.5q0 -120 -111.5 -197t-301.5 -77q-187 0 -300.5 77.5t-113.5 196.5zM1878 625q0 38 -36.5 59t-100.5 21q-63 0 -99 -21t-36 -59t36 -60t99 -22t100 22t37 60zM1907 281q0 48 -42.5 75t-123.5 27q-79 0 -122.5 -27t-43.5 -75t43 -75.5
t123 -27.5t123 27.5t43 75.5z" />
    <glyph glyph-name="fiveeighths" unicode="&#x215d;" horiz-adv-x="2236" 
d="M37 739l176 138q82 -115 236 -115q74 0 117.5 31.5t43.5 85.5q0 50 -44.5 81t-116.5 31q-120 0 -197 -71l-201 55l94 459h609v-193h-437l-26 -117l2 -2q79 39 188 39q161 0 262 -82t101 -211q0 -138 -113.5 -225.5t-281.5 -87.5q-133 0 -238 48t-174 136zM709 -178
l-211 121l1009 1661l211 -123zM1372 256q0 70 44.5 129.5t113.5 89.5v2q-45 24 -74 68t-29 94q0 105 101 172q103 68 258 68t258 -68q102 -68 102 -172q0 -50 -29 -94t-73 -68v-2q68 -30 112 -89.5t44 -129.5q0 -120 -112 -197t-302 -77q-187 0 -300.5 77.5t-113.5 196.5z
M1923 625q0 38 -36.5 59t-100.5 21q-63 0 -99 -21t-36 -59t36 -60t99 -22t100 22t37 60zM1952 281q0 48 -42.5 75t-123.5 27q-79 0 -122.5 -27t-43.5 -75t43 -75.5t123 -27.5t123 27.5t43 75.5z" />
    <glyph glyph-name="seveneighths" unicode="&#x215e;" horiz-adv-x="2007" 
d="M80 573l389 652v2h-469v207h752v-189l-392 -672h-280zM479 -178l-211 121l1010 1661l211 -123zM1143 256q0 70 44 129.5t113 89.5v2q-45 24 -73.5 68t-28.5 94q0 106 100 172q103 68 258 68q156 0 259 -68q102 -68 102 -172q0 -50 -29 -94t-73 -68v-2q68 -30 111.5 -89.5
t43.5 -129.5q0 -120 -112 -197t-302 -77q-187 0 -300 77.5t-113 196.5zM1694 625q0 38 -37 59t-101 21q-63 0 -99 -21t-36 -59t36 -60t99 -22t100.5 22t37.5 60zM1722 281q0 48 -42.5 75t-123.5 27q-79 0 -122 -27t-43 -75t42.5 -75.5t122.5 -27.5t123 27.5t43 75.5z" />
    <glyph glyph-name="arrowleft" unicode="&#x2190;" horiz-adv-x="1478" 
d="M1432 862v-313h-781l289 -254l-225 -223l-662 635l662 632l225 -223l-289 -254h781z" />
    <glyph glyph-name="arrowup" unicode="&#x2191;" horiz-adv-x="1366" 
d="M1319 743l-227 -229l-244 274v-761h-324v761l-243 -274l-228 229l633 664z" />
    <glyph glyph-name="arrowright" unicode="&#x2192;" horiz-adv-x="1478" 
d="M770 1339l662 -632l-662 -635l-225 223l289 254h-781v313h781l-289 254z" />
    <glyph glyph-name="arrowdown" unicode="&#x2193;" horiz-adv-x="1366" 
d="M1092 922l227 -230l-633 -663l-633 663l228 230l243 -275v762h324v-762z" />
    <glyph glyph-name="arrowboth" unicode="&#x2194;" horiz-adv-x="2064" 
d="M1356 1339l661 -632l-661 -635l-217 215l315 278h-838l316 -278l-217 -215l-662 635l662 632l217 -213l-316 -278h838l-315 278z" />
    <glyph glyph-name="arrowupdn" unicode="&#x2195;" horiz-adv-x="1368" 
d="M838 360l262 297l221 -225l-633 -661l-635 663l226 225l262 -299v713l-265 -299l-221 225l633 660l633 -662l-221 -225l-262 299v-711z" />
    <glyph glyph-name="uni2196" unicode="&#x2196;" horiz-adv-x="1185" 
d="M1139 393l-224 -223l-553 557l25 -389h-313l-21 915l916 -18l2 -315l-385 26z" />
    <glyph glyph-name="uni2197" unicode="&#x2197;" horiz-adv-x="1185" 
d="M53 393l553 553l-385 -26l2 315l916 18l-21 -915h-313l24 389l-553 -557z" />
    <glyph glyph-name="uni2198" unicode="&#x2198;" horiz-adv-x="1185" 
d="M53 1030l223 223l553 -557l-24 389h313l21 -915l-916 18l-2 316l385 -27z" />
    <glyph glyph-name="uni2199" unicode="&#x2199;" horiz-adv-x="1185" 
d="M1139 1042l-553 -553l385 27l-2 -315l-916 -19l21 916h313l-25 -389l553 557z" />
    <glyph glyph-name="uni21B3" unicode="&#x21b3;" horiz-adv-x="1599" 
d="M891 1339l661 -632l-661 -635l-225 223l288 254h-798v862h329v-549h469l-288 254z" />
    <glyph glyph-name="partialdiff" unicode="&#x2202;" horiz-adv-x="1187" 
d="M1141 834q0 -871 -582 -871q-240 0 -376 134.5t-136 371.5q0 264 131 414.5t363 150.5q123 0 235 -33q-17 151 -69.5 219t-147.5 68q-83 0 -162 -98l-225 225q95 101 194 150t214 49q260 0 410.5 -206.5t150.5 -573.5zM780 700q-88 33 -186 33q-91 0 -141 -65.5
t-50 -186.5q0 -190 156 -190q197 0 221 409z" />
    <glyph glyph-name="emptyset" unicode="&#x2205;" horiz-adv-x="1738" 
d="M1671 717q3 -159 -59 -300.5t-169.5 -242t-257 -158t-315.5 -55.5q-238 0 -430 107l-180 -203l-172 139l178 201q-95 101 -146.5 232.5t-51.5 279.5q-3 159 58.5 301t169 242.5t257.5 158t317 54.5q234 0 424 -105l183 207l178 -141l-182 -205q198 -204 198 -512z
M498 467l567 643q-84 37 -195 37q-198 0 -320 -118.5t-122 -311.5q0 -146 70 -250zM1311 717q0 146 -72 250l-569 -641q91 -39 200 -39q196 0 318.5 118t122.5 312z" />
    <glyph glyph-name="product" unicode="&#x220f;" horiz-adv-x="1665" 
d="M303 -289v1397h-266v326h1591v-326h-266v-1397h-356v1397h-347v-1397h-356z" />
    <glyph glyph-name="summation" unicode="&#x2211;" horiz-adv-x="1263" 
d="M98 -205v287l480 532l-480 533v287h1108v-326h-606l440 -494l-440 -493h606v-326h-1108z" />
    <glyph glyph-name="minus" unicode="&#x2212;" horiz-adv-x="1153" 
d="M88 602v270h977v-270h-977z" />
    <glyph glyph-name="radical" unicode="&#x221a;" horiz-adv-x="1505" 
d="M1102 1434h401l-585 -1434h-351l-241 586h-320v325h569l160 -442h4z" />
    <glyph glyph-name="infinity" unicode="&#x221e;" horiz-adv-x="1425" 
d="M88 621q0 183 102 302t259 119q74 0 147.5 -39t116.5 -102q43 63 116.5 102t147.5 39q157 0 258.5 -119t101.5 -302t-101.5 -302.5t-258.5 -119.5q-74 0 -147.5 39t-116.5 102q-43 -63 -116.5 -102t-147.5 -39q-157 0 -259 119.5t-102 302.5zM623 621q-41 157 -150 157
q-57 0 -90 -42t-33 -115t33 -115.5t90 -42.5q109 0 150 158zM1073 621q0 73 -32.5 115t-88.5 42q-107 0 -151 -157q41 -158 151 -158q56 0 88.5 42.5t32.5 115.5z" />
    <glyph glyph-name="integral" unicode="&#x222b;" horiz-adv-x="972" 
d="M88 -492v324q121 1 168 48.5t47 166.5v938q0 158 28.5 259t98 165.5t178 90.5t277.5 26v-324q-128 -5 -175.5 -51t-47.5 -164v-938q-2 -106 -14 -184t-40.5 -139.5t-70.5 -101t-107 -65.5t-147.5 -37.5t-194.5 -13.5z" />
    <glyph glyph-name="approxequal" unicode="&#x2248;" horiz-adv-x="1409" 
d="M367 764l-279 115q99 344 393 344q64 0 125 -22t152 -71q106 -57 151 -57q81 0 133 150l279 -113q-102 -346 -395 -346q-63 0 -124 21.5t-151 70.5q-104 59 -151 59q-80 0 -133 -151zM367 231l-279 115q99 344 393 344q65 0 126 -21.5t151 -70.5q106 -57 151 -57
q81 0 133 149l279 -112q-102 -347 -395 -347q-63 0 -123.5 22t-151.5 71q-104 59 -151 59q-80 0 -133 -152z" />
    <glyph glyph-name="notequal" unicode="&#x2260;" horiz-adv-x="1150" 
d="M1063 782h-342l-90 -155h432v-273h-588l-141 -245l-150 88l90 157h-186v273h344l88 155h-432v273h590l141 245l148 -88l-90 -157h186v-273z" />
    <glyph glyph-name="lessequal" unicode="&#x2264;" horiz-adv-x="1140" 
d="M885 324l-797 444v193l797 444l139 -244l-569 -297l569 -295zM1053 0h-965v272h965v-272z" />
    <glyph glyph-name="greaterequal" unicode="&#x2265;" horiz-adv-x="1140" 
d="M256 324l-139 245l569 295l-569 297l139 244l797 -444v-193zM88 0v272h965v-272h-965z" />
    <glyph glyph-name="lozenge" unicode="&#x25ca;" horiz-adv-x="1484" 
d="M571 0l-483 717l483 717h344l482 -717l-482 -717h-344zM743 268l297 449l-297 448l-299 -448z" />
    <glyph glyph-name="uniF8FF" unicode="&#xf8ff;" horiz-adv-x="1404" 
d="M102 0v866q-3 115 46.5 226.5t132 193.5t193.5 131t226 47q116 2 228.5 -47t195.5 -131t132.5 -193.5t46.5 -226.5v-866h-58l-133 133l-139 -133l-129 133l-146 -133l-141 133l-129 -133l-137 133l-135 -133h-54zM588 772q0 62 -42.5 105t-103.5 43q-60 0 -102.5 -43.5
t-42.5 -104.5q0 -60 42.5 -101.5t102.5 -41.5t103 41.5t43 101.5zM1110 772q0 62 -43 105t-104 43q-60 0 -102 -43t-42 -105q0 -57 43.5 -100t100.5 -43q60 0 103.5 43t43.5 100z" />
    <glyph glyph-name="uniFEFF" unicode="&#xfeff;" horiz-adv-x="0" 
 />
    <glyph glyph-name="NULL" horiz-adv-x="0" 
 />
    <glyph glyph-name="T.ordn" horiz-adv-x="1441" 
d="M537 0v1159h-500v318h1368v-318h-504v-1159h-364z" />
    <glyph glyph-name="Tbar.ordn" horiz-adv-x="1441" 
d="M537 0v1159h-500v318h1368v-318h-504v-1159h-364zM276 584v268h893v-268h-893z" />
    <glyph glyph-name="Tcaron.ordn" horiz-adv-x="1441" 
d="M537 0v1159h-500v318h1368v-318h-504v-1159h-364zM891 1892l166 -147l-162 -166h-344l-162 166l166 147l168 -178z" />
    <glyph glyph-name="uni0162.ordn" horiz-adv-x="1441" 
d="M537 0v1159h-500v318h1368v-318h-504v-1159h-364zM1038 -287q0 -110 -78 -177.5t-206 -67.5q-151 0 -273 67l90 174q88 -49 160 -49q44 0 71 19t27 51q0 26 -25.5 42.5t-64.5 16.5q-61 0 -112 -39l-133 53l153 254l146 -43l-58 -84q50 4 58 4q110 0 177.5 -60.5
t67.5 -160.5z" />
    <glyph glyph-name="uni021A.ordn" horiz-adv-x="1441" 
d="M537 0v1159h-500v318h1368v-318h-504v-1159h-364zM584 -627v135q56 12 77 38.5t21 82.5h-107v271h295v-232q0 -132 -73 -208.5t-213 -86.5z" />
    <glyph glyph-name="uni1E6C.ordn" horiz-adv-x="1441" 
d="M537 0v1159h-500v318h1368v-318h-504v-1159h-364zM582 -381v281h282v-281h-282z" />
    <glyph glyph-name="i.locl" horiz-adv-x="530" 
d="M88 0v1085h354v-1085h-354zM88 1253v332h354v-332h-354z" />
    <glyph glyph-name="A.ordn" horiz-adv-x="614" 
d="M14 1026q0 72 58.5 114.5t193.5 67.5q67 12 92 23.5t25 30.5t-21.5 30t-58.5 11q-45 0 -77.5 -23t-39.5 -61l-172 36q17 86 97.5 139.5t191.5 53.5q121 0 194.5 -61.5t73.5 -161.5v-357h-168v54h-2q-55 -68 -176 -68q-98 0 -154.5 46t-56.5 126zM393 1090v45h-2
q-12 -21 -92 -39q-59 -12 -81.5 -24.5t-22.5 -33.5q0 -39 65 -39q55 0 94 27t39 64z" />
    <glyph glyph-name="B.ccmp" horiz-adv-x="722" 
d="M709 1151q0 -129 -83.5 -213t-213.5 -84q-113 0 -172 59h-2v-45h-193v779h207v-246h2q59 47 158 47q130 0 213.5 -84t83.5 -213zM502 1151q0 56 -35 88.5t-96 32.5q-51 0 -85 -27.5t-34 -68.5v-48q0 -41 34 -69.5t85 -28.5q61 0 96 32.5t35 88.5z" />
    <glyph glyph-name="C.ccmp" horiz-adv-x="655" 
d="M14 1151q0 131 91 214t233 83q115 0 200 -58.5t105 -152.5l-190 -47q-21 82 -115 82q-54 0 -86.5 -33t-32.5 -88q0 -54 32.5 -87.5t86.5 -33.5q94 0 115 82l190 -47q-20 -94 -105 -152.5t-200 -58.5q-142 0 -233 83t-91 214z" />
    <glyph glyph-name="D.ccmp" horiz-adv-x="722" 
d="M469 1401h2v246h207v-779h-193v45h-2q-59 -59 -172 -59q-130 0 -213.5 84t-83.5 213t83.5 213t213.5 84q99 0 158 -47zM471 1128v48q0 41 -34 68.5t-85 27.5q-61 0 -96 -32.5t-35 -88.5t35 -88.5t96 -32.5q51 0 85 28.5t34 69.5z" />
    <glyph glyph-name="E.ccmp" horiz-adv-x="667" 
d="M653 1151v-64h-436q11 -37 46.5 -59t90.5 -22q87 0 185 67l88 -131q-116 -88 -279 -88q-150 0 -242 81.5t-92 215.5q0 130 90.5 213.5t231.5 83.5q138 0 227.5 -85.5t89.5 -211.5zM215 1208h242q-6 43 -38 66.5t-83 23.5t-83.5 -24.5t-37.5 -65.5z" />
    <glyph glyph-name="F.ccmp" horiz-adv-x="518" 
d="M123 868v392h-123v174h123v55q0 94 55.5 143t159.5 49h137v-168h-106q-39 0 -39 -38v-41h188v-174h-188v-392h-207z" />
    <glyph glyph-name="G.ccmp" horiz-adv-x="733" 
d="M47 731l125 121q79 -82 182 -82q63 0 102.5 35.5t39.5 89.5v25h-2q-60 -54 -168 -54q-139 0 -225.5 80t-86.5 209t84 211t217 82q114 0 181 -57h2v43h190v-523q0 -140 -90 -222.5t-242 -82.5q-190 0 -309 125zM481 1133v49q0 41 -37.5 69.5t-91.5 28.5q-61 0 -97 -33.5
t-36 -89.5q0 -57 35.5 -90t97.5 -33q57 0 93 28t36 71z" />
    <glyph glyph-name="H.ccmp" horiz-adv-x="751" 
d="M45 868v779h205v-258h4q71 59 186 59q128 0 203.5 -70t75.5 -192v-318h-207v281q0 57 -34 88t-97 31q-61 0 -96 -31.5t-35 -87.5v-281h-205z" />
    <glyph glyph-name="I.ordn" horiz-adv-x="294" 
d="M49 1530v188h199v-188h-199zM45 868v566h205v-566h-205z" />
    <glyph glyph-name="J.ordn" horiz-adv-x="301" 
d="M53 1530v188h199v-188h-199zM-102 606v197h96q57 0 57 51v580h207v-598q0 -118 -58.5 -174t-183.5 -56h-118z" />
    <glyph glyph-name="K.ccmp" horiz-adv-x="718" 
d="M45 868v779h205v-394h2l201 181h274l-260 -222l270 -344h-243l-164 224h-2l-78 -66v-158h-205z" />
    <glyph glyph-name="L.ccmp" horiz-adv-x="294" 
d="M45 868v779h205v-779h-205z" />
    <glyph glyph-name="M.ccmp" horiz-adv-x="1128" 
d="M45 868v566h197v-58h2q30 33 77.5 52.5t100.5 19.5q128 0 194 -76h2q31 35 84.5 55.5t116.5 20.5q124 0 200.5 -65t76.5 -171v-344h-207v306q0 44 -30 71t-81 27t-81.5 -27t-30.5 -71v-306h-193v306q0 44 -30 71t-81 27t-81.5 -27t-30.5 -71v-306h-205z" />
    <glyph glyph-name="N.ccmp" horiz-adv-x="751" 
d="M45 868v566h195v-56h2q70 70 198 70t203.5 -71t75.5 -193v-316h-207v281q0 60 -34 91.5t-97 31.5q-60 0 -95.5 -33.5t-35.5 -89.5v-281h-205z" />
    <glyph glyph-name="O.ordn" horiz-adv-x="690" 
d="M14 1151q0 129 94 213t236 84q143 0 237.5 -84t94.5 -213t-94.5 -213t-237.5 -84q-142 0 -236 84t-94 213zM471 1151q0 55 -35 88t-92 33q-56 0 -90.5 -33t-34.5 -88q0 -54 34.5 -87.5t90.5 -33.5q57 0 92 33.5t35 87.5z" />
    <glyph glyph-name="P.ccmp" horiz-adv-x="724" 
d="M713 1151q0 -130 -86 -213q-84 -84 -215 -84q-95 0 -160 47h-2v-280h-205v813h195v-41h2q61 55 170 55q131 0 215 -84q86 -83 86 -213zM506 1151q0 56 -35 88.5t-98 32.5q-54 0 -88.5 -27.5t-34.5 -68.5v-48q0 -42 35 -70t88 -28q63 0 98 32.5t35 88.5z" />
    <glyph glyph-name="Q.ccmp" horiz-adv-x="724" 
d="M483 1393h2v41h195v-813h-205v280h-2q-65 -47 -160 -47q-130 0 -217 84q-84 84 -84 213t84 213q87 84 217 84q109 0 170 -55zM475 1128v48q0 41 -34.5 68.5t-88.5 27.5q-63 0 -98 -32.5t-35 -88.5t35 -88.5t98 -32.5q53 0 88 28t35 70z" />
    <glyph glyph-name="R.ccmp" horiz-adv-x="503" 
d="M520 1425l-43 -182q-60 12 -82 12q-74 0 -109.5 -42.5t-35.5 -133.5v-211h-205v566h191v-56h2q57 66 165 66q52 0 117 -19z" />
    <glyph glyph-name="S.ccmp" horiz-adv-x="686" 
d="M37 1032l170 62q38 -97 160 -97q45 0 71.5 10t26.5 27q0 20 -30 33t-105 25q-143 25 -207 67t-64 111q0 78 77 128t198 50q112 0 192 -45t109 -123l-170 -47q-30 76 -131 76q-82 0 -82 -37q0 -26 123 -47q148 -29 212 -72.5t64 -112.5q0 -86 -77 -136t-207 -50
q-128 0 -216 48t-114 130z" />
    <glyph glyph-name="T.ccmp" horiz-adv-x="495" 
d="M496 1264h-179v-168q0 -23 10.5 -31t37.5 -8h108v-189h-133q-120 0 -174.5 49.5t-54.5 163.5v183h-111v170h111v147h206v-147h179v-170z" />
    <glyph glyph-name="U.ccmp" horiz-adv-x="731" 
d="M481 1434h207v-566h-194v56h-2q-70 -70 -191 -70q-128 0 -197 73t-69 208v299h205v-287q0 -117 120 -117q57 0 89 32t32 89v283z" />
    <glyph glyph-name="V.ccmp" horiz-adv-x="747" 
d="M281 868l-277 566h238l131 -318h2l133 318h237l-280 -566h-184z" />
    <glyph glyph-name="W.ccmp" horiz-adv-x="1075" 
d="M174 868l-170 566h225l80 -304h2l133 304h189l133 -304h2l80 304h225l-172 -566h-217l-145 340h-2l-146 -340h-217z" />
    <glyph glyph-name="X.ccmp" horiz-adv-x="755" 
d="M4 868l242 283l-240 283h252l117 -152h2l112 152h252l-235 -275l248 -291h-254l-121 156h-2l-121 -156h-252z" />
    <glyph glyph-name="Y.ccmp" horiz-adv-x="731" 
d="M518 1434h211l-401 -813h-213l149 297l-260 516h213l148 -324h2z" />
    <glyph glyph-name="Z.ccmp" horiz-adv-x="651" 
d="M4 868v146l338 250v2h-330v168h629v-146l-340 -250v-2h346v-168h-643z" />
    <glyph glyph-name="a.salt" horiz-adv-x="1349" 
d="M911 1085h344v-1085h-344v96h-4q-50 -56 -133 -88.5t-180 -32.5q-236 0 -391.5 161t-155.5 407q0 247 155 407t392 160q91 0 174 -29.5t139 -81.5h4v86zM901 483v125q0 85 -68.5 143t-170.5 58q-122 0 -191.5 -70.5t-69.5 -193.5q0 -118 71 -189t190 -71q103 0 171 56.5
t68 141.5z" />
    <glyph glyph-name="aacute.salt" horiz-adv-x="1349" 
d="M911 1085h344v-1085h-344v96h-4q-50 -56 -133 -88.5t-180 -32.5q-236 0 -391.5 161t-155.5 407q0 247 155 407t392 160q91 0 174 -29.5t139 -81.5h4v86zM901 483v125q0 85 -68.5 143t-170.5 58q-122 0 -191.5 -70.5t-69.5 -193.5q0 -118 71 -189t190 -71q103 0 171 56.5
t68 141.5zM502 1233l221 297h350l-293 -297h-278z" />
    <glyph glyph-name="abreve.salt" horiz-adv-x="1349" 
d="M911 1085h344v-1085h-344v96h-4q-50 -56 -133 -88.5t-180 -32.5q-236 0 -391.5 161t-155.5 407q0 247 155 407t392 160q91 0 174 -29.5t139 -81.5h4v86zM901 483v125q0 85 -68.5 143t-170.5 58q-122 0 -191.5 -70.5t-69.5 -193.5q0 -118 71 -189t190 -71q103 0 171 56.5
t68 141.5zM326 1511h180q17 -44 64.5 -70t113.5 -26t113.5 26t60.5 70h182q-20 -140 -114.5 -219.5t-241.5 -79.5q-149 0 -243.5 79.5t-114.5 219.5z" />
    <glyph glyph-name="uni01CE.salt" horiz-adv-x="1349" 
d="M911 1085h344v-1085h-344v96h-4q-50 -56 -133 -88.5t-180 -32.5q-236 0 -391.5 161t-155.5 407q0 247 155 407t392 160q91 0 174 -29.5t139 -81.5h4v86zM901 483v125q0 85 -68.5 143t-170.5 58q-122 0 -191.5 -70.5t-69.5 -193.5q0 -118 71 -189t190 -71q103 0 171 56.5
t68 141.5zM850 1526l166 -148l-162 -166h-344l-162 166l166 148l168 -178z" />
    <glyph glyph-name="acircumflex.salt" horiz-adv-x="1349" 
d="M911 1085h344v-1085h-344v96h-4q-50 -56 -133 -88.5t-180 -32.5q-236 0 -391.5 161t-155.5 407q0 247 155 407t392 160q91 0 174 -29.5t139 -81.5h4v86zM901 483v125q0 85 -68.5 143t-170.5 58q-122 0 -191.5 -70.5t-69.5 -193.5q0 -118 71 -189t190 -71q103 0 171 56.5
t68 141.5zM1016 1341l-166 -149l-168 180l-168 -180l-166 149l162 164h344z" />
    <glyph glyph-name="uni1EAD.salt" horiz-adv-x="1349" 
d="M911 1085h344v-1085h-344v96h-4q-50 -56 -133 -88.5t-180 -32.5q-236 0 -391.5 161t-155.5 407q0 247 155 407t392 160q91 0 174 -29.5t139 -81.5h4v86zM901 483v125q0 85 -68.5 143t-170.5 58q-122 0 -191.5 -70.5t-69.5 -193.5q0 -118 71 -189t190 -71q103 0 171 56.5
t68 141.5zM1016 1341l-166 -149l-168 180l-168 -180l-166 149l162 164h344zM541 -406v281h282v-281h-282z" />
    <glyph glyph-name="adieresis.salt" horiz-adv-x="1349" 
d="M911 1085h344v-1085h-344v96h-4q-50 -56 -133 -88.5t-180 -32.5q-236 0 -391.5 161t-155.5 407q0 247 155 407t392 160q91 0 174 -29.5t139 -81.5h4v86zM901 483v125q0 85 -68.5 143t-170.5 58q-122 0 -191.5 -70.5t-69.5 -193.5q0 -118 71 -189t190 -71q103 0 171 56.5
t68 141.5zM307 1212v283h285v-283h-285zM770 1212v283h285v-283h-285z" />
    <glyph glyph-name="uni01DF.salt" horiz-adv-x="1349" 
d="M911 1085h344v-1085h-344v96h-4q-50 -56 -133 -88.5t-180 -32.5q-236 0 -391.5 161t-155.5 407q0 247 155 407t392 160q91 0 174 -29.5t139 -81.5h4v86zM901 483v125q0 85 -68.5 143t-170.5 58q-122 0 -191.5 -70.5t-69.5 -193.5q0 -118 71 -189t190 -71q103 0 171 56.5
t68 141.5zM307 1212v283h285v-283h-285zM770 1212v283h285v-283h-285zM305 1577v203h750v-203h-750z" />
    <glyph glyph-name="uni1EA1.salt" horiz-adv-x="1349" 
d="M911 1085h344v-1085h-344v96h-4q-50 -56 -133 -88.5t-180 -32.5q-236 0 -391.5 161t-155.5 407q0 247 155 407t392 160q91 0 174 -29.5t139 -81.5h4v86zM901 483v125q0 85 -68.5 143t-170.5 58q-122 0 -191.5 -70.5t-69.5 -193.5q0 -118 71 -189t190 -71q103 0 171 56.5
t68 141.5zM541 -406v281h282v-281h-282z" />
    <glyph glyph-name="agrave.salt" horiz-adv-x="1349" 
d="M911 1085h344v-1085h-344v96h-4q-50 -56 -133 -88.5t-180 -32.5q-236 0 -391.5 161t-155.5 407q0 247 155 407t392 160q91 0 174 -29.5t139 -81.5h4v86zM901 483v125q0 85 -68.5 143t-170.5 58q-122 0 -191.5 -70.5t-69.5 -193.5q0 -118 71 -189t190 -71q103 0 171 56.5
t68 141.5zM575 1233l-294 297h350l221 -297h-277z" />
    <glyph glyph-name="amacron.salt" horiz-adv-x="1349" 
d="M911 1085h344v-1085h-344v96h-4q-50 -56 -133 -88.5t-180 -32.5q-236 0 -391.5 161t-155.5 407q0 247 155 407t392 160q91 0 174 -29.5t139 -81.5h4v86zM901 483v125q0 85 -68.5 143t-170.5 58q-122 0 -191.5 -70.5t-69.5 -193.5q0 -118 71 -189t190 -71q103 0 171 56.5
t68 141.5zM305 1233v203h750v-203h-750z" />
    <glyph glyph-name="aogonek.salt" horiz-adv-x="1349" 
d="M911 1085h344v-1085h-344v96h-4q-50 -56 -133 -88.5t-180 -32.5q-236 0 -391.5 161t-155.5 407q0 247 155 407t392 160q91 0 174 -29.5t139 -81.5h4v86zM901 483v125q0 85 -68.5 143t-170.5 58q-122 0 -191.5 -70.5t-69.5 -193.5q0 -118 71 -189t190 -71q103 0 171 56.5
t68 141.5zM838 -254q0 164 221 285l139 -31q-139 -103 -139 -182q0 -51 53 -51q57 0 111 32l77 -190q-109 -53 -227 -53q-111 0 -173 49.5t-62 140.5z" />
    <glyph glyph-name="aring.salt" horiz-adv-x="1363" 
d="M313 1430q0 113 84 188q85 76 215 76q131 0 213 -76q86 -74 86 -188q0 -112 -86 -189q-83 -74 -213 -74q-129 0 -215 74q-84 78 -84 189zM735 1430q0 54 -34 88t-89 34q-54 0 -89.5 -34t-35.5 -88t35.5 -87.5t89.5 -33.5q55 0 89 33.5t34 87.5zM911 1085h344v-1085h-344
v96h-4q-50 -56 -133 -88.5t-180 -32.5q-236 0 -391.5 161t-155.5 407q0 247 155 407t392 160q91 0 174 -29.5t139 -81.5h4v86zM901 483v125q0 85 -68.5 143t-170.5 58q-122 0 -191.5 -70.5t-69.5 -193.5q0 -118 71 -189t190 -71q103 0 171 56.5t68 141.5z" />
    <glyph glyph-name="aringacute.salt" horiz-adv-x="1343" 
d="M313 1430q0 92 55 159t148 92l186 250h351l-275 -278q62 -36 97.5 -94t35.5 -129q0 -112 -86 -189q-83 -74 -213 -74q-129 0 -215 74q-84 78 -84 189zM735 1430q0 54 -34 88t-89 34q-54 0 -89.5 -34t-35.5 -88t35.5 -87.5t89.5 -33.5q55 0 89 33.5t34 87.5zM911 1085h344
v-1085h-344v96h-4q-50 -56 -133 -88.5t-180 -32.5q-236 0 -391.5 161t-155.5 407q0 247 155 407t392 160q91 0 174 -29.5t139 -81.5h4v86zM901 483v125q0 85 -68.5 143t-170.5 58q-122 0 -191.5 -70.5t-69.5 -193.5q0 -118 71 -189t190 -71q103 0 171 56.5t68 141.5z" />
    <glyph glyph-name="atilde.salt" horiz-adv-x="1349" 
d="M911 1085h344v-1085h-344v96h-4q-50 -56 -133 -88.5t-180 -32.5q-236 0 -391.5 161t-155.5 407q0 247 155 407t392 160q91 0 174 -29.5t139 -81.5h4v86zM901 483v125q0 85 -68.5 143t-170.5 58q-122 0 -191.5 -70.5t-69.5 -193.5q0 -118 71 -189t190 -71q103 0 171 56.5
t68 141.5zM651 1272q-91 35 -127 35q-68 0 -86 -74h-170q6 128 70.5 198t175.5 70q84 0 199 -47q84 -35 125 -35q73 0 88 70h170q-6 -126 -71.5 -197t-172.5 -71q-84 0 -201 51z" />
    <glyph glyph-name="aring.ss02" horiz-adv-x="1241" 
d="M51 305q0 149 116 232t374 118q148 20 205 44.5t57 66.5q0 44 -48 71t-126 27q-100 0 -168.5 -49t-87.5 -135l-324 57q28 169 189 278t380 109q254 0 398 -120q147 -120 147 -328v-676h-321v109h-4q-128 -140 -371 -140q-190 0 -303 91t-113 245zM821 412v108h-4
q-17 -25 -62 -42.5t-143 -37.5q-124 -25 -171.5 -50t-47.5 -66q0 -82 152 -82q110 0 193 51t83 119zM287 1260q0 126 94 209t237 83t238.5 -83t95.5 -209t-95.5 -209.5t-238.5 -83.5q-142 0 -236.5 83.5t-94.5 209.5zM756 1260q0 60 -38.5 97.5t-99.5 37.5
q-60 0 -98.5 -37.5t-38.5 -97.5t38.5 -98t98.5 -38q61 0 99.5 38t38.5 98z" />
    <glyph glyph-name="aringacute.ss02" horiz-adv-x="1241" 
d="M51 305q0 149 116 232t374 118q148 20 205 44.5t57 66.5q0 44 -48 71t-126 27q-100 0 -168.5 -49t-87.5 -135l-324 57q28 169 189 278t380 109q254 0 398 -120q147 -120 147 -328v-676h-321v109h-4q-128 -140 -371 -140q-190 0 -303 91t-113 245zM821 412v108h-4
q-17 -25 -62 -42.5t-143 -37.5q-124 -25 -171.5 -50t-47.5 -66q0 -82 152 -82q110 0 193 51t83 119zM287 1260q0 126 94 209t237 83t238.5 -83t95.5 -209t-95.5 -209.5t-238.5 -83.5q-142 0 -236.5 83.5t-94.5 209.5zM756 1260q0 60 -38.5 97.5t-99.5 37.5
q-60 0 -98.5 -37.5t-38.5 -97.5t38.5 -98t98.5 -38q61 0 99.5 38t38.5 98zM438 1501l221 297h351l-293 -297h-279z" />
    <glyph glyph-name="f.ss03" horiz-adv-x="894" 
d="M236 0v801h-232v284h232v105q0 154 98 241t276 87h277v-283h-213q-84 0 -84 -80v-70h254v-284h-254v-801h-354z" />
    <glyph glyph-name="j.ss03" horiz-adv-x="530" 
d="M86 1253v332h354v-332h-354zM86 -461v1546h354v-1546h-354z" />
    <glyph glyph-name="t.ss03" horiz-adv-x="890" 
d="M676 319h182v-319h-235q-208 0 -306 92.5t-98 284.5v424h-215v284h215v281h354v-281h250v-284h-250v-391q0 -50 23 -70.5t80 -20.5z" />
    <glyph glyph-name="zero.ccmp" horiz-adv-x="1497" 
d="M47 717q-1 161 50.5 302.5t143.5 242t223.5 157t283.5 54.5q205 0 365.5 -97t248.5 -269t88 -390t-88 -390t-248.5 -269t-365.5 -97q-152 -2 -283.5 54.5t-223.5 157t-143.5 242t-50.5 302.5zM1085 717q0 201 -89.5 315.5t-247.5 114.5t-247 -114.5t-89 -315.5t89 -315.5
t247 -114.5t247.5 114.5t89.5 315.5z" />
    <glyph glyph-name="one.ccmp" horiz-adv-x="1013" 
d="M489 0v1053l-452 -238v369l479 250h338v-1434h-365z" />
    <glyph glyph-name="two.ccmp" horiz-adv-x="1421" 
d="M487 317h844v-317h-1239v229q0 189 109 310q68 75 164.5 128t248.5 97q154 46 230.5 81t106.5 71.5t30 91.5q0 68 -61 110.5t-164 42.5q-137 0 -226 -74t-102 -204l-356 35q22 250 211 402.5t473 152.5q258 0 422.5 -131.5t164.5 -327.5q0 -185 -117.5 -302t-377.5 -192
q-258 -76 -320 -127q-23 -17 -31 -33t-10 -43z" />
    <glyph glyph-name="three.ccmp" horiz-adv-x="1441" 
d="M57 444l349 95q59 -269 333 -269q125 0 192.5 45t67.5 129q0 154 -215 154h-200v266h180q199 0 199 137q0 75 -62 118.5t-168 43.5q-122 0 -199 -57t-102 -166l-350 64q40 215 217 342t438 127q167 0 302.5 -55.5t212.5 -154t77 -219.5q0 -175 -178 -280v-4
q100 -51 156.5 -141.5t56.5 -200.5q0 -207 -170 -332t-451 -125q-271 0 -458.5 132t-227.5 351z" />
    <glyph glyph-name="four.ccmp" horiz-adv-x="1458" 
d="M864 0v221h-860v328l633 885h592v-891h203v-322h-203v-221h-365zM385 543h479v661h-4z" />
    <glyph glyph-name="five.ccmp" horiz-adv-x="1421" 
d="M49 354l334 129q76 -202 342 -202q133 0 213 58t80 155q0 93 -79.5 150.5t-213.5 57.5q-173 0 -317 -116l-338 90l129 758h1030v-314h-754l-39 -225l4 -2q145 86 351 86q169 0 304.5 -65.5t212 -181.5t76.5 -261q0 -229 -181.5 -369.5t-477.5 -140.5q-256 0 -435 106
t-241 287z" />
    <glyph glyph-name="six.ccmp" horiz-adv-x="1441" 
d="M1415 459q0 -144 -84 -257.5t-230 -176t-327 -62.5q-340 0 -533.5 198.5t-193.5 547.5q0 222 91.5 395.5t255.5 269.5t374 96q225 0 387 -104q164 -102 219 -276l-332 -99q-31 82 -101.5 127t-168.5 45q-147 0 -233 -84t-103 -239h4q139 114 381 114q258 0 426 -141
t168 -354zM1061 481q0 98 -79 156.5t-212 58.5q-135 0 -218 -59t-83 -156q0 -94 83.5 -152.5t217.5 -58.5t212.5 56.5t78.5 154.5z" />
    <glyph glyph-name="seven.ccmp" horiz-adv-x="1269" 
d="M186 0l627 1112v4h-807v318h1237v-289l-625 -1145h-432z" />
    <glyph glyph-name="eight.ccmp" horiz-adv-x="1409" 
d="M16 418q0 124 77 225t206 148v4q-190 105 -190 278q0 179 166 289.5t430 110.5t429.5 -110.5t165.5 -289.5q0 -177 -192 -278v-4q130 -48 207.5 -148.5t77.5 -224.5q3 -130 -88.5 -236t-250 -164.5t-349.5 -56.5q-194 0 -351 58.5t-247.5 163t-90.5 235.5zM940 1053
q0 67 -62.5 105t-172.5 38q-111 0 -173.5 -38t-62.5 -105q0 -69 63.5 -109.5t172.5 -40.5q110 0 172.5 40.5t62.5 109.5zM1010 461q0 79 -82.5 126.5t-222.5 47.5t-223 -47.5t-83 -126.5q0 -78 82 -123t224 -45t223.5 45t81.5 123z" />
    <glyph glyph-name="nine.ccmp" horiz-adv-x="1359" 
d="M1313 762q0 -393 -162.5 -596t-472.5 -203q-227 0 -379.5 101t-202.5 280l320 100q35 -97 96.5 -139.5t165.5 -42.5q120 0 191 77.5t83 227.5q-134 -96 -340 -96q-258 0 -421.5 137t-163.5 350q0 222 174 367t448 145q315 0 489.5 -185.5t174.5 -522.5zM657 748
q131 0 207 56t76 154q0 93 -78.5 153t-204.5 60q-131 0 -205.5 -56t-74.5 -154q0 -100 74.5 -156.5t205.5 -56.5z" />
    <glyph glyph-name="zero.tnum" 
d="M35 717q-2 216 86.5 389.5t249.5 271.5t364 95q205 0 365.5 -97t249 -269t88.5 -390t-88.5 -390t-249 -269t-365.5 -97q-203 -3 -364 95t-249.5 271.5t-86.5 389.5zM1073 717q0 201 -90 315.5t-248 114.5t-247 -114.5t-89 -315.5t89 -315.5t247 -114.5t248 114.5
t90 315.5z" />
    <glyph glyph-name="one.tnum" 
d="M932 317h428v-317h-1241v317h448v736l-452 -238v369l479 250h338v-1117z" />
    <glyph glyph-name="two.tnum" 
d="M516 317h844v-317h-1239v229q0 190 108 310q68 75 165 128t249 97q154 46 230.5 81t106.5 71.5t30 91.5q0 68 -61.5 110.5t-164.5 42.5q-137 0 -225.5 -74t-101.5 -204l-357 35q22 250 211 402.5t473 152.5q258 0 423 -131.5t165 -327.5q0 -185 -117.5 -302t-377.5 -192
q-258 -76 -320 -127q-23 -17 -31 -33t-10 -43z" />
    <glyph glyph-name="three.tnum" 
d="M84 444l348 95q59 -269 334 -269q125 0 192.5 45t67.5 129q0 154 -215 154h-201v266h181q198 0 198 137q0 75 -61.5 118.5t-167.5 43.5q-122 0 -199 -57t-102 -166l-350 64q40 215 217 342t438 127q167 0 302.5 -55.5t212.5 -154t77 -219.5q0 -175 -178 -280v-4
q100 -51 156.5 -141.5t56.5 -200.5q0 -207 -170 -332t-451 -125q-271 0 -458.5 132t-227.5 351z" />
    <glyph glyph-name="four.tnum" 
d="M883 0v221h-860v328l632 885h592v-891h203v-322h-203v-221h-364zM403 543h480v661h-4z" />
    <glyph glyph-name="five.tnum" 
d="M70 354l333 129q76 -202 342 -202q133 0 213 58t80 155q0 93 -79.5 150.5t-213.5 57.5q-173 0 -317 -116l-338 90l129 758h1030v-314h-753l-39 -225l4 -2q145 86 350 86q169 0 305 -65.5t212.5 -181.5t76.5 -261q0 -229 -182 -369.5t-478 -140.5q-256 0 -434.5 106
t-240.5 287z" />
    <glyph glyph-name="six.tnum" 
d="M1415 459q0 -144 -84 -257.5t-230 -176t-327 -62.5q-340 0 -533.5 198.5t-193.5 547.5q0 222 91.5 395.5t255.5 269.5t374 96q225 0 387 -104q164 -102 219 -276l-332 -99q-31 82 -101.5 127t-168.5 45q-147 0 -233 -84t-103 -239h4q139 114 381 114q258 0 426 -141
t168 -354zM1061 481q0 98 -79 156.5t-212 58.5q-135 0 -218 -59t-83 -156q0 -94 83.5 -152.5t217.5 -58.5t212.5 56.5t78.5 154.5z" />
    <glyph glyph-name="seven.tnum" 
d="M299 0l627 1112v4h-807v318h1237v-289l-625 -1145h-432z" />
    <glyph glyph-name="eight.tnum" 
d="M55 418q0 124 77 225t206 148v4q-191 105 -191 278q0 179 166 289.5t430 110.5t430 -110.5t166 -289.5q0 -177 -192 -278v-4q130 -48 207.5 -148.5t77.5 -224.5q3 -130 -89 -236t-250.5 -164.5t-349.5 -56.5q-194 0 -351 58.5t-247 163t-90 235.5zM979 1053
q0 67 -62.5 105t-173.5 38q-110 0 -172.5 -38t-62.5 -105q0 -69 63 -109.5t172 -40.5q110 0 173 40.5t63 109.5zM1049 461q0 79 -83 126.5t-223 47.5t-222.5 -47.5t-82.5 -126.5q0 -78 81.5 -123t223.5 -45t224 45t82 123z" />
    <glyph glyph-name="nine.tnum" 
d="M1374 762q0 -393 -162.5 -596t-472.5 -203q-227 0 -379 101t-202 280l319 100q35 -97 96.5 -139.5t165.5 -42.5q120 0 191.5 77.5t83.5 227.5q-134 -96 -340 -96q-259 0 -422.5 137t-163.5 350q0 145 78 262t221 183.5t324 66.5q315 0 489 -185.5t174 -522.5zM719 748
q131 0 206.5 56t75.5 154q0 93 -78 153t-204 60q-131 0 -206 -56t-75 -154q0 -100 75 -156.5t206 -56.5z" />
    <glyph glyph-name="zero.zero" horiz-adv-x="1492" 
d="M1446 688q2 -154 -49.5 -289.5t-143.5 -232.5t-223.5 -152t-281.5 -53q-202 -3 -364 92t-250.5 262t-86.5 373q0 208 88 373t248 258.5t365 93.5q203 0 362.5 -93t247.5 -258.5t88 -373.5zM393 688q0 -155 66 -266l393 672q-41 14 -104 14q-164 0 -259.5 -112.5
t-95.5 -307.5zM1100 688q0 161 -68 270l-397 -675q63 -17 113 -17q162 0 257 113.5t95 308.5z" />
    <glyph glyph-name="zero.ordn" horiz-adv-x="1497" 
d="M1450 717q0 -218 -88 -390t-248.5 -269t-365.5 -97q-152 -2 -283.5 54.5t-223.5 157t-143.5 242t-50.5 302.5q-1 161 50.5 302.5t143.5 242t223.5 157t283.5 54.5q205 0 365.5 -97t248.5 -269t88 -390zM395 717q0 -157 56 -275l419 711q-52 21 -122 21q-165 0 -259 -121
t-94 -336zM1102 717q0 169 -62 287l-422 -721q67 -23 130 -23q166 0 260 121t94 336z" />
    <glyph glyph-name="zero.tnum_zero" 
d="M1440 717q0 -218 -88.5 -390t-249 -269t-365.5 -97q-203 -3 -364 95t-249.5 271.5t-86.5 389.5q-2 216 86.5 389.5t249.5 271.5t364 95q205 0 365.5 -97t249 -269t88.5 -390zM385 717q0 -159 55 -275l420 711q-52 21 -123 21q-165 0 -258.5 -121t-93.5 -336zM1092 717
q0 169 -62 287l-422 -721q67 -23 129 -23q166 0 260.5 121t94.5 336z" />
    <glyph glyph-name="zero.subs" horiz-adv-x="929" 
d="M37 125q0 196 118.5 322t309.5 126t309.5 -126t118.5 -322q0 -197 -118.5 -323t-309.5 -126t-309.5 126t-118.5 323zM657 125q0 113 -50 177.5t-142 64.5q-91 0 -143 -65.5t-52 -176.5t52 -176.5t143 -65.5q92 0 142 64.5t50 177.5z" />
    <glyph glyph-name="one.subs" horiz-adv-x="645" 
d="M285 -305v604l-258 -139v246l280 149h213v-860h-235z" />
    <glyph glyph-name="two.subs" horiz-adv-x="843" 
d="M305 -98h496v-207h-750v145q0 130 68 201q71 71 250 125q119 35 161.5 61.5t42.5 63.5t-37 60.5t-94 23.5q-73 0 -122 -41.5t-56 -112.5l-227 21q9 146 122 238.5t283 92.5q158 0 261.5 -79t103.5 -203q0 -105 -75 -175t-238 -114q-136 -40 -166 -63q-17 -17 -23 -37z
" />
    <glyph glyph-name="three.subs" horiz-adv-x="835" 
d="M27 -35l221 58q19 -74 66.5 -114t115.5 -40q63 0 99 25t36 71q0 88 -123 88h-104v160h92q56 0 86.5 21.5t30.5 58.5q0 44 -33.5 68t-95.5 24q-66 0 -110 -34.5t-56 -92.5l-215 41q27 125 128 199.5t253 74.5q151 0 252 -73q100 -69 100 -187q0 -107 -96 -166v-2
q125 -61 125 -198q0 -119 -102 -195t-267 -76q-160 0 -270 79t-133 210z" />
    <glyph glyph-name="four.subs" horiz-adv-x="911" 
d="M539 -305v137h-519v209l371 514h381v-514h125v-209h-125v-137h-233zM270 41h269v362h-2z" />
    <glyph glyph-name="five.subs" horiz-adv-x="880" 
d="M37 -139l176 137q82 -115 236 -115q74 0 117.5 31.5t43.5 85.5q0 50 -44.5 81.5t-116.5 31.5q-119 0 -197 -72l-201 55l94 459h609v-193h-437l-26 -116l2 -2q79 39 188 39q161 0 262 -82t101 -211q0 -138 -113.5 -226t-281.5 -88q-132 0 -237.5 48.5t-174.5 136.5z" />
    <glyph glyph-name="six.subs" horiz-adv-x="913" 
d="M877 -18q0 -130 -111.5 -218t-280.5 -88q-205 0 -326.5 124t-121.5 327q0 194 124 320t314 126q136 0 233 -59.5t132 -163.5l-224 -61q-34 88 -141 88q-80 0 -133.5 -53.5t-58.5 -133.5h2q88 78 235 78q158 0 257.5 -79.5t99.5 -206.5zM643 -12q0 54 -43.5 84t-118.5 30
q-72 0 -114.5 -31.5t-42.5 -82.5t42.5 -82t114.5 -31q76 0 119 29.5t43 83.5z" />
    <glyph glyph-name="seven.subs" horiz-adv-x="727" 
d="M80 -305l389 651v2h-469v207h752v-188l-392 -672h-280z" />
    <glyph glyph-name="eight.subs" horiz-adv-x="901" 
d="M37 -49q0 70 44.5 129.5t113.5 89.5v2q-45 24 -74 68t-29 94q0 105 101 172t258 67t258 -67q102 -67 102 -172q0 -50 -29 -94t-73 -68v-2q68 -30 111.5 -89.5t43.5 -129.5q0 -120 -112 -197.5t-301 -77.5q-187 0 -300.5 78t-113.5 197zM588 319q0 38 -36.5 59t-100.5 21
q-63 0 -99.5 -21t-36.5 -59t36.5 -59.5t99.5 -21.5t100 21.5t37 59.5zM616 -25q0 48 -42.5 75.5t-122.5 27.5q-79 0 -122.5 -27.5t-43.5 -75.5t42.5 -75t123.5 -27q80 0 122.5 27t42.5 75z" />
    <glyph glyph-name="nine.subs" horiz-adv-x="884" 
d="M848 135q0 -217 -113 -338t-307 -121q-118 0 -210.5 48.5t-143.5 130.5l178 110q31 -51 72.5 -73.5t103.5 -22.5q71 0 119.5 43t54.5 119h-2q-71 -47 -201 -47q-161 0 -261.5 78.5t-100.5 203.5q0 133 107 220t276 87q196 0 312 -118.5t116 -319.5zM428 156q74 0 116 29
t42 83q0 51 -43 82t-115 31q-74 0 -116 -29.5t-42 -83.5q0 -51 43 -81.5t115 -30.5z" />
    <glyph glyph-name="zero.dnom" horiz-adv-x="929" 
d="M37 430q0 197 118.5 323t309.5 126t309.5 -126t118.5 -323q0 -196 -118.5 -322t-309.5 -126t-309.5 126t-118.5 322zM657 430q0 113 -50 177.5t-142 64.5q-91 0 -143 -65.5t-52 -176.5t52 -176.5t143 -65.5q92 0 142 64.5t50 177.5z" />
    <glyph glyph-name="one.dnom" horiz-adv-x="645" 
d="M285 0v604l-258 -139v246l280 149h213v-860h-235z" />
    <glyph glyph-name="two.dnom" horiz-adv-x="843" 
d="M305 207h496v-207h-750v145q0 130 68 201q71 71 250 125q119 35 161.5 61.5t42.5 63.5t-37 60.5t-94 23.5q-73 0 -122 -41.5t-56 -112.5l-227 21q9 146 122 239t283 93q158 0 261.5 -79.5t103.5 -203.5q0 -105 -75 -175t-238 -114q-136 -40 -166 -63q-17 -17 -23 -37z
" />
    <glyph glyph-name="three.dnom" horiz-adv-x="835" 
d="M27 270l221 58q19 -74 66.5 -114t115.5 -40q63 0 99 25t36 71q0 88 -123 88h-104v160h92q56 0 86.5 21.5t30.5 58.5q0 44 -33.5 68t-95.5 24q-66 0 -110 -34.5t-56 -92.5l-215 41q27 125 128.5 200t252.5 75q149 0 252 -74q100 -69 100 -187q0 -106 -96 -165v-2
q125 -61 125 -199q0 -119 -102 -194.5t-267 -75.5q-160 0 -270 78.5t-133 209.5z" />
    <glyph glyph-name="four.dnom" horiz-adv-x="911" 
d="M539 0v137h-519v209l371 514h381v-514h125v-209h-125v-137h-233zM270 346h269v363h-2z" />
    <glyph glyph-name="five.dnom" horiz-adv-x="880" 
d="M37 166l176 137q82 -115 236 -115q74 0 117.5 31.5t43.5 85.5q0 50 -44.5 81.5t-116.5 31.5q-119 0 -197 -72l-201 55l94 459h609v-192h-437l-26 -117l2 -2q79 39 188 39q161 0 262 -82t101 -211q0 -138 -113.5 -225.5t-281.5 -87.5q-133 0 -238 48t-174 136z" />
    <glyph glyph-name="six.dnom" horiz-adv-x="913" 
d="M877 287q0 -130 -111.5 -217.5t-280.5 -87.5q-205 0 -326.5 123.5t-121.5 326.5q0 194 124 320.5t314 126.5q136 0 233 -59.5t132 -164.5l-224 -61q-34 88 -141 88q-80 0 -133.5 -53.5t-58.5 -132.5h2q86 77 235 77q158 0 257.5 -79.5t99.5 -206.5zM643 293
q0 54 -43.5 84.5t-118.5 30.5q-71 0 -114 -32t-43 -83t42.5 -82t114.5 -31q76 0 119 29.5t43 83.5z" />
    <glyph glyph-name="seven.dnom" horiz-adv-x="727" 
d="M80 0l389 651v2h-469v207h752v-188l-392 -672h-280z" />
    <glyph glyph-name="eight.dnom" horiz-adv-x="901" 
d="M37 256q0 70 44.5 129.5t113.5 89.5v2q-45 24 -74 68t-29 94q0 105 101 172q103 68 258 68t258 -68q102 -67 102 -172q0 -50 -29 -94t-73 -68v-2q68 -30 111.5 -89.5t43.5 -129.5q0 -120 -111.5 -197t-301.5 -77q-187 0 -300.5 77.5t-113.5 196.5zM588 625q0 38 -36.5 59
t-100.5 21q-63 0 -99.5 -21t-36.5 -59t36.5 -60t99.5 -22t100 22t37 60zM616 281q0 48 -42.5 75t-122.5 27q-79 0 -122.5 -27t-43.5 -75t43 -75.5t123 -27.5t122.5 27.5t42.5 75.5z" />
    <glyph glyph-name="nine.dnom" horiz-adv-x="884" 
d="M848 440q0 -217 -113 -337.5t-307 -120.5q-118 0 -210.5 48t-143.5 130l178 110q31 -51 72.5 -73.5t103.5 -22.5q71 0 119.5 43t54.5 119h-2q-71 -47 -201 -47q-161 0 -261.5 78.5t-100.5 203.5q0 133 107 220.5t276 87.5q196 0 312 -119t116 -320zM428 461q74 0 116 29
t42 83q0 51 -43 82t-115 31q-74 0 -116 -29.5t-42 -83.5q0 -51 43 -81.5t115 -30.5z" />
    <glyph glyph-name="zero.numr" horiz-adv-x="929" 
d="M37 1004q0 196 118.5 322t309.5 126t309.5 -126t118.5 -322q0 -197 -118.5 -323t-309.5 -126t-309.5 126t-118.5 323zM657 1004q0 113 -50 177t-142 64t-143.5 -65t-51.5 -176t52 -176.5t143 -65.5q92 0 142 64.5t50 177.5z" />
    <glyph glyph-name="one.numr" horiz-adv-x="645" 
d="M285 573v605l-258 -140v246l280 150h213v-861h-235z" />
    <glyph glyph-name="two.numr" horiz-adv-x="843" 
d="M305 780h496v-207h-750v146q0 130 68 201q38 38 95.5 66.5t154.5 57.5q119 35 161.5 61.5t42.5 63.5t-37 60.5t-94 23.5q-73 0 -122 -41t-56 -112l-227 20q9 146 122 239t283 93q158 0 261.5 -79.5t103.5 -203.5q0 -105 -75 -174.5t-238 -113.5q-134 -39 -166 -64
q-17 -17 -23 -37z" />
    <glyph glyph-name="three.numr" horiz-adv-x="835" 
d="M27 844l221 57q19 -74 66.5 -113.5t115.5 -39.5q63 0 99 25t36 71q0 88 -123 88h-104v160h92q56 0 86.5 21t30.5 58q0 44 -34 68.5t-95 24.5q-66 0 -110 -34.5t-56 -92.5l-215 41q27 125 128 199.5t253 74.5q149 0 252 -74q100 -69 100 -186q0 -107 -96 -166v-2
q125 -61 125 -199q0 -119 -102 -194.5t-267 -75.5q-160 0 -270 79t-133 210z" />
    <glyph glyph-name="four.numr" horiz-adv-x="911" 
d="M539 573v138h-519v209l371 514h381v-514h125v-209h-125v-138h-233zM270 920h269v362h-2z" />
    <glyph glyph-name="five.numr" horiz-adv-x="880" 
d="M37 739l176 138q82 -115 236 -115q74 0 117.5 31.5t43.5 85.5q0 50 -44.5 81t-116.5 31q-120 0 -197 -71l-201 55l94 459h609v-193h-437l-26 -117l2 -2q79 39 188 39q161 0 262 -82t101 -211q0 -138 -113.5 -225.5t-281.5 -87.5q-133 0 -238 48t-174 136z" />
    <glyph glyph-name="six.numr" horiz-adv-x="913" 
d="M877 860q0 -130 -111.5 -217.5t-280.5 -87.5q-205 0 -326.5 124t-121.5 327q0 194 124 320t314 126q136 0 233 -59.5t132 -163.5l-224 -62q-34 88 -141 88q-80 0 -133.5 -53.5t-58.5 -132.5h2q88 78 235 78q158 0 257.5 -80t99.5 -207zM643 866q0 54 -43.5 84.5
t-118.5 30.5q-71 0 -114 -32t-43 -83t42.5 -81.5t114.5 -30.5q76 0 119 29.5t43 82.5z" />
    <glyph glyph-name="seven.numr" horiz-adv-x="727" 
d="M80 573l389 652v2h-469v207h752v-189l-392 -672h-280z" />
    <glyph glyph-name="eight.numr" horiz-adv-x="901" 
d="M37 829q0 70 44.5 130t113.5 90v2q-45 24 -74 67.5t-29 93.5q0 105 101 172q103 68 258 68t258 -68q102 -68 102 -172q0 -49 -29 -93t-73 -68v-2q68 -30 111.5 -90t43.5 -130q0 -120 -111.5 -197t-301.5 -77q-187 0 -300.5 77.5t-113.5 196.5zM588 1198q0 38 -36.5 59
t-100.5 21q-63 0 -99.5 -21t-36.5 -59t36.5 -60t99.5 -22t100 22t37 60zM616 854q0 48 -42.5 75t-122.5 27q-79 0 -122.5 -27t-43.5 -75t42.5 -75t123.5 -27q80 0 122.5 27t42.5 75z" />
    <glyph glyph-name="nine.numr" horiz-adv-x="884" 
d="M848 1014q0 -217 -113 -338t-307 -121q-118 0 -210.5 48t-143.5 130l178 111q31 -51 72.5 -73.5t103.5 -22.5q71 0 119.5 42.5t54.5 118.5h-2q-71 -47 -201 -47q-161 0 -261.5 79t-100.5 204q0 133 107 220t276 87q196 0 312 -118.5t116 -319.5zM428 1034q74 0 116 29.5
t42 83.5q0 51 -43 82t-115 31q-74 0 -116 -29.5t-42 -83.5q0 -51 43 -82t115 -31z" />
    <glyph glyph-name="zero.sups" horiz-adv-x="929" 
d="M37 1208q0 197 118.5 323t309.5 126t309.5 -126t118.5 -323q0 -196 -118.5 -322t-309.5 -126t-309.5 126t-118.5 322zM657 1208q0 113 -50 177.5t-142 64.5q-91 0 -143 -65.5t-52 -176.5t51.5 -176t143.5 -65t142 64t50 177z" />
    <glyph glyph-name="one.sups" horiz-adv-x="645" 
d="M285 778v604l-258 -139v246l280 149h213v-860h-235z" />
    <glyph glyph-name="two.sups" horiz-adv-x="843" 
d="M305 985h496v-207h-750v146q0 129 68 200q71 71 250 125q119 35 161.5 61.5t42.5 63.5t-37 60.5t-94 23.5q-73 0 -122 -41t-56 -112l-227 20q9 146 122 239t283 93q158 0 261.5 -79.5t103.5 -203.5q0 -105 -75 -175t-238 -114q-136 -40 -166 -63q-17 -17 -23 -37z" />
    <glyph glyph-name="three.sups" horiz-adv-x="835" 
d="M27 1049l221 57q19 -74 66.5 -114t115.5 -40q63 0 99 25t36 72q0 88 -123 88h-104v159h92q56 0 86.5 21.5t30.5 58.5q0 44 -33.5 68t-95.5 24q-66 0 -110 -34.5t-56 -92.5l-215 41q27 125 128.5 200t252.5 75q149 0 252 -74q100 -69 100 -186q0 -107 -96 -166v-2
q125 -61 125 -199q0 -119 -102 -194.5t-267 -75.5q-160 0 -270 79t-133 210z" />
    <glyph glyph-name="four.sups" horiz-adv-x="911" 
d="M539 778v137h-519v209l371 514h381v-514h125v-209h-125v-137h-233zM270 1124h269v363h-2z" />
    <glyph glyph-name="five.sups" horiz-adv-x="880" 
d="M37 944l176 137q81 -114 236 -114q74 0 117.5 31t43.5 85q0 50 -44.5 81.5t-116.5 31.5q-119 0 -197 -72l-201 56l94 458h609v-192h-437l-26 -117l2 -2q79 39 188 39q161 0 262 -82t101 -211q0 -138 -113.5 -225.5t-281.5 -87.5q-133 0 -238 48t-174 136z" />
    <glyph glyph-name="six.sups" horiz-adv-x="913" 
d="M877 1065q0 -130 -111.5 -217.5t-280.5 -87.5q-205 0 -326.5 123.5t-121.5 326.5q0 194 124 320.5t314 126.5q136 0 233 -59.5t132 -163.5l-224 -62q-34 88 -141 88q-80 0 -133.5 -53.5t-58.5 -132.5h2q88 78 235 78q158 0 257.5 -80t99.5 -207zM643 1071
q0 54 -43.5 84.5t-118.5 30.5q-71 0 -114 -32t-43 -83t42.5 -82t114.5 -31q76 0 119 29.5t43 83.5z" />
    <glyph glyph-name="seven.sups" horiz-adv-x="727" 
d="M80 778l389 652v2h-469v206h752v-188l-392 -672h-280z" />
    <glyph glyph-name="eight.sups" horiz-adv-x="901" 
d="M37 1034q0 70 44.5 129.5t113.5 89.5v2q-45 24 -74 68t-29 94q0 105 101 172q103 68 258 68t258 -68q102 -67 102 -172q0 -50 -29 -94t-73 -68v-2q68 -30 111.5 -89.5t43.5 -129.5q0 -120 -111.5 -197t-301.5 -77q-187 0 -300.5 77.5t-113.5 196.5zM588 1403
q0 38 -36.5 59t-100.5 21q-63 0 -99.5 -21t-36.5 -59t36.5 -60t99.5 -22t100 22t37 60zM616 1059q0 48 -42.5 75t-122.5 27q-79 0 -122.5 -27t-43.5 -75t43 -75.5t123 -27.5t122.5 27.5t42.5 75.5z" />
    <glyph glyph-name="nine.sups" horiz-adv-x="884" 
d="M848 1219q0 -217 -113 -338t-307 -121q-118 0 -210.5 48t-143.5 130l178 111q58 -97 176 -97q71 0 119.5 43t54.5 119h-2q-71 -47 -201 -47q-161 0 -261.5 79t-100.5 204q0 133 107 220t276 87q196 0 312 -118.5t116 -319.5zM428 1239q74 0 116 29.5t42 83.5
q0 51 -43 81.5t-115 30.5q-74 0 -116 -29t-42 -83q0 -51 43 -82t115 -31z" />
    <glyph glyph-name="braceleft.case" horiz-adv-x="878" 
d="M279 55v320q0 69 -23.5 95t-89.5 26h-57v378h57q66 0 89.5 26t23.5 95v277q0 179 79.5 252t274.5 73h219v-280h-182q-65 0 -89 -28.5t-24 -102.5v-293q0 -86 -53.5 -146.5t-134.5 -60.5v-4q81 0 134.5 -60.5t53.5 -146.5v-332q0 -74 24 -102.5t89 -28.5h182v-282h-219
q-195 0 -274.5 73t-79.5 252z" />
    <glyph glyph-name="braceright.case" horiz-adv-x="878" 
d="M246 -270h-219v282h182q65 0 89 28.5t24 102.5v332q0 86 53.5 146.5t134.5 60.5v4q-81 0 -134.5 60.5t-53.5 146.5v293q0 74 -24 102.5t-89 28.5h-182v280h219q195 0 274.5 -73t79.5 -252v-277q0 -69 23.5 -95t89.5 -26h57v-378h-57q-66 0 -89.5 -26t-23.5 -95v-320
q0 -179 -79.5 -252t-274.5 -73z" />
    <glyph glyph-name="bracketleft.case" horiz-adv-x="731" 
d="M129 -270v1867h576v-270h-297v-1325h297v-272h-576z" />
    <glyph glyph-name="bracketright.case" horiz-adv-x="731" 
d="M602 -270h-575v272h297v1325h-297v270h575v-1867z" />
    <glyph glyph-name="parenleft.case" horiz-adv-x="776" 
d="M150 707q0 262 106.5 518.5t310.5 488.5l203 -149q-166 -212 -242 -420q-73 -198 -73 -438q0 -241 73 -439q76 -208 242 -420l-203 -149q-204 232 -310.5 489t-106.5 519z" />
    <glyph glyph-name="parenright.case" horiz-adv-x="776" 
d="M209 -301l-203 149q166 212 242 420q74 201 74 439q0 237 -74 438q-76 208 -242 420l203 149q205 -232 311.5 -488.5t106.5 -518.5t-107 -519t-311 -489z" />
    <glyph glyph-name="emdash.ccmp" horiz-adv-x="1736" 
d="M68 582v297h1601v-297h-1601z" />
    <glyph glyph-name="endash.ccmp" horiz-adv-x="1153" 
d="M68 582v297h1017v-297h-1017z" />
    <glyph glyph-name="hyphen.ccmp" horiz-adv-x="712" 
d="M68 582v297h577v-297h-577z" />
    <glyph glyph-name="uni00AD.ccmp" horiz-adv-x="712" 
d="M68 582v297h577v-297h-577z" />
    <glyph glyph-name="guillemotleft.case" horiz-adv-x="1161" 
d="M776 264l-229 400l229 397h297l-239 -397l239 -400h-297zM338 264l-229 400l229 397h297l-240 -397l240 -400h-297z" />
    <glyph glyph-name="guillemotright.case" horiz-adv-x="1161" 
d="M385 264h-297l240 400l-240 397h297l229 -397zM823 264h-297l240 400l-240 397h297l230 -397z" />
    <glyph glyph-name="guilsinglleft.case" horiz-adv-x="722" 
d="M338 264l-229 400l229 397h297l-240 -397l240 -400h-297z" />
    <glyph glyph-name="guilsinglright.case" horiz-adv-x="722" 
d="M385 264h-297l240 400l-240 397h297l229 -397z" />
    <glyph glyph-name="uni0E3F.tnum" 
d="M1386 444q0 -223 -139.5 -333.5t-423.5 -110.5h-4v-236h-157v236h-512v1434h512v215h157v-215h72q195 0 319.5 -108.5t124.5 -278.5q0 -86 -39 -157t-108 -112v-4q92 -44 145 -132t53 -198zM494 1126v-247h168v247h-168zM840 1126h-21v-247h21q145 0 145 125
q0 122 -145 122zM494 307h168v293h-168v-293zM1038 455q0 145 -164 145h-55v-293h53q86 0 126 36.5t40 111.5z" />
    <glyph glyph-name="cent.tnum" 
d="M1036 446l322 -96q-44 -156 -184 -259.5t-334 -123.5v-203h-158v203q-245 22 -405 184t-160 392t160 391.5t405 183.5v182h158v-182q194 -20 334 -123.5t184 -259.5l-322 -96q-40 137 -196 174v-541q74 17 125 62t71 112zM682 272v541q-100 -20 -160.5 -93t-60.5 -177
q0 -103 60 -175t161 -96z" />
    <glyph glyph-name="currency.tnum" 
d="M1128 377l138 -137l-97 -97l-137 133q-124 -100 -295 -100q-172 0 -299 103l-135 -136l-96 97l137 139q-86 127 -86 297q0 164 84 295l-135 135l96 96l129 -131q128 107 305 107q175 0 303 -107l131 131l97 -96l-135 -137q84 -131 84 -293q0 -166 -89 -299zM915 674
q0 109 -45.5 167t-130.5 58q-178 0 -178 -225q0 -106 45 -161.5t133 -55.5q85 0 130.5 56t45.5 161z" />
    <glyph glyph-name="dollar.tnum" 
d="M807 -37v-199h-158v207q-248 27 -400.5 157t-187.5 353l338 60q26 -117 87.5 -183t162.5 -90v338q-184 47 -284 88q-124 48 -198.5 134t-74.5 210q0 187 153.5 305t403.5 127v179h158v-185q217 -26 363.5 -140t187.5 -290l-338 -73q-52 163 -213 204v-286
q187 -42 303 -88q138 -54 220.5 -150.5t82.5 -237.5q0 -195 -165 -316t-441 -124zM649 913v265q-97 -5 -151 -40.5t-54 -95.5q0 -42 49.5 -71.5t155.5 -57.5zM1061 397q0 59 -61.5 97.5t-192.5 72.5v-313q122 1 188 40t66 103z" />
    <glyph glyph-name="Euro.tnum" 
d="M1085 565l342 -63q-31 -243 -200 -392t-412 -149q-236 0 -403.5 132t-229.5 362h-168v223h136v37q0 41 2 51h-138v223h172q66 227 232 355.5t397 128.5q240 0 408.5 -145.5t199.5 -375.5l-342 -61q-25 128 -93 195t-173 67q-171 0 -256 -164h336v-223h-389q-2 -10 -2 -51
v-37h297v-223h-246q38 -85 105 -129.5t155 -44.5q223 0 270 284z" />
    <glyph glyph-name="florin.tnum" 
d="M985 1085h354v-284h-403l-158 -907q-58 -340 -424 -340h-223v284h186q51 0 78 22.5t35 69.5l152 871h-295v284h344l16 95q59 338 424 338h264v-283h-227q-101 0 -113 -92z" />
    <glyph glyph-name="lira.tnum" 
d="M1055 756h364q3 -216 -96.5 -390.5t-276 -271t-393.5 -94.5h-364v586l-160 -58l-74 207l234 84v111l-160 -58l-74 207l234 84v271h364v-138l301 109l78 -205l-379 -137v-111l301 109l78 -205l-379 -137v-402q180 0 291 120.5t111 318.5z" />
    <glyph glyph-name="uni20BD.tnum" 
d="M1407 940q0 -228 -149 -358.5t-392 -130.5h-250v-97h248v-198h-248v-156h-364v156h-205v198h205v97h-205v198h205v785h614q242 0 391.5 -133t149.5 -361zM1042 944q0 178 -202 178h-224v-362h220q91 0 148.5 48t57.5 136z" />
    <glyph glyph-name="uni20A8.tnum" 
d="M1335 1237h-278v-4q76 -76 100 -184h178v-189h-176q-23 -130 -107.5 -222t-215.5 -130v-4l335 -504h-405l-301 475h-328v293h465q149 0 199 92h-664v189h666q-41 92 -201 92h-465v293h1198v-197z" />
    <glyph glyph-name="sterling.tnum" 
d="M682 330v-4h664v-326h-1248v326h90q115 0 178.5 45t63.5 127q0 28 -10 55h-322v264h113q-90 117 -90 232q0 189 167.5 306.5t434.5 117.5q256 0 436 -121.5t217 -321.5l-350 -74q-59 197 -303 197q-106 0 -167.5 -44.5t-61.5 -119.5q0 -35 20 -71.5t70 -100.5h510v-264
h-351q9 -53 9 -66q0 -99 -70 -157z" />
    <glyph glyph-name="uni20A9.tnum" 
d="M1483 969h-113l-16 -103h129v-194h-158l-102 -672h-336l-144 604h-4l-149 -604h-338l-102 672h-158v194h129l-17 103h-112v192h84l-41 273h330l32 -273h682l33 273h328l-41 -273h84v-192zM420 969l12 -103h131l23 103h-166zM1044 866l13 103h-164l22 -103h129zM475 494h4
l41 178h-65zM999 494l21 178h-64l39 -178h4z" />
    <glyph glyph-name="yen.tnum" 
d="M1442 1434l-441 -723h369v-224h-450v-86h450v-225h-450v-176h-365v176h-449v225h449v86h-449v224h369l-440 723h399l301 -539h4l301 539h402z" />
    <glyph glyph-name="plus.tnum" 
d="M1276 872v-270h-393v-426h-291v426h-395v270h395v426h291v-426h393z" />
    <glyph glyph-name="minus.tnum" 
d="M248 602v270h977v-270h-977z" />
    <glyph glyph-name="multiply.tnum" 
d="M418 199l-195 190l322 320l-322 319l195 193l317 -320l318 320l194 -193l-321 -319l321 -320l-194 -190l-318 319z" />
    <glyph glyph-name="divide.tnum" 
d="M522 1198q0 92 61 153.5t152 61.5q94 0 155.5 -61.5t61.5 -153.5q0 -94 -61.5 -154.5t-155.5 -60.5q-91 0 -152 61.5t-61 153.5zM248 602v270h977v-270h-977zM522 268q0 92 61 153.5t152 61.5q94 0 155.5 -61.5t61.5 -153.5t-61.5 -153.5t-155.5 -61.5q-91 0 -152 61.5
t-61 153.5z" />
    <glyph glyph-name="equal.tnum" 
d="M250 782v273h975v-273h-975zM250 354v273h975v-273h-975z" />
    <glyph glyph-name="notequal.tnum" 
d="M1225 782h-342l-90 -155h432v-273h-588l-141 -245l-150 88l90 157h-186v273h344l88 155h-432v273h590l141 245l147 -88l-90 -157h187v-273z" />
    <glyph glyph-name="greater.tnum" 
d="M416 139l-156 252l569 326l-569 325l156 252l796 -475v-203z" />
    <glyph glyph-name="less.tnum" 
d="M1057 139l-797 477v203l797 475l155 -252l-569 -325l569 -326z" />
    <glyph glyph-name="greaterequal.tnum" 
d="M424 324l-139 245l569 295l-569 297l139 244l797 -444v-193zM256 0v272h965v-272h-965z" />
    <glyph glyph-name="lessequal.tnum" 
d="M1053 324l-797 444v193l797 444l139 -244l-569 -297l569 -295zM1221 0h-965v272h965v-272z" />
    <glyph glyph-name="plusminus.tnum" 
d="M885 1071h393v-270h-393v-336h-291v336h-395v270h395v336h291v-336zM199 72v272h1079v-272h-1079z" />
    <glyph glyph-name="approxequal.tnum" 
d="M399 764l-278 115q99 344 393 344q64 0 125 -22t152 -71q106 -57 151 -57q80 0 133 150l279 -113q-102 -346 -396 -346q-63 0 -123.5 21.5t-150.5 70.5q-104 59 -152 59q-80 0 -133 -151zM399 231l-278 115q99 344 393 344q65 0 126 -21.5t151 -70.5q106 -57 151 -57
q81 0 133 149l279 -112q-102 -347 -396 -347q-63 0 -123 22t-151 71q-104 59 -152 59q-80 0 -133 -152z" />
    <glyph glyph-name="percent.tnum" 
d="M6 1352q0 195 122.5 321.5t311.5 126.5t311.5 -126.5t122.5 -321.5t-122.5 -322t-311.5 -127t-311.5 127t-122.5 322zM602 1352q0 97 -42 150.5t-120 53.5q-77 0 -119 -54.5t-42 -149.5t42 -150t119 -55q78 0 120 54t42 151zM303 317l-135 232l928 534l133 -229zM600 82
q0 195 123 321.5t311 126.5q190 0 312 -126.5t122 -321.5t-122 -322t-312 -127q-188 0 -311 127t-123 322zM1196 82q0 97 -42 151t-120 54q-77 0 -118.5 -53.5t-41.5 -151.5t41.5 -151.5t118.5 -53.5q78 0 120 54t42 151z" />
    <glyph glyph-name="perthousand.tnum" 
d="M20 1442q0 195 123 321.5t312 126.5t311.5 -126.5t122.5 -321.5t-122.5 -322t-311.5 -127t-312 127t-123 322zM614 1442q0 95 -41 150t-118 55t-119.5 -55t-42.5 -150q0 -97 42 -151t120 -54q77 0 118 53.5t41 151.5zM131 467l-84 231l1108 402l86 -230zM4 -29
q0 197 122.5 324t315.5 127q116 0 193 -53q51 122 156.5 190t242.5 68q193 0 316 -126.5t123 -322.5q0 -197 -123 -323.5t-316 -126.5q-114 0 -196 49q-51 -121 -155 -187.5t-241 -66.5q-193 0 -315.5 126t-122.5 322zM1200 178q0 95 -45.5 150t-126.5 55q-84 0 -129 -55
t-45 -150q0 -98 45 -152.5t129 -54.5q81 0 126.5 55t45.5 152zM623 -29q0 95 -46.5 151t-130.5 56q-81 0 -125.5 -55t-44.5 -152q0 -95 44.5 -149.5t125.5 -54.5q84 0 130.5 54.5t46.5 149.5z" />
    <glyph glyph-name="at.case" horiz-adv-x="1753" 
d="M88 713q-3 155 58 296.5t166.5 244.5t254.5 162.5t314 56.5q164 2 310.5 -54.5t251.5 -154t165 -233.5t57 -286q0 -213 -85 -326.5t-241 -113.5q-159 0 -221 105h-4q-41 -54 -117.5 -83.5t-173.5 -29.5q-149 0 -236 65t-87 175q0 93 61 151t189 84q171 41 213.5 58
t42.5 49q0 30 -28.5 46.5t-78.5 16.5q-138 0 -168 -117l-223 56q26 115 130.5 184.5t252.5 69.5q168 0 267 -86t99 -232v-217q0 -51 18.5 -73.5t59.5 -22.5q111 0 111 239q0 153 -71.5 275t-200 191t-291.5 69q-164 0 -296.5 -75t-206 -204t-73.5 -286q0 -268 150.5 -411.5
t421.5 -143.5q188 0 393 84l76 -189q-232 -90 -457 -90q-371 0 -587 197.5t-216 552.5zM1006 586v100h-2q-11 -14 -40 -25.5t-118 -33.5q-50 -14 -72 -31t-22 -43q0 -32 24 -46.5t78 -14.5q66 0 109 26.5t43 67.5z" />
    <glyph glyph-name="_646" horiz-adv-x="0" 
d="M0 903l-496 -471v62l-307 -287l-112 117l419 393v-60l385 361z" />
    <glyph glyph-name="_648" horiz-adv-x="0" 
d="M0 999l-641 -608v55l-313 -294l-111 112l469 443v-41l481 456z" />
    <glyph glyph-name="_649" horiz-adv-x="0" 
d="M-354 1253v332h354v-332h-354z" />
    <glyph glyph-name="_650" horiz-adv-x="0" 
d="M-897 629v213h897v-213h-897z" />
    </font>
</defs>
</svg>
